<mxfile host="Electron" modified="2024-02-12T21:12:44.717Z" agent="Mozilla/5.0 (X11; Linux x86_64) AppleWebKit/537.36 (KHTML, like Gecko) draw.io/23.0.2 Chrome/120.0.6099.109 Electron/28.1.0 Safari/537.36" etag="IJLOBxItycTVel-u-T76" version="23.0.2" type="device">
  <diagram name="Page-1" id="4HouCqczofj7OJSaRTuX">
    <mxGraphModel dx="637" dy="322" grid="0" gridSize="1" guides="1" tooltips="1" connect="1" arrows="1" fold="1" page="1" pageScale="1" pageWidth="850" pageHeight="1100" math="1" shadow="0">
      <root>
        <mxCell id="0" />
        <mxCell id="1" parent="0" />
        <mxCell id="QFNIT0m9x6jqfU3S40xn-11" value="" style="shape=image;verticalLabelPosition=bottom;labelBackgroundColor=default;verticalAlign=top;aspect=fixed;imageAspect=0;image=data:image/png,iVBORw0KGgoAAAANSUhEUgAAAyAAAAHlCAIAAACCqA8RAAAACXBIWXMAAA7EAAAOxAGVKw4bAAAgAElEQVR4nOzdd1wTZwMH8OeyIAlbVGSICMhy1IW7iqMqWq3U1rrHK85atdaqrataa23rKm5r3duKC+sWtTjAiQIylaUyZYeR5N4/UGQEiHJHLuH3/fiHXHJ3z5O7e/LLc8/dUZGRkQQAAAAAmMPTdAEAAAAAdA0CFgAAAADDELAAAAAAGIaABQAAAMAwBCwAAAAAhiFgAQAAADAMAQsAAACAYQhYAAAAAAxDwAIAAABgGAIWAAAAAMMQsAAAAAAYhoAFAAAAwDAELAAAAACGIWABAAAAMAwBCwDekj27sGHuqP5d2jR3btbM0dHRufuyOwVJ537wbNem57RDzxSaK5n8warezo6OLoM2hGuwFAAAahNougAA8JYiM/KG35mLN4Iehz9LTM3KLSQiqZFZo8YOzVq07di1Z5+uTqYsHrEFT/+aOOr3wEwlIRRFEUIIz7hjt5bk0Q9nojJltP/ZW2nD7BpQ7BWAu4pu/Nh14pF0ZWWvC1xnnzw+rRm/wguKzAj/kyfOXQt6HPH81evsfFokNTa3tHV0a9elZ78BPd3qVdye8tQnl8+cvRxwLyTy+Yv0bFkhT8/AyNyyiYNLq/Ydu/Xq3cHOsOJ6AIB7ELAAuECedOvvFcu2XIjOVtClJsuyUhOzUhPD7187vXv99okHz85rLWSnAHTq2XWbgjKVPPOus9euGOtuIcjPTHlNm4uFKd27Nzx/saCNR9t6dTJdfSA668nhFT/8cfJpZuktKstKic9KiX9698rxHSfnnDkyuWmptJQfd3nzsp93Xk+Qld4HSF5mSlxmSlxY0JXjO9a0mut32NsOEQuA+xCwADQuL2T3zMkrryUpaIpv4uwxaICHe3N7y3pSflFuRkp8VOijoIBrAaGmQ4e2ZCldEULyH/x3N4cmghbjFnl3tOQTQiSmlhJCCLH6zMffs4CI9Or8tzrfcezGNV/aVBxYQemb25b5dOjU6ysmzNgTlkcTSt+qw4DPPLu3dbA0M6DyM17FhNwLuHTuarTraK9SQYnOCFw/dfrmuxlKQonqt+w9qH/3dq5NLMwkVEFORlJsRMiDO/9du/nMadgg2zq/HQC0AwIWgGYpX5yeP2XltSQFETsMWbh64VBXozLf4G079/pszAw6PzOLGLP31arMeJWURxOeYTMXm4pr4Yv0WFuzFqH06jVxbGZf7VZQPDvw3bd7w/JoSuoyYqXPvP624ncvtmzb+ZMvvL/PzsiVmJT0CBZF7Z05ffPdDCXPuOWoZX9852knLrPEdl0++Xz8bGVeZo7QGANnAbQDAhaAJtEpZ1euOP9KQQRNvly/d5mHeSVfn5S+sTGr5ZDlyWhCKH2xHs4D1owy5fTv625lKimB3Vd/7l7ysamqD5RvaGJU8oci9uDSNbcylJTYzXvLrjntDCvZBDyJsZHqVwCAexCwADRIEX5w66V0JeE3/uqnBZWmK5VzPlkzcOjm582/P3vY2075MmDX2g2H/Z8kZBSQJt5H/p3bkk8Ikac/9T9z+uKNwAehz169ziniS+tZN2vr4TVholcrszf9MMrku0f2Hfb790pQrJwQ8nLvKJe9hBBC+FZj9l5a1F6giNjkNXhtKN14woHzC9qUbTHovOfXjuw7dj7gUWRCao5CaGBu7eDausuAUWMHuhi9SQm0LCHo3Kl/r9y6+zgiITVTptQztmjaonP/kd6jPWzL9tMQQgiRxV7Zu/2A33/Bz5OzFWJzuxYfD/7ftNGdhMLKG6ui5LvHdx88e/3e04TUrAK+kYV9y059vMaM7OtUtjNQrQ+tphQxx3ZfzVQSvsVnP3zXTWW6KkcWuOvvu7k0JXKd+Ms3laYrANAyCFgAmqMIO/tvpJymhK1GjOso/YAF0GkpabLIW3PGL7ua9GYstaiRdSMeIYTkXFrgOf1EmpIQQiiKLxCQguykqLtno+5duvjI59DynvUoQogizG/nqaACIjYQZmcWEr7U3MJERAghPAuTqjuzZOEHv5/2y/m4/JIR2fLMl5H3XkZHiz8e+6nLmxpGbRs1eHVwIU0IIRRPIOQpZenxT64dfnLj3I15+/+a4FT65KPi1eVlE2cfDC8Z5F306mnAkfBb5y9NWdDBiEdImcHfxet8cWnltLn7QnLeXeKXHv/YP/7xNd+D3edsWDOhZYXEUtWHVmOK2MuXnsppwrcbMrKbkTphqeCe3/mXCkIZdBs30kXESCEAgAMQsAA0Rvnq/t1YBSECpx7drT/o+12ZFuP369eHr2ZadBw9bljPFjaGiiyqcfHVfgYd+vZyisv3GPJp725tXCyNBMrchHv//PHDr2djnx/7dccXH3/fSkCIsPuS8/5LiOLZ9mGevz2iG3itvbS4Q/XtAp1++afJP51PVFAGjv0nTBrm0dLGhJ+b9Cz0wa17ip4fl5zJ4tv17tfujFnTwYP79+jQwq6+mFeYHn55+9LFf9/LuLNhjd+nW7zqv00h8sids+YcDJcRoZXH9B9mDe3iaC7IexV+59S2PzZtWRIilBNSvosp9+7qSbP2hhdQxm5Dp38zonerJqaCvFfht09vX7fjWoL/b5O/Nz220cuq7Gdb1YdWU3RO8P0IBSH8hp27OqnVIaaICrqfriSU3kce3czQewWgOxCwADRGERcTpyCEkjg4qRhZrg5adm3fEWmrKTt3zG5nXP7b2bD3ilO9S/3Nl1q7j/llUXjQpCPJ8QH/xShaqbhzk3oKH2z79USigui5TNi+7/t2b3tqrG2d2/bwKvNOvr337tPepSaIzJz7z/391YO+K+/lBN24L/PqKymuStaVLX89yKUpcbtvt2+Y6Fjcl2Ns1fKTqetdjScOWvpfQflSKKL3rdwTUUAEDqM37vmxw5tSGDq4D57dtp3tjKELLqZe+WPt5V6/9ynz2VT5oVWFLsx8ERcrqBCFeZIG1vXFFCGEKF88TyiiCeE3cbRTr3UtjHuWoCSE19DJ0QT5CkCHIGABaAydnZlNE8IzNjOpkHQKz33TZsa/ZTOFXr/1d3089ctMo0Qtpqz8Rv2gIG75kbPgSLI8+WWyknxowCq863s6TkF45gNmfd1OrfNgZfEatWxpwbsXn//q1WslkfAIIUR2+9y1dCXh1R8weYRj2TNlfOsh4/ptuHk0peydPhVPT50MKaQpgx6Tp7mXKwXfavDs0Xuurg1JvXDk0oLen5ftn3rfD+3tCiN2TPhkR8XppbYLnZ2dQwiheMYm6n0udG5mloImhDIxqzBeS5m0f5zH0ltFpafxGozY5f9TJ/bu1wEADMEVvwCaVDwEiK44tkhNlKjdUC+H9/ihROlLxBQhdEFB4QevVPH8waN0JaEkHTw+aOQYIZREIiaE0IUlpVA8CwnLoQklad/dXVLh/eI2HVuJyuUPZerDB88VhAhbde+iYiw5v2n37k34hC54GPi4qOxL7/2hfQC1s1vJVvjwnQAAuAg9WAAaQxkYGFBEpszKyKrwFBZhp7mHj3sXT6bTz/00ZVuwXMUiePWbOVY6ckcWf/PksTNXA4Mjnr9IzcgrUChKvsRrdDJK+SrhlZIQnmWTxtXfH0uRHnLhuO/5G/dDY+KT0rPzi5TKklKUan8UKa9SlITwGqlepriRZT0eSSw9iX6V+EpJCM/EtrHKc2t8G7vGAhJVkJuYkK4kFqV+TFb5oVVB0PzbM8emVnkfLEpqICWE0MrMjGyaqHHLC0pqIOVRhNCZrzPLJyxevf4/HW35Zvi+MvbId98deo4UBqAtELAANIbXqLElj6TIc2OiEhUeZZ9/QhnbuLWwKf6/MilYWtlXtb5YX+VLsvCDc6euuBBfQFN8Awt7xzbNzQxEAooi8pf3/YNTKn2snjro/Px8mhCeWKriNgulKVOu/z7t252PMhWE0jOxdXRzr28sEfEpQmdG/HfnWV7p9xYUFBJCKImBymVSFddFFxQUEEIosVis+sPRl4h5FCF0vkxWLpZU9qHVHM/SxpJPRSoUsdHPFcRcjQZWZNW4IY/EKpOiY7Lp1mW74gRmdm5mb/6vEPrrq5gdALgKAQtAY/jWLVvW5z96qYi4eSdtIpMPUs6/u37GsgvxCr5ln+9X/zSyXf2SQU105vHJnYOv1ihgEZFIRIiMzs+rMO68NOXLf3749u+HmcSw5dhffpv1ib1BSS+S/OGq/l/99bzMMvVEhMjognyVy6TlReU78CixRJ8QQuflls9Pb2aR5eQpim+eWkkCYwFl5OJmy7sWqXgVGBijaKfGIDeBY6vmUio2q/BhQFDu558Y1EIhAaA2YAwWgOYIW3p0N+cROj/wyD9RCuaWWxB4/ESsnOaZD1qyanypdEUIofNl+TU9zcRvYNGQR4jyZWxcYeXvUiae+ycgU0kJW0z9Y0G/UumKqOpV4ps3qMcjRPky/oWqU6GK9NTX5UIhz7KxtYAiyozYZ+mq8qIyNiZWQQhPYmVlWnsNHb/Zx12t+ITIw32PPchXZw5ph54dDSmizLx66MyLmgVfAOAQBCwADRJ3Gv6lk5CiC0O2/7QrvMr+oPdAZ794ma0kROD4UYvyPSKF4aE1jnJ8u1ZuRjxC59y5Fiir9F1vR2qZt2xV/iYUyqSn4enlApadm4uEInRO0M3giqlNEfHgcU65XEiZtOvgJKCI/JH/jbSKmVERee1anIJQeh+1a16bt+8UfjT0cxcRRRSxh37d8aTyj6cEZdp75KdWfELnBPy54kQigzkbADQJAQtAkwQu4xcMtxNSyuzA3ydO3xqYysT3KyU1MuBThCiSXyaVXV5BxL6tZ1Nr3E0i7vhp3wZ8okw59efW4LxK3kQZGhkQQpRZSa9yy+QfOu3apj0PisplImnHPl2NeETx4sTW4wllS02nX97l+7zCJ8O3HfRVFwOKlt3YtiGg3AhxRaLvun0RcsIz7enV27xW7y/Fdxz13ReNBRQtC/aZNntXcGa1H7ek4/TvPS34lDLl4uJxcw48qX4OAOA+jMEC0CjKsNPcP3+IG//ztZRX11aP7vNPl4GD+nRq6WjTwFgiJEW5mckJUWFB/0a/13euXiv3Vvrnb8tiDiz7w23F1F6OxvzC9Jig83v/XH84QlLfIC85t2allnSZOrvHxQWX0x5vnjAyacqUz7u7WRvx8l+/iHkSePWKrPfaOd31+Hbu7Rrww1/mXV23aK/lgi/aNBLTuS9Crh/funbb1XzzevyktDIfhEmfyeNc/f98knl9xYRZWfOmDXK3MxMUpETfu7B3nY9fjkTKyy5Xap7FkO9nnLz/651nh2aOzv969ti+bezMhPnJ4QEntqzZdjVdyTP9ePbsvuo8D1AtdEHa88gIRcWfpZS+uW1js7f9ZJRRl+/XzIqcsCYw8+XlX4b1PfHJkM96dXBr0tBQRBfmvH4VHx32MOhuvPN326a3Km6BefX7/bQ++uUkn7uZz/2WDg042HPQQI8OLRyszAz1hcrC3Iyk2Mgn//m/xCWEAFoEAQtA0/SdRm08bLH+x6W7biflPLtxaP2NQ5W9lVIvK/CsPv/2fycmbAzOfLDj6wE7+UIBkRcplDTPqKX3xt+b7Bz8w7UalplnOWTVpqRvvl5/K+XJsVVfH1tV6jW9vh2VhBCi12HS3L5X5v77Mv7f5cPP/SIU8pRFcgVNRFZ9f9o1Knra2B1lbrtARG5T/vwl/n/zfZ89O/f7lHO/l1Sab95pzrbBIZPn+5Uf1CRwHPvnhozps7beCzv+y6Tjv5R6iRI07D5n09phtkw8wbmYInL3lE93q3hB4Dr75PFppUa0S1pO2r7f/OfvVx4Py0wLOftXyNm/ys3Ct2pQ+kwoZdhm+o6D1qvmrzz8OD3j6cU9Ty/uUVkGHu72DqAlELAAOEBk03vuni4jbp/19bty82FIdEJaVl6BkhLqGxibmlvYNG3m2rxV207dOres/r5TxSStv9l7zOmvTXv8boXEpxdQ0voOrp0GjJsxsVdjQcgdG961VzUtMmXcZurfZ7v/e2D/yUu3g6NfZOTTIgNza6e23QeMdi8uJs/y0zX/WLTftP3Y1fvRr3IUAmMbl9Y9vpj69ZetTHPPOOlRieWWKbAZ+OtxZ4/d2w/+ezMkLjVHIWnQtFX3z72nj+xUP/pPax6JqlAMnlmn2Xv9PE7u2XvicmBobGoeJTFt2KR5p95eo0d+0sxIY4MgKInT578c7zX60j/Hz10PCo6IS8nMy1dQehLjepZ2bu06d/PwdOaXm8Pxs5+O9h534/SJf6/eDn4a8yI9W1ZIeCJ9A2OzBo0aN3V2bfmRe6euHVxxG3cAbUBFRkZqugwAAAAAOgWD3AEAAAAYhoAFAAAAwDAELAAAAACGIWABAAAAMAwBCwAAAIBhCFgAAAAADEPAAgAAAGAYAhYAAAAAwxCwAAAAABiGgAUAAADAMAQsAAAAAIYhYAEAAAAwDAELAAAAgGEIWAAAAAAMQ8ACAAAAYBgCFgAAAADDELAAAAAAGIaABQAAAMAwBCwAAAAAhiFgAQAAADAMAQsAAACAYQhYAAAAAAwTMLs4BwcHZhcIAAAAUPuioqJqMrvO9mBRFKXpIjAvNDRU00Vgnu5VSvdqRHS0Uv7+/pouAsN0cjOhUlpB92pUczobsAAAAAA0BQELAAAAgGEIWAAAAAAMQ8ACAAAAYBgCFgAAAADDELAAAAAAGIaABQAAAMAwBCwAAAAAhiFgAQAAADAMAQsAAACAYQhYAAAAAAxDwAIAAABgGAIWAAAAAMMQsAAAAAAYhoAFAAAAwDBuByw6/eaq/taGg/dlln9FmXJz45SeTvWlYiOrdiN97mbRmigfAAAAgAocDliysF2je0wONLQRVnyNzg65HmY182RUVvbzU8OSl09a91hR+yUEAAAAUIXDAUskbtBv7fk9XzZW0TlFGfeYv2HRYGdjvsCs9VBPp8SYOHntlxAAAABAFQ4HLH4Tz1G9LAWkmpN/dMa9oNjm7Vqo6OcCAAAA0ASBpgtQQ8qkM/OWhg3bvNW2YlQMDQ3VQInYFB0drekiME/3KqV7NSI6WqnY2FgdayV0cjOhUlpB92pECBGJRDWZXasDFp1+fdGQuSkzT27sZqjiZVdX11ovEutQKa2gezUiulip5ORk3auU7tWIoFJaQvdqFBUVVZPZtTdg0Vm3V3hNuv/l4X+8nWqUMQEAAACYxeExWCoo43znT1h+KY0muQ/WDB1zwWPbzon2ypycnJzcfFxFCAAAAByhZQErLeTqxYDILLrgwm9LLkXeWNq9kWEx8zG+BZouHQAAAAAhRAtOEeoNPfJ66Ns/BK0X3oknhBBidzBHeVBjhQIAAACognb1YAEAAABoAQQsAAAAAIYhYAEAAAAwDAELAAAAgGEIWAAAAAAMQ8ACAAAAYBgCFgAAAADDELAAAAAAGIaABQAAAMAwBCwAAAAAhiFgAQAAADAMAQsAAACAYQhYAAAAAAxDwAIAAABgGAIWAAAAAMMQsAAAAAAYhoAFAAAAwDAELAAAAACGIWABAAAAMEybAxadfnNVf2vDwfsyNV0SAAAAgFK0NmDJwnaN7jE50NBGqOmSAAAAAJSltQFLJG7Qb+35PV82pjVdEgAAAICytDZg8Zt4juplKSDIVwAAAMA1Ak0XgEX+/v6aLgLDYmNjk5OTNV0KhulepXSvRkRHK/Xw4UNNF4FhOrmZUCmtoHs1IoRYW1vXZHZdDlg9evTQdBEYFhoa6urqqulSMEz3KqV7NSI6Wimic62ETm4mVEor6F6NCCFRUVE1mV1rTxECAAAAcBUCFgAAAADDELAAAAAAGKblY7D0hh55PVTThQAAAAAoAz1YAAAAAAxDwAIAAABgGAIWAAAAAMMQsAAAAAAYhoAFAAAAwDAELAAAAACGIWABAAAAMAwBCwAAAIBhWn6jUQAA0EUU9e7/NK25cgB8KPRgAQAAADCsdnqw6KLcjPSsAoGBqamhHjIdVAE/WwGgdDtQ/CdaA9A6rKYdWdz1nYvGftK6sbHE0NzGrnEDY4lhI7cew+dtvRSTi6MFKijXqgIAAGgp1gKWInzXiA49Zp3OazNxzemQFFlhYX5hUf7riIubZnShLy/o7f751pAitlYOAAAAoEGsnSKkFQ2H7n8wpIVxqT4JnsjIqnn3z5t3/3z64qen/5OjEwsAAAB0EWsBi2/bubeecWVnfCgD50H92Fo1aCecHwQAAJ3B2inCwkvT7W3aDJr+6/7rMdlKttYCOg2RCwAAtBRrAUtv0LYHJ3/sJX64aexHlrYdh85ec/R2fB5OCgIAAIDuY+8qQkpi7f75zD8OBcS8Cj32XRfe7bVfNbds2m349z4nn6QjaAEAgNrQnw1apxZuSkVJbDoMnb36yNU7F9d/bhC0edbwpRfz2F8tAAAAgIawH7AKk4P9ti4c28vJ0tFrY0yzKX/deLr7S6k6c8pC/h7vbm1iYGLTceKusPyyLyqTLi8b0sqqnqlZQ+d+807FydkoOwAA1DJ0VoFuYC1g0Znh57YvHt/HpVHTTxaeSXcevy0wIS7w+PrvhnVuLFXn8FGE+XgvThp9PjHrxaUJaUvHrw1RlHq10H/Z/45YrbqX9DrlyWbXc5MW+uWyVRMAAACA98PeVYQ3Niz550WT4X8GxCc8OL1pwaju9kbvszJl/AW/hP4zvd2kPInTuFmDUo8dDyuVsOQZr/OsW7VuKCB884/a2NG5eejCAgAAAI5g7T5YegN97gwkhBCiyIoLDo19XaB4+ywpXn3Xrm4Nqklb8piIOFtnBxEhhBCho0uT59cjikhz/puXJX1nzlgzZth3orkdY7euk83ZPMiYpYoAAAAAvCe2H/acE7C458A18Q0drQzeZiOi1/OXS799Iq56RjovV6YvERefTKQkUrEiN7eAEP23r0tbjZjR+eCMxV/vyTD8bOvvbipGdYWGhjJUC66Ijo7WdBGYV3WltHEb1sHNpKViY2N1rJXQyc1EyJtK6dK20r0tpXs1IoSIRKKazM5ywCq8uXuXaMHd2O+d37eUlEQqzs+T0YRQhNB5eTK+VKpX8iqddmqa52rzTY9jekojD88Z7jlOeePQCMuyvWKurq4MVIFj6lqltLS6dW0zaank5GTdq5Tu1YgQQogr0drWoDK6t6V0r0ZRUVE1mZ3lqwgpqYGJla3VB2RAgaOLXVx4VCEhhJCiqLBYW2eHd2mwKOjUBeuxMz0a8ikD569WzXa7dCKggKlCAwAAANQIywFL2GHqLMGubzecuRUc9vStiMTs6m80yrMa4OV4wWdHaC4ti9izzlfsOdBFoIzznT9h+aU0mt+4qWX4uTORMkJIfswpv2AbJ3shu1UBAAAAUBPbY7AUspz0x3u/H3PGTPJuDFb/jY+3D5ZUMyfPbvKWlSFj+1vPe63n4PnjznlthUSeFnL1YoBtFt3b9ZvtS2K+Hui4XEYTcVPPhXvmtWG7KsAm3PkGAAB0CetjsLauTRnj/2pFR6P3/wIVOgzfHDB8c6kpgtYL78QX/9eglfdfN7yZKSUAAAAAk9geg8XjS5q1afEB6QoAAABAW7E9BqvT1JnU/kV7b4TFJ6W+lZZdyO5aAQAAADSJ7VOEV/5cfsLv1eHTf5aaqD9kf9LRYWo9jhAAAABA+7AWsOi8XJlYKum3OT53s8rXZbkyfakE5w6hShRF6OqvOQUAAOAW1k4RFv03r1vvGZsuRGQqy72izI6+vO3bvp1nX85na+UAAKCNcEEx6AzWerBEn6z+R776x0UeP4w2dG33kbNNAyNRUXZaYsSDwOC0Rn2mLDm64tNqnpYDAAAAoJVYHIOl18Tzh/2ec19H3bsV+CgiISUzn2/j3HHQ1N86t3eur1f9/AAAAADaifW7cwqM7Tt6OnT0JITQuS/CY4ssHJCuAAAAQKexfJsG5YvtQ7osvScnRPnqn7HNXbr37eDa87eHeGwgAAAA6DCWA5Y8OPCxbQtnASm89+dPdwf6RsQ+/Nn4779uFrG7WgAAAAANYvsUIY/Ho5U0nXZm/aEG0y73MOYpmtoqLqQqCMGzmeEtXDcEAAA6huWAJWz/abdpsz0HmETHDNiz2Y5HlAlPwkTWI/nVzwoAAACgpVgOWJTpp5sum/oFpDb2GOBuSAhRKppP2vRpe3RfAQDA+8Bth0G7sH4VIRHbuDlL9x/7fdbOQrGFS1ev4V90N2N55BcAAACAJrEddZSJR8e59/rxXCK/XkMzKuHfRX3ajzwYV/7m7gAAAAA6hOUeLPmDTT+HfnU2aHnbN3dtXx68vMfwDYFDf+uIs4QAAACgo1juwVK8TMxwbuv27pk4+s7t3LLjExXsrhYAAABAg1gOWEK3NvZ3DhyOfvtYZ1nUod3Xbdu2QPcVAAAA6C6WTxHy7CaunXXls9bWyx2dGunLXjyNJt1/OT6tGW7TAAAAALqL9asIJa2mnwj/MuxOUFhSvn5DF/cOLuYittcJAAAAoEm1csMEUX2Xbp5eQ708u71XupKF/D3e3drEwMSm48RdYfnlX6azg3fP6OPayNTE1OLz3cm4PQoAAABwBDs9WMr4gKPXnxVVknn4jbt98bFtdWtWhPl4L04afT5xul3CXyP7jl/bPmCB27tTi8r4veO+2NZ01fGnnzob85RKgqetAAAAAEewE7AUCTePHbomowlF8YsSbl19ZtCqrYuFVJkRff9uerPRq1oN/bi6RSjjL/gl9P/B203KI07jZg367dvjYd+7NX+bsOQPtqxOGHPg8GfOAkII4eHWpQAAWq7cY0lpGg8qBS3GTsASdpp79PRcQgiddHjU0MZnYv7sY0YRQgidfXPBZ38KzKtfrTwmIs7W2aH4jKLQ0aXJ8+sRReRtwFIm3AiQOfU9PryD190kXpMBP25aPcpFn5W6AAAAALwnlge5F907f7PJ4L/N3v4IoQzb9WgauO9O4YjP9Kqek87LlelLxMUzUvYqD6wAACAASURBVBKpWJGbW0DImxCleJmQmHD9Xr0T58NaCZ6s9er3P5/2N+Y6lb04MTQ0lOHqaFp0dLSmi8C8aiuldZuxbm4mbRQbG6tjrYSObaa3Gye6whStp2NbiuhijQghIlGNLspj+zYNVjYmNw8dje47yl6fEEKKEs8evaFvNbH62zRQEqk4P09GE0IRQuflyfhSaalMplDQjb/8zvsjEx4hLSeO7bD8SFDOXCfjMotwdXVltjZcoJOVIqSqSmljjXVyM+lepZKTk3WvUrpUo1JVca0wRevp0pYqpns1ioqKqsnsLAcsQctv1oz47KsWVkucna2khckRYalNpuw75V79agWOLnZxwVGFxF6fkKKosFhbZ4d3c/Ftmlhn3UsqIERICF1UWMgTiXBvLQAAAOAGtgeHU/U8ll9/HnVlx/I538xavOnfsNjbf/RrqMawRZ7VAC/HCz47QnNpWcSedb5iz4EuAmWc7/wJyy+l0Tybz0Z+dOXXX/yT5UVJ19duf+D+SScJy1UBAAAAUA/rNxolRJkRHXTD/1pYUqHY4pWifhOrFmbqxDqe3eQtK0PG9ree91rPwfPHnfPaCok8LeTqxQDbLLp3PdsJf/0VN2lac9NYeYOOEzb9Pd4GFxICAAAAN7AdsJSJR8f1+Pq+06D+bazMZAn/Luqz5vDaq/uHN1YjDgkdhm8OGL651BRB64V34t/8n2/Zb/mZfsvZKDQAAABATbAcsOQPNv0c+tXZoOVtxcUTlgcv7zF8Q+DQ3zriec8AAACgo1g+r6Z4mZjh3NZNXDJB37mdW3Z8ooLd1YIWcXMr8yeNZx4BAID2YzlgCd3a2N85cDj67YMEZVGHdl+3bdsC3VcAAACgu9i+D5bdxLWzrnzW2nq5o1MjfdmLp9Gk+y/HpzXDLRUAAABAd7F+FaGk1fQT4V+G3QkKS8rXb+ji3sHFvEZ3RgUAAADgOrYflXPrt7HnWm9a2qebpwu7awIAAADgCrZvHkUn3b94P1nJ8loAAAAAOITtQe6d5m/w+G/u/AO3o16mpL6Rll3I7loBAAAANInlU4SF55d4b7ryIuec39p3V9/rD9mfdHSYlN01AwAAAGgKywFL1HdDdPomXulnDxbl5Sj1ka4AAABAd7F8irDgxJiP5gQUlZ5y6Zv2X1/AOUKoXLl7jVJqPBscAACAU1jswSpMe/4sMTGr4HVs+NN6b9ajyHx0+m4O+YK9tQIAAABoGnsBi858sH/x4m1XnqXf7nex+NZXFMUTmjj0W7W1J26FBQAAALqLvYBF1e/942GPz7d8e67j6lkfsX5DUwAAAACuYHkMFt9xkHePBvJ3E+j0p7eeJMkrnwMAAOqgcqMt8dx30HYsB6yioHVfTt4VoyiZQMuuLv7s5/+KqpgHAAAAQLuxHLCUqUmvLW1t3j3bmWdu2TAnOVVRxTwAAAAA2o3tO7m7tnG6e2B3aN6bv/OjD+0PsGnhImR3tQAAAAAaxPLgc17TiWu/u/RZB+s1ji7WkoJX4U+zW8w/9rUrv/pZAQAAALQU2w97JtLWM09HRF3f9fOcb2Yv2XIxPPrywi4m6t05Uhby93h3axMDE5uOE3eF5at8D51+1ttO7P7rU5x0BAAAAK5gPWARQohefXu3Fq0+6uzh8ZGVRN3bcivCfLwXJ40+n5j14tKEtKXj14ZUzFD06/M/Lg40aFQrtQAAAABQD+vRpDDy0PSuNvUaNXVuP+9qIZE/WNlv3IGk6q+/VcZf8EvoP9PbTcqTOI2bNSj12PGwcgmLzri48MfoEfP6G+BZKgAAAMAhLAcsReSGiYtefnXiedqZCfUpQojAqZnp1Yt3q38WoTwmIs7W2aH4lu9CR5cmz0Mjytzcgc68suiHyDE+U+0JTg9qLdz5BgCqgCeTgvZieZC7/OmjuC4TvNs3oC68mcITChX5BdV/j9J5uTJ9ibj4aKIkUrEiN7eAEP23L2f5L5n/dNTeNU6Ce5UtIjQ0tKbl55jo6GhNF4EN7ypV2RbTri2pk5tJJysVGxurY62ELm2mUlsmupLpWkyXtlQx3asRIUQkqtFz/VgOWALnljY39x2O6jWs+O/CZ4f3/OfQdUn1ZaYkUnF+nowmhCKEzsuT8aVSvZJXs68vnR8ycvfvzkJS+T1LXV1da1wBztHJShHyplKVVU7rKq2Tm0n3KpWcnKx7ldKZGpWth2sl07WYzmypErpXo6ioqJrMznLA4jtO9Zl1a2hbq0Wm/GTZ1TZ2qTL35b6T7Ks/MylwdLGLC44qJPb6hBRFhcXaOjuUFLbgyvYdjwL1etj8SggpyknL5nWzC17/cP8IM/QfAwAAgMax/hBmSatpx8JGRN0NDH2Rw6vn5N7RrYFe9XMRwrMa4OX4h8+O0K7T7BL3rPMVe/q6CJRxvj8sfdL794X9NkbG/qGkCSFEfn95r8UmO05919YU6QoAAAC4gKWAVZidll1QanSiiUObzg6EEEKyU1Nz9IzqGVZ7kpBnN3nLypCx/a3nvdZz8Pxx57y2QiJPC7l6McA2i+5t16ChcfH7isykAqGheUNTMfIVAAAAcAI7Aavg7FT7Lw7lVDKUXX/I/qSjw6TVLkXoMHxzwPDNpaYIWi+8E1/+XR1/C7n1wSUFAAAAYBw7AUvvs30ZRftYWTQAAAAA17F2H6yC0xNshx3KIoQQUhTwy+c/XS1+1k2B7xirEcfyqpoVAAAAQKuxd6NReX5uvrz4JKEy+cm14KQ3twNV5OcVyHE/SQAAANBdeIofAAAAAMPYvE2DMi3sP39/KSFFT5LlKaE3/P31CSkKSVGyuE4AANA6eGoW6B7WAhZlaGmX9s+cKf8U/2lBjsyacqT4/036GKLjDAAAAHQXawFL1PuPe2F/sLV0AAAAAO5CVxIAAAAAwxCwAAAAABiGgAUAAADAMAQsAAAAAIaxeZuGYvLUxxfP3YxOy5e/vfBW4OA5eWAzIetrBgAAANAIlgMW/dpvqvvoa3b9PnY0KlmVUNwV9zgB3PkGAAB0F8sBq+iO7/lmv975d1Ijqvo3AwAAAOgElsdgUYbGJkZGUqQrAAAAqENY7sESdpg6Wzhj7rYGM/q5WUj4xRMpPaN6hiJ2VwwAAACgMSwHrMJLqxefuPzq8MUdpSbqD9mfdHSYlN01AwAAAGgKywFL1G9zfO5mdtcBAAAAwC3s36aBKF8/Ob3/2LWwpEKxhUtXr+GDWpjh7ltQNZouc40hReEaQwAA0CZsRx1l4tFx7r1+PJfIr9fQjEr4d1Gf9iMPxinVmlcW8vd4d2sTAxObjhN3heWXXW7KzY1TejrVl4qNrNqN9Lmbha9fAACthDu2gE5iOWDJH2z6OfSrs0Fntv++bOmy37efCbow7tnPGwKLqp9VEebjvThp9PnErBeXJqQtHb82RPHuRTo75HqY1cyTUVnZz08NS14+ad1jReWLAtANFPXmq6j4PxQuzwWAUg0C2gROYTlgKV4mZji3dROXTNB3bueWHZ9YfRpSxl/wS+g/09tNypM4jZs1KPXY8bB3c1HGPeZvWDTY2ZgvMGs91NMpMSZOzkoFALiipOksd/IUAOoyNAKcxXLAErq1sb9z4HD02/N7sqhDu6/btm1R/XNy5DERcbbODsV3cxA6ujR5Hhqhst+LzrgXFNu8nRqLBNBOVf8wxS9XgDqldH9VxQMfrQF3sDzInWc3ce2sK5+1tl7u6NRIX/biaTTp/svxac341c5J5+XK9CXi4v2EkkjFitzcAkL0y71NmXRm3tKwYZu32laMiqGhoUzUgUOio6M1XQQ2vKlU1ZtLizYms5vJzU3dd1IUCQlhcM1l6OS+Fxsbq2OthG5spgrbJLrKV7XSB28pNRsEVlsDlXRj3ytHJKrRLTtZv4pQ0mr6ifAvw+4EhSXl6zd0ce/gYq5WgSmJVJyfJ6MJoQih8/JkfKlUr9x76PTri4bMTZl5cmM3QxWLcHV1rXn5uUYnK0WIKyGk6pppV72Z2kzv+0uU1U9J9/a95ORk3auUDtRIVQ3eTXJz05FR8O+7pd63Naj9D0oH9r1yoqKiajI7SwGLznn1oqielamwMDstu4Cm6ru413chhBCSlZqq1p3cBY4udnHBUYXEXp+QoqiwWFtnhzKFpbNur/CadP/Lw/94O+G28KCDPqCfv3gW3fj6ASgWEvIe/bi6pybn+3CDG81iZwxW0X8LO7mNP5RGF5ydam9Rnu0E39zqC2Y1wMvxgs+O0FxaFrFnna/Yc6CLQBnnO3/C8ktpNMl9sGbomAse23ZOtFfm5OTk5ObjKkLQGRhFAQAEA9i1HDs9WMJuayKSlUIRRT7bl1G074OWwbObvGVlyNj+1vNe6zl4/rhzXlshkaeFXL0YYJtFd7v+25JLkbkXuzdaWvxu/S+OZhwZWv4cInAX7nzDHvxsBagjio905DBuYmsMFk8oKu4co5U0xSve+HTui/DYIotmtibqrVXoMHxzwPDSD9oRtF54J54QQojdwRzlQUZLDMABaCgBgFT3M6ncS+UefaH+coBVLN+mQfli+5AuS+/JCVG++mdsc5fufTu49vztYQG7awXQSlWkK5qu6t97LQoAuKz0/YRVUnnIV9EagKawfSf34MDHti2cBaTw3p8/3R3oGxH78Gfjv/+6qcad3AGAELUaTTSsAHWEOq1BOfi5pSls36aBx+PRSppOO7P+UINpl3sY8xRNbRUXUhWE4MagAG+9109V9ZeJ1AVQB1VxxhBqE8sBS9j+027TZnsOMImOGbBnsx2PKBOehImsR1Z/o1GAukJlU4hsBFAHVT1OoCaLRZNS+1gOWJTpp5sum/oFpDb2GOBuSAhRKppP2vRpe3RfARBCGO29x89WAK3G6vGLjFX7WL+TOxFKjaXKkMAjm26+3biCnJjOts2QsaDOY/zMYLmMhSYVQFtUna7e90BW+XMLDUItYzlg0a/9prqPvmbX72NHo5JVCcVdsY2hzmNj3JXKtaBJBS7DLfFIbbUGUMtYDlhFd3zPN/v1zr+TGuHUBcAbaEwBoBh7pwUxZkDjWL5NA2VobGJkJMVGBniD7XSFlAagLZg9LajOEhC5ahPbVxF2mDpbOGPutgYz+rlZSN5cO6jWw54BdIoG2zWcJQTgoNrpyUY/lgaxHLAKL61efOLyq8MXd5SaqD9kf9LRYVJ21wzAHdU2cGhSAeoUNzfV0/FbSJewHLBE/TbH526u/n1Qt9Spr3+2zwKoWQY03AAapE6jh9ZAx7A8BusNpSwtPjrqZQ42Kqiik0d78QPFNJWudPIjBdA66rQDxWrzmK1TP3E1iPWAVRh5aHpXm3qNmjq3n3e1kMgfrOw37kASWn+o85CBAHSb+jmG1dYATY2msBywFJEbJi56+dWJ52lnJtSnCCECp2amVy/eLWR3taADyjUK2vKTi6KIm1s1w1fxbGYAnactTRawh+WAJX/6KK7LBO/2DfTe7ms8oVCRX4BvF9BFXDsRUBqae4DaoeY5wWK183MLv+g0guWAJXBuaXNz3+Eo2ZutW/js8J7/HDq0wk0aQFeUjLGo+imttd9rhSYV1KT+OCE2Vl2a1u20pQ//9/0YNduTjV9ctYDlqwj5jlN9Zt0a2tZqkSk/WXa1jV2qzH257yT72hlbD8C0D2iVuPOdgauHoKJyD68sgV2lWjXJKCEhzJVDPbh7S+1jLWDJn+xfHuSyYHybVtOOhY2IuhsY+iKHV8/JvaNbAz221gnArOL2qOSbRuvSFZpUqFoVu0e5nR9IjXt9Sn+YoaE1LAsD8IuLbax1JSki/TaeCC0ghBAiMHHo+MkgL6+B3RlMV7KQv8e7W5sYmNh0nLgrLJ+pxdZFtXx2oNy6av+XXLXKdfUX/0fr0pVKyFtQQp2d4QPOfOkqfALwvrT1XJ0izMd7cdLo84lZLy5NSFs6fm2IQtNF0iIqRwygGS2m8hN4r48lJIRD1wlypBigcSW/Ez74SNdgE1H71xRXbBs/TMn4Sy4ciVwoQ53CZsAqvDS7ZRMVnKaczqvhopXxF/wS+s/0dpPyJE7jZg1KPXY8DAlLPdW2FHUzZjH15cH9JqwOblz44F7YKpamw2oSrUrfigWtQR3H5iB3Yftvdv/R36DCdJ6pvX4NFy2PiYizdXYovhhR6OjS5Pn1iCLSnF/Dxeq49zqW6s5wV50PVRiJVTcVj7BhadMzMkKLC5cQMvv5lKQrzkJrUJvYDFiUsV3rdu2M2Vg0nZcr05eIi/cTSiIVK3JzCwgpm9uWLl3Kxro1KCUlpX79+u87108/1XS9FEWWLKnpQiqzcaO6lWJwe9b8MyHk3WdSrmAftplq0wd8ktyv1Ad4/vy5v7+/pkvBpJLNVLyHq/9VqvIAr/Ywea+WofTSVM5V2W6pct/jYOu+ZMl7lIo7BxRTzTt3asSgUaNG1WR2KjIykqmiEEIcHBze/K/w/MwOx3pc3z7EkMHFlyi8Mt1pSdNL1+bY8wihX2zp0+LatMSDXqUCFkVRNJd/R3yQ0NBQV1fXat/G0g8UZn+tliyzikqx9AOXwUuBVFJzM9WmilV+3w+Tg5WqOX9//x49emi6FIR8UIdQySxlN24oIe+9mapdb7WHDCP9IpUVo3jfY7w10GzXtWYPqJo3CBXpZBMRFRVVk9lZ68ES9V3/oC9bCycCRxe7uOCoQmKvT0hRVFisrbMDy7f00gofNlxAzdnf96QhRzqidf4M4IfBFdocUdltqMjbHU/9o/LDMLIbcORgr0JJCWueBXHggJq09CpCntUAL8cLPjtCc2lZxJ51vmLPgS66G7DUv5pafSoHYKo/KrPq2+dwZJg8R4rBBTr/laCpbV3uXh4q36Dywj11DhNWK/Veo7C1/VkuVaTYuknnGwSO0NKARXh2k7estDnQ39qw4ccbRHN3zmsr1HSRaqJ0a1uuRa54+U/FGyvUsOOq4qvqtLwVy6ntgab0BdWcuriaJVq9sUqrNuWwut4qjtyK5dHgYVKyJ3/YXs3q4cDNo6wuNALAKu3t9hE6DN8cMHyzpovxIadaSg+eUP8kHVM/wtQvrTpnKGqi1n6zarAY3KFya+reiUKWrn7V0jBarpHRsW2tJnUGkFVL9z66cqdKGbksFMrR3oCleeV+N1exa6o8/V+xa4pVH3zkaN1lvWqWFk1JMY5nrGpH41b9m6Tc3ltZTSsZMK59O38J9kJVTZ4cVbKEWvhU0Q7UZRzJi3UxYFV2OVtNZielvqjKbVpNnf4v3YrVcD9jo0FkfNdHe/rBajljVdH2qTncUP0dsmKPnfpvVrM8taOkL6rqvBgaSmrtQi6VfaLqD+piqnVSiZFeqzpIK35uVd10lOvFqMkVsjX/KHQ8YJVrkqpol6s42ktvVPUbaM02zRq/353KboaSzx/pSlM02yXD1AHCndzDBpUdaYQDB7VKNekaZwmrX5m6RGVrwJGMVfGbQuVQy4rfy9X+plK5TJbocsCqYnh4tXMVq3hGj8vYiy9E7S/mylatwVEgrH4sOoOpVrXaHyo6r9rmu/S4qMo+LuyrHwzp6r2wkbFUfoeqf2b/vd72Aa1KbTZEuhywao4LXwnvNdKc1RaksrEXXG62uPmjn5tqeMpG5fB5LhxBLKmsn6nqKeWmY8+sNfioK1NZxiIf9KFV1oGk8w2CStp6mwbdoLJFplXdI6D4/yEh5V+q+M7aKbZG1vu+uFw2DVJzUAJV9oYCbm7vpqj8V9lydBKCO0eU2/1Ung/ieDPFBVVc/EGpugtJZd53jKPOQw+WBpTem2sy2BOtRhXw4VSh2gvBuDOakCnV/noud2pP/cHawAUqNxm2jvqqPkDUGdjk5sZ8qbRdXQ9YH9ZpqfJanirONFd9nKMVqKGqhzGCtqjsbLg6o+gqO4pLD3hSOTpK5TKx/2iF97pEFKpVk1N4uvfhM9II1LmApfJXTrU/bSvGKXVGYFQ2EWoI345Mqf1RESrXWG2fbrXbtIqe4Cp2En//assLUIdwcJhUtb+7qpixYpugzlU4DH6D1JWA9QF9SKV/NOOLXCPKHUIVh0ly5IpirVbt6UIGV6HmSx+2TbEnAGiRKjopKjbslTUU7/tj+33bohrS5YBVw88L7TUHVXa1C9QcSz9eMTIGQIuw+otLndhUxfSavFMjcBUhALxRxSVX5a5grXgpa+nZteIiU9Bt2PdqiKnjty63BghYoFPq4DHMBvVzkvrDpAAYhK7r2lH68Ff5C6rkDRXvIgQIWKA7cFQDADCu2sykciQAkhYCFgAA6JQ6/r0OHIGABQAAXKczA5+h7kDAAgAAAGAYAhZoKzWv+AUAnVfuglYALkDAAi2GS9gAoBgaAeAaLgcsWcjf492tTQxMbDpO3BWWX+Y1ZcrNjVN6OtWXio2s2o30uZuFY6uOwm9WAADgIO4GLEWYj/fipNHnE7NeXJqQtnT82hDFuxfp7JDrYVYzT0ZlZT8/NSx5+aR1jxWVLwoAAACgNnE2YCnjL/gl9J/p7SblSZzGzRqUeux42LsMRRn3mL9h0WBnY77ArPVQT6fEmDi5BgsLAAAagj5s4CbOBix5TEScrbODiBBCiNDRpcnz0IgiVW+kM+4FxTZv10JYq8UDAAAAqBRnH/ZM5+XK9CXi4schUBKpWJGbW0CIfrm3KZPOzFsaNmzzVtuKUTE0NLQWClqboqOjNV0E5n1wpTi7ebGZtEVsbKyOtRI6uZmqrZQ2bkPd21K6VyNCiEgkqsnsnApY8uCf2rVd+khO9HpviZwvFefnyWhCKELovDwZXyrVK/d+Ov36oiFzU2ae3NjNUMXiXF1da6PUtQuVKjUX4wVhDDaTVkhOTta9SulejUh1ldLSGuveltK9GkVFRdVkdk6dIhS0XPKwiKZpOv/iZKtmLnZx4VGFhBBCiqLCYm2dHcqkQTrr9gqvSfe/PHzA26lGGRO0EUZdAAAAl3EqYJXGsxrg5XjBZ0doLi2L2LPOV+w50EWgjPOdP2H5pTSa5D5YM3TMBY9tOyfaK3NycnJy83EVIQAAAHAEZwMW4dlN3rLS5kB/a8OGH28Qzd05r62QKNNCrl4MiMyiCy78tuRS5I2l3RsZFjMf41ug6RIDAAAAEEI4NgarHKHD8M0BwzeXmiJovfBOPCGEELuDOcqDmikWAAAAQNW424MFAAAAoKUQsAAAQAvg0hbQLghYwGloUgGgCmgigLMQsAAAAAAYhoAFAAAAwDAELAAAAACGIWABAAAAMAwBC7QPhrUCAEFTANyGgAUAANqhdKJCugKO4/Kd3AEIIYSmCUVpuhAAwA3IVaAt0IMFAAAAwDAELNACJb9ZaRq/XwEAQAvgFCFoB+QqAADQIujBAgAAAGAYAhYAAAAAwxCwAAAAABiGgAUAAADAMAQsAAAAAIYhYAEAAAAwDAELAAAAgGFcDliykL/Hu1ubGJjYdJy4Kyxf5Xvo9LPedmL3X58qarlwAAAAAJXhbsBShPl4L04afT4x68WlCWlLx68NqZih6Nfnf1wcaNCIu7UAAACAOoiz0UQZf8Evof9MbzcpT+I0btag1GPHw8olLDrj4sIfo0fM62+ARwEDAAAAh3A2YMljIuJsnR1EhBBChI4uTZ6HRhSVfgOdeWXRD5FjfKbaE5weBAAAAC7h7LMI6bxcmb5EXNw3RUmkYkVubgEh+m9fzvJfMv/pqL1rnAT3KltEaGhobZS0FkVHR2u6CMzTvUrpXo2IjlYqNjZWx1oJndxMqJRW0L0aEUJEIlFNZudUwJIH/9Su7dJHcqLXe0vkfKk4P09GE0IRQuflyfhSqV7JO7OvL50fMnL3785CUlTp4lxdXWuj1LULldIKulcjoouVSk5O1r1K6V6NCCqlJXSvRlFRUTWZnVMBS9ByycOiJcX/V8ZvsIsLjiok9vqEFEWFxdo6O5QUtuDK9h2PAvV62PxKCCnKScvmdbMLXv9w/wgzjMYCAAAAjePsGCye1QAvxws+O0JzaVnEnnW+Ys+BLgJlnO/8CcsvpYn6bYyMDQ9++PDhw4d3945t2nKG7+2NQ0yRrgAAAIALONWDVQbPbvKWlSFj+1vPe63n4PnjznlthUSeFnL1YoBtFt3brkFD4+L3FZlJBUJD84amYuQrAAAA4ATuBixChA7DNwcM31xqiqD1wjvx5d/V8beQW7VZLAAAAICqcfYUIQAAAIC24nIPVk1RFE4aAgAAwIeIjIysyew6G7BomtZ0EQAAAEBb1fA2DThFCAAAAMAwBCwAAAAAhiFgAQAAADAMAQsAAACAYQhYHFMUf3HVmM52ZlKJiV23KXvC8gkhhNCZt9d80bKhkYFZU49vfWPlhBBCZCF/j3e3NjEwsek4cdebN3IanX7W207s/utTBSGEyJ//M7O7namBUaNWw9YHZRVfk6ByIkfJEy+uGObepJ6xSb1WC24VEUIInXRpcX8nc0PD+s4DfrqcTBNSybbjpqLnvt/1dbaoZ2pm2WrIz1eLy69yN9OCfS8/6siUj8xcFgS9/cRVbgjtOrLkL84v6Nqg4f/OFRb/rUy5uXFKT6f6UrGRVbuRPneLDxitOrLonOBtXzkadV0Toyz3St7tBS0l9t8GVHpkqZ7IBRX2PUKUabd8JnRzqG9ibGrt7VdAiLbve0SZdHnZkFZW9UzNGjr3m3cqTk6Ilu17tQABi1uUafevJbRedjU+O+Ppzi73v/1mZ7ySkIJbP4/fKJp/Oznr2dFP7n8zbVe8kijCfLwXJ40+n5j14tKEtKXj14YoNF34qtGvz/+4ONCgUfEup3yxZ8Y3dz0OxmSm3Fks3TRmaUB+JRM5Ku/W4sEzH3287lZiZkbagxUdhISQzDPz/nfC8c8n6a9DN7mc+t93J1/TKrcdN9EZvvOmBXTYHZby+tWdRca7Jv16s0j1bsb5fY9OvrK4/8D1r60a8EumqdwQLmFrcwAAIABJREFUWnRk0ZlBa716/RBT36qkTnR2yPUwq5kno7Kyn58alrx80rrHCq06suRxJ2b0HHaMNDap8EUkC/xlznnK5k1dVR1ZqidqnKp9j8hD1w0d62e/5NLz9MzXcVv76xFt3/dIof+y/x2xWnUv6XXKk82u5yYt9MvVqn2vdiBgcQvPYvDPPrN7N5HyRBZdP+9lER+TqCDyJ37nBcNmf2mnzzNu+/U33e4d9nuliL/gl9B/preblCdxGjdrUOqx42GcOBYrQWdcXPhj9Ih5/Q2Kb06WdfXMHfdpMzuY8vUaf/btaOmJw3eKVE/kJDrV948jzj9vm9a5kT4hhMfjEUIK7py+0mTCt30shIL6HnMmNbtw+EqOqm3Hha8BVfIzMij7Nm6mPCKyatvKsiA3j1aq2s1UTtR04cvSN3CbftTvxw7SkikqN4Q2HVmUnqTJVzvPr/7EvOT2fpRxj/kbFg12NuYLzFoP9XRKjImTa9WRxdc37rTozD+TXcrfLkh299dZVzzmD7Mo/oJSdWSpnsgBFfc9IruyfrPenL8W9G4i5b1tLbR83yPyjNd51q1aNxQQvvlHbezo3Dzt2vdqBwIWZylf3ruX0bJdMwEpiolMsHNxKG6EJI7OVjGhkfkxEXG2zg4iQgghQkeXJs9DI7i729KZVxb9EDnGZ6o9KW4v5HGRz+s7ORpShBDCt3e2zwx/mlakaiI300jR/WuBtlYJC/u0tLdt2vbzFVdTaKJMjYqR2ztZ8gghhDJ3aiaJDIvLV7HtOHqWkGro9e0XoQuGLTl8dt/33gcaLJrdXSRXtZupnKjJkldAGbkPG9rCgJTaeVQdRHKtOrL03YaM6GhGqb7BH51xLyi2ebsWQq06sqgGHiM/tdcj5YqSf++3WRd7rZ/fWqSgCSGqj6wiVRM5kEZU7Hvy0Gu3Te1zfAa1dWxi18Kz+HSatu97kr4zZ+T8Mey73X5Hl49dJ5szf5CxVu17tQMBi6Pkz/bMWiObsWiIGUXLcvNosVhc/AIllujLcvOUebkyfcmbB1xTEqlYkZtboMHyVoXO8l8y/+moP6c5Cd4eWHTp4hO+RCLKy81VqprIyUORzk5MTL3rH++5Mygq6r9lDfaPmeeXTefl5r0rPiWW6stycvJUbDtOVokQQtXrPNHbOXTr/KkzduZ5/K+fvajsdnq7m6mcqMmCq0H1QaTtR9ZbyqQz85aGDVs61pan5UcWIaTgwR+zz3us+6H92/ISVUdWrlLVRG7WSfEyIT7EP+yjNdcjou9tbu0/+et9L7V/35O2GjGjc/LexV9PW/289fjBblJtb9XZgIDFRYoXp74estpo5cHvWogIofSlEp5MJit+jZbl5UsMpDyJVJyfJ3sz2DMvT8aXSvU0WOQqZF9fOj9kpM90Z+G7aVTp4hNFXl5h+Tq9ncjNxx0pFApRt2k/9LfRo4SWfScOMQ0MeKqQSCXvil+8nQzEKrYdN6tElHE7R3odcz/8NPpZzMWxcbP7zLyQSVTtZpT27HslVB9EWn5kFaPTry8aMjdl5qEV3Qy1/8gqeLR61tmP1y5wF7+bRqk4sqQ8VRO5WSeiUFAtx837spmU4pt19h7e7N5/j+Ravu/Raaemea4293kcE/Pszg+8VZ7jDrygtXzfYwECFucok8/PGbQgY86JrZ9bFw8pFDk6N37+NPrNVSaRTxObONnrObrYxYVHFV/RURQVFmvr7MDN5x4VXNm+41HgLz1sLCwsbAZsirj3Sze7EUeMnOxfR0Rm04QQoogJjzFydDQT2jpXnMjJQ5EysbU1SnmZVDxenS4sKBSKRLz6To6i6PAXSkIIodMiIrKbOjUWq9h2/MoXrEk5108FfDR5prsJj2faxnuFt/m/J+/RqnYzgdbse6WoOoj42n1kEUIInXV7hdek+18ePuDtJCKEEIGqg0h7jqyioF1/3Xm8ZXBTCwsLq07LgmK2DrLrtzHLseKRJVR1uHHz0OLbNLFKf5lcfP6SLiwsEopEWt6qk6KgUxesx870aMinDJy/WjXb7dKJAIV273tsQMDiFjr92o+Dv4kau3fjkIaFOTk5uXkFCiJwGzJIcHTdP88LlFkPNm7wd/60byOB1QAvxws+O0JzaVnEnnW+Ys+BFUaKcoNev42RseHBDx8+fPjw7t6xTVvO8L29cUjjPkO73d/iE5ihKEw4vXZv6ieD24uIUW8VEzlJ1GXk0KxtS/aG5ypynh5Y70v36O0kEHUcOuDlrrWXkuTy1Otrtj35eFB3A1XbjqMHnb6tndkDv7PxhYTQOSEnzz9r4tREpGo342nNvleKyg2h3UcWIbkP1gwdc8Fj286J9sqcnJyc3HyF6oNIa44sYYdlgbGRTx4+fPjw4f1Ts1vZjt51e/+EZp0rHllE1eGm6eKrJmg57CuTo8t87mco8mP91u1N6PZJG6GW73v8xk0tw8+diZQRQvJjTvkF2zjZC7V732NFJKNoqBHly619ynQJ86ymXSmgaTrnweaRrRsZSYysOkzc8zSfpmmaLow8MKVzYxOpYcNWw/68m6XZkqun8NZc144rw+Q0TdOKhDPzetubSQ3qOQ1YdjVFSVc6kZuyH26b0LGxidTQovXw9YEZSpqmaWXa9V8Gu9Q3kJraeXx7Mk5O07TqbcdJytQbv3/V3s7S0qqRtXPvWYcj8mm6kt1MK/a9okdL27jNDyx6+7fKDaFlR5YiYWMvywn/FtA0TdP5x78qe7JF/4uj+dp3ZBVcmWbXbXW0ovx0eeTvXZrN/q+Qpis5slRO5Iby+15+5OGZPezNpAbmLp/+dDmp+OPX5n2PprMfbvtfVwcrSytLS4euE7c/zC5+j3bte9WqYSKiIiMjGYxrDg4ODC4NAAAAQCOioqJqMjtHz1YAAAAAaC8ELAAAAACGIWABAAAAMAwBCwAAAIBhCFgAAAAADEPAAgAAAGAYAhYAAAAAwxCwAAAAABiGgAUAAADAMAQsAAAAAIYhYAEAAAAwDAELADiMTto31GnkkXRa0wUBAHgvCFgAwAnKZ+u66VFl8IxGnjToPnPV9K7GVC2XJv/u0k4dFwbJ3n/OnOtz2nX7NbiQ+TIBgDahIiMjGVycg4MDg0sDgLqEVioUSloZ69O7w93Zsbs/1aMoHo/Pq+1sRQhRxm3p3/3axHsHvjB7/7XTSXu9Ovzz2S3fsY00UHQAYEpUVFRNZkcPFgBwBMXjCwQCAZ9Hvf0fn0dS//Y0GXo4jxBClK8uLRvcwtLc3Kr5oOVXUmhC6NS/P3WdtHalV0tLE2OLj0b9dev6mi9bNzYzMms28NebWTQhivBVXTvN+nP+J84WpiaWbUZtup9DCCGkMPrYnE+cLUzNGth3mbj9YXaZU5CK6MN7w3qOGWBGkaKbc9z6L94y/WN7c2PTpr0X/ht4bJZHswbGRpbukw8/VxBCZE/+/l/npg3r1TO3bj5w9d0CQjUcPLpz0J5/4pW1/xECAGcgYAGAVlC+2Ddl/BmXDcFJyU82Ox0fP/dMJiGEKJ4dOFow73pCWtSuToEz+sxOmHw+Ji3xwvDkVcuPJtOEEFL0YN9Ziz+CXqTHnxuVtHTML0FFRB6yeuTM4D4HwtPSYi9Oz1/15YKrOe/WRGcEXAtv27OTpPjPgiu7b3TZE5qSdOsb4uPldcB584Ok1NDVTc8u/PN2Ecn7d8W86KEX4tLSXj32/dXLWUQIMezi0eKR/82cCnUAgLoDAQsAtAGddu6Qf/PJcz425/NMO4/1Mr/iF1RICCHC9iP+196Ex6/v0c9d4uz1vx4NBJRhq34fN3wV91JBCCFE4jFhYktDHmXYcsqMfqkXL0YWRp7yjeszc3obYx4lbvrl96OkvgcD3g2aUjyLiG3QzMHgzZ9UA88JQ5voUfqOfXs5ST8ePcZZSgmtPunbMiUusYiIGjs0ij6941RwGjF1bG5nQBFCKDNHB8NnEbGK2v6QAIA7ELAAQBsoU14my67NbdHIwsLCwqrX+mhZXvb/27vvqCayNg7Ad5IQOiFU6UVR6ShVUDqIAvaCHwr2ir1317b2XtbeXXtDBUFA1o4F7AoiYkV6JySZud8fAQxFRIiG8j5nzx5MJjPvJLmTX+7c3KEQQoimpKIsOJAxJJgsRcFweIIhwaAowTk6QlaJzRSshKneip2flcvP/JatpNmq7Ea6upZaYUYmp2JTuKiwWFZernwAFU1JRUmwAQkJCTlFFqN8AwhTGDFsFl873i9/V2+Tdl7TTrwuKdukvGxRQSGcIwSgBYOABQBoCmhKasry3XckpqWlpaWlfcvMzTjcWwohhBDxk6HkuCA9vVjwZ+mXz1ksFTZDtZVy1uevZX1WZNqnb/LqalIVDyBkZKWLC4sqhmURtW+BodFlwvbrb54ddo6fMmpnMoUEEU1aVgbGuAPQgkHAAgA0BYSaT4Djg43Lr33iIEQVf3ny9ENpHR9aErNvV3w+hQvit22NaNW1axumUa+BRtGbtj7MpRDn3em1xwp7DujErFiertdG51vi26I6rZz3IeHx52IKMVTaWRrI8bg8jBDOefs2T99Ij1GP/QQANBMQsAAATQJNJ3jfkb4fFzhqKsizDT1mXEjh1fWBPo4Zs+00lXS6n9JadnhORwlEbz/x6E6H/4JNVJW03bcyZ55e5S73/QGEspNL64cxd4vrsnbyw6WpznrKKupaNksKxqwb3Y6OUMHtG0/MXB0V6rObAIBmAubBAgA0Y+Sb1Z293y9P2unB/PnCFaj3271db499fKxffebBSj/a1+6E3+1Lw7XgGywATRjMgwUAALX71Qvt0PSH/x30bt3Gh/WYyb347rotGaNXBEK6AqBlgzECAABQjbTt0nv36vVIGcc1cTdFXA0AoOmBgAUAaMbo7WbfTRV3EQCAFkjEAauBJywBAAAAAJoBGCUAAAAAACBiELAAAAAAAEQMAhYAAAAAgIhBwAIAAAAAEDEIWAAAAAAAIgYBCwAAAABAxCBgAQAAAACIGAQsAAAAAAARg4AFAAAAACBiELAAAAAAAEQMAhYAAAAAgIhBwAIAAAAAEDEIWAAAAAAAIgYBCwAAAABAxCBgAQAAAACIGAQsAAAAAAARg4AFAAAAACBiDHEXAAAAAADxS01NLSoqysjIEHchYqCqqionJ6erqyvCdULAAgAAAFq61NRUJpPp5uYm7kLE5tatWx8+fBBhxoKABQAAALR0hYWFfn5+GGNxFyI2Tk5Oly9fFuEKIWABAAAALV1mZmZLTlcCmZmZIlwbDHIHAAAAABAx6MECAAAAAEIIteROLIIgRLtCCFgAAAAAQBjjlhywRA4CFgAAAAAgYIkYBCwAAAAAQMASMQhYAAAAAICAJWIQsAAAAAAAAUvEIGABAACok+Tk5MLCwtzcXHEX0lQpKioqKCgYGBiIu5CaQcASLQhYAAAAfi45OZkkSX19fXEX0kglJCQMHz78p4vdvHlTtNdjEaEmFrBw+okhXSP7RO/twxbx/AoiAgELAADAzxUWFlpaWoq7ikatLumkc+fOor0ei2jVO2CVXhyqG3SuBBF0poKGseuQxatneWjSRVtcVWyncUv1DeRFNXmXyOfBgpncAQAA/BycGfwpXDcZGRnirvS3kHBc8zInN/PDw+PD6cdGL7yS/7s3yNB29LPX+M0prgEgYAEAGjtO5LSO7doaGRkZGbW1CDr2mRJ3QdXxE1Z7mXqve0o2aC0440SwqdmkcK6IqgJ/Vh0DlrjL/KE61v+DvcKC/i+alJplQD8H8n3yNz7GuPjl0UleZgb6rc09Jx1/XYwx5r2/ONuvg5G+nr5Rx+7LYvMo3qPF9vaLH/Ewxhjz32xwt5h5k4sx5+oYs6Ebdo1xNdHV0rcO2Hwz7tB4D3N9TW2T7osiv1EYU5mH+2oPPluMqczDAxwXXDw307NdK/0xV0oasBMiBQELANDYSXmtvxu7xJnJMAs5d/dgoNZPj1vk6829+u9617C0A8Av+vMf4aJV/2Ai2DOMMcZUaeaToyfuqTo4aNMwJ27VsL+zhpx7kfz8wuD0ZSG7XvO597YvvGW963FyStKj82sCzOQQxoL/hJ8ijDFGOO/yiaR+JxJSXp7u+WVF3zH3PPbHJb+NnihxeOXRRL7QkhhRH44uO6OxJCrx+UZPyYbsgyhBwAIANH6EpJKSLEFIKbKl63DQ4idH3XjXCLu5QDMnlk9xEap/MMEYY8S7t9BaQ11Nw6jHSf01J+fbMTE3/kIot8eEAa0lEVO/X4D928gbX7G6vnbGjeMXHn3jyWobGyoKstT3bQsXQm/jP9hZlY7kzD06aah7/s9Xm4kk9d1dDL99+MLHwg+kSJ0BC0I6achKSzIasg8iBQELANDk4Lxzoy38NsU9ObFoiLedhYm5rWfgwtOvixFCVHr4PN8BW16UPF3Xtb2RUVub2Te4CCHE/3rzn2kD3GwsLGxc+0395/a3su4t7o3Zdi7L7mc/PTqjj5Olqf30jdMcjLttfPG99wtnXxhrZdp/73sS4YKX51ZPDvR3s7cwtbDzKt9mdVTO4yMLgrp2sjQ1t3HtO2H95aSal0P8L7FbJvRwsjQx6eAyYO6/iRyJSvtZ8PLc8hG+jh3MrTp1G77s/OuixvvhDFp4wEJYwmHpg89fk08HK2Zx5VSYGGMyPe3bx0OBpm3btm3b1nJqFMUpyCMMRx36d6TMpfGdO3adfDA+jyp/QsrWQ1FUxe8ZaUrKigTGGGM6Q0KBJS8IY3QGA1NU2TOJywIaXVdfm9agHShboQjBrwgBAE0SlXJiykzD7sNmbZ4kW/D01LqNiyaz2l2ZYaHkNHXXX5yBc5P67t0RqEejySgzEc6/83fwuAvy/WZvmmtEJJ1bu3LcGO6xU5PMmQghROU82Ts1+iu796QVI5V0zZlSZ8LDw15MMrWgI4QQzr5x9R5pNa2bLh0RjJzktwzbwLkhxurkiyPLViyapmQSOtW0yjDbkidbhg/dX+IesmBHBxXu+9iDm2YOfl1y5p/+OlUXjN84esJBjuuUNfOtlYoTr+1ZtO01H3Uuu5dMOT4xaOV725DFux2Vs2/vXjF/eKbExY1+qvDFuJES+Sf0H9aQkFHR9STbZdJ4Le+VB0dcGGdIKKmoGo3dHz3XQihrYKRoEfDX8QHTnh0IGTx2o/nNeTSCoEhSsG0yNztXKLQRZScL8ffysPA/KhXdwOcfAhYAACCEEOZxLcZtmd9bhUAI2Vqg5zen3Lv/kbQwkFfVUpGlE0xWK00tLTpCCFEfz209+dVi5r5FA3RoCHUwU/j4cMCxo7dGrXaXRgghzvMkjR3n/3YXzKZTWuytej4i7PkUC0sGQjgz5up9ymZuVw0aQkjaaeYep7ICLHRHx1xbFP8kC5uqCf+8G2eF7zz0xmD0+XWj2zEQQrb2tmp53cdu3RfXY0knSeFdKIg9dPKtWsChtaPspRFCHa1NiHdeC+PK7i25s2/Hfdk+u9eN6yKLELIw5DzznHvwQmq3UQaN93dTLVuVT+jQ0FCEkL+/v5jK+WUN6sWpOFtH0xk0s+/u0auvDtjp16GnLzluwzH/TYGmLCo35XUmy8yQ9+oJR9dCT05e38yQRfJKKZq+rkbm2YefeB31aDm3ToV/It3LU5RwqCr7B8LfN1U9aTVw9xvy8OrgmxAAoGlitHe0UypPNlKtNJWIwoKiGpcsSoh7QbZ1ddYsO+BJtLO2kM1/+Ty17DwgTbf7IJeKuQolrf18ND5Fhj3lIYRwRvTVOFonfy+1agdLQk5NTQZxSjhVjsr8lw/jOTrOLm0qvr/KOXg4yGY8ephSedQ9mfL0ZRHL3rmDdNkNNBU7B6Py8EQmP3iYLWvvZitbtjmWpXVrlPjsNfzEsNESPtl0SchvPQ8lQr9yMq0a9D3tSNmOn2QWs3pHfCnTdvaBeZqXRtob6embuI7e9TCXJLNurwuwMWrTzsRx2muvFeNsGEi11+wprCO9O7l16zn6rIaXA7NqfKoctyoSFkJlsavij4YS7fMJPVgAgKaJJq+gIJR6CFR+mqIqqiAnj08+29DNdMP32yikU1xctjidraIk1AclYeXXXffolbAn0zt2zI66+pDZ+W8Pwf1kVvyZfYfD7r/+kJHP4VPcglxsXG1z/PzcIoKlyBJaI53FViAK8gsrl0cVFhQiFlvxe38UTYFVsUtUXk4+lX9xvNWlirsxRTFYxaUYSTfOiatbvIpP6NDQ0IrZRENDQzHGTaIfqyEhQ8J3z1tfVPYcEK0Cjr4KQAhhjFr3Xnaq9zLhRUccuT2i0laRbIexB2LHVtwyWXCr97ZX3mVrZFgvuhVd9jehOzY0HiGEEXvQv28HIYSRVNkfjawHCwIWAKCJquu8yzQ5BTk6w2rMgWXdhC6pQTDZOgyEuAgJwpkQuomvr+H+s2EJ07WTwuOlXde7sAiEEO/plqFBB3D32TPXOLZRk2OSd1f0mPul2uYYCopyOCk7F6OKq6Hw87LzEYutUHk7NFl5OVRQUEghVJaxMKeEg5G84F55BTm6Sqfl+8aY0YUf00oe0lVjJfiEvnz5cpW52gX/9PPzE09Zv0LkIaMlg4AFAGh26HQaLuVUnEuTtbI1pu1KTFOaZK9ap3RCN/L1a7/r5LUY/eR4OY+tneUQQoj8ePdWMt1tw5JAF2mEEMIZxblVTw8ihBDD3MFa5tx/N5KmWrQXHGEL712/V6Tq2VG/8tgpuoFZe5kD92+94DpZMRFCCOfHP0wikWpZDbbWigeevefr9TGWRKApEKQTX19fX1/fH90r8uuxgEbrzwcs6vOhQK/lD3kIETS6pJyKjnEnv+ETR7jrNqpDCJkRd2TzjlPRCak5PCZbq425Q6/xM/5nqfCLLaPkzrIe05ODT+wbrAejUgFoAF5ebjHGpXm5HEpL5mdjR+l6bVszTobuOmEdZMJgatia6vWfMvD06CXDpn0e7mupIcPP//Im/oPm/yb76f6gYdL1u/uZbz+8+UgW23uXg2CMFE1ZW1O69NXN2BQnDy3qU9yptQeeEqhNtccSil1DRh8N3D5lpsyUgR1Veamx+9efL+28ZJgts8qSCq5D+ukGH50zR236ICt2SUrMgb2Pv3/+SncZPcF+4Mrxo0pGBXRuo0gvyUp59pDfef4wm6rrAY1EXbp/GnMX0e8Yh9SEiHzfxTTIXcJuwt5DB/fvWj9/mAPt/rbxgxdEZIv8VaW+Hg3uuvIR/9cfWfp0y/ARa27RXScs37hx5ewR3dqjtByyHsMe6HJqOnpaSlLwjQWABuBETnfovCiWy3+2tbfDsGNffjaHKE2j78LFPVkP1oweMnLBmUQeIliO847um9wh58r6WaOHjZy0ePeNdBkl2VqOfzQtH78Ome8+qPr425R9+SNYPnNWD9N5tMjf1tzGZ8Lhgr6bFnSRqalxM41H7z403yn/wtKxQ4Imro9h+q0+unlgDWFOxnbGvq3D9JP2TA8KHLXoZK7PqtV9tCrWSDf43/Zjq3spxh9cPHHE8LGz1519QQiP2BIz/tfbu2cOcLWxMO/oOmjh+eTSynfjgoT9E/0crCxs3AavjPgsGN/PSTozu2/njhYdu/Sbd67qI5o+qm7EXeYPiWCUeBMn2ueTSEpKEu0af4b6fCjQa63qhsdbfARfw3gvN/Xpu0dpYfSB/6mLMu9Raf8O77qn7f6Ieda/2E/Hf7jCa8hl+53Rq1ylf740AAC0ALGxsS4uLhX/pDKub9750X5EgINa4YNNY0Oe97104H8aFcdw7uPV/jO+hRz+25eVtHvsuEc9T+0aoJayZ1Dwfb8DWwdrp52aPuyMxZ6TY40aTWBsqNjY2D59+vx0MRqNdubMGeFnspGIjY319/cnyZZ7gSk6nR4aGirCl6YRTNMg0cbSWJb6lpaBEf/x3x4m3muErpdadGmcmemoc3nlM73+YF5jMnVvf8vgf798ilozzNvGzKL/tjOrevv9daf444EAYyMjI9PRglXUeXpljAgJRs1PTp1r2J1Mcm/MtjEN2P+x/BtLSUr4hgm9nK0tLO28Aucdic9tuZ2xAIAmjabqOXXRMEctaZqEqk3XTqpfP34T6pohE2/cZPgO664tSZM3GxJs8/zKjUwy7VZMmkvwQCNpmrRB36EeOeERyc3r01ws3SQi9Fs7h5oE0T6fjWCQO/Xt/Ydiuobmz7uvap/XmPp0beGY1FKHoAX91NSMO7XtocIdOf66zYYjE8wZSEpJnqjz9MoMEzcX9SPnVy+zUZ3t306eVs8aTLTo6KPwjqZfnTdk+j2DEXO3L9EqeXL07zUjJ6Oz+4foN5tvcACAlohKf/E8v31/4flPeR/fp2m7l409ldJrrf7x7XuufsoXLUM9wcWAGPqttT89eM9HbZvRAbAun9Ai/xQXod8RMpqQZhOwyNLi4qJSTt7n1zdPbtyeoOi92VuFQLV/mallXmOEEOJ/fFw08+yRUUZl1/IiVeUZBF1OVUtLi4HQr0yvjGQ6zdqxMHfK6lk9w7Y7+QcMDh7oaiBL1KMG4RkByZdHt4Zz3Fdvmt5DmUDIypie6D3m0Mmng2Z3aAQxFwAA6oX8dGH5/tKgbd5CM3/h0pISLCUlJfgXISUlySkuoTglpUzpsiGphJS0JFVczEWoUf2+qWGaesBCjb68pkVMpwhLI2bYWlp1tHfxH7osgtZt+f5l3ko/Gwj+s3mNCUmHAQPaSPzw8XWeXhkhRMiaBG6+cv3kqqFWRVEbx/p2HfbP43zcoBqotIcPUmlWbl3Kd1Ta0tqY9uXFy6zGO+IRAABqRaZHLRm3T27GxhHthA98BFNamuBwOIJ/YQ6nVFpGhiYlLcktn/geczilNBmZ5vWDSLGchxIVNptNkiRBEL/hzFsTQBAESZJsNluET6mY+k6YDlP3TrGXkpBla+rpqkj/OOYJvRNrm9cjBKFZAAAgAElEQVSYiRAipJWVa/xFT5k6T69cTkLNqtdEq16jJ0etGTd108xttuHzLOpfA87LyaN4jxZ0Ml7wfZcowryouJG2NgAAqBWVdfPvMesKRuxa27VVlRN9TH1Dzc/vPpDIjI5QaWryN20bXQn91jpf3qTykK4kQvzUt5+1DHWbV/c9bqzhqS7k5eWfPXtmZmZGpzejs7Z1RlHUs2fPFBQURLhOMb27CbahtbV19e8uVWdgw8WFxYLoUqd5jWvtBKvz9MpVSGp5TBnheGrus2fplFX9ayDkWPI0KefZx2d1EtpvQlpVuyW+lwEATRzOi9swdllq741rvVV4xcU8gmAwpenvzy3fX9B7QbCFkbcHffLB8IEru7HeHj1y39BzqipD3c1bf9/h029tArXTzh+MlHLd0aZ5Hf7qErAabQgzMDBISUmJi4vLyckRdy1iwGazFRQU9PX1RbjOxvX1gZCVl0X5OTn88itHFD9LeMNH5gih2uc1rnHwFp1Bx9xSbvmbuc7TK1dDZqZnkhLqynIEXekXa/iOpmljrc2/mpStEeQMl7oAADRtODNsx4GEFG5CL1vBdeZo6oGHYubil7dvZdmVBllIm4xeNXzBnP72c0tk23aftXaQLg0h7UFLZyTNGtF5TR5Tz3XcqtFmjesTqMGadMBCCBkYGIi7hGalcb296fr2Dprbzu3Z7d8m2EquIDFiy6bIgop7f3FeY7qWURuZrOv797tK2ssylM0tdOo4vTKVfm7ejJvydhattVspy3C/JoQdOfpKu99UVwUCEfWfW5lhFjy56+WZM4ah0UEeJqrM0pyPrx5lm0wY5/rT4WcAgJr9zosl8BNWdwuM6vpv2AwLOvl8W7+R1933np1oJrrt/Kj4ooer+gefYYXs3z/O4ten4sO5sYv6zfgQfGb/kBqfE5x/e0mfycmDTx4c2roBHwCEasDBFwHVb18QEVv2l7TxoPUXB1W+l6Hnt/Sk39L6b7Zxa+oBC4hW4wpYiGk9adPCghV7J3XdUcJUa9e5/7TVQatmvC27l27wv+3HWDu3Hjy4+OTXAkpWvU0Ht6F+PzzcyXvNWDl41t+7QobsVPFeemaDjqrx6N2HFLdsOrJ07MY8xDa091t9dFKPatMr02QNjdXOnz69/WR6IZcmraxv6Tpl76SgTvLEr9dQab3qvquPy+zdvOfUytBPuXxJZX1L50GdJSFdAVBvdDk1HT3OH7hYgqyKjq6OqqxI11lj8VRGxNL5UQZzD68JNKnPRMecRztXXJD6378BP0qchIJjyET77sv+Pue9e4BmI5gKsRkRhKe4uLjs7OwqdykpKdnZ2SEIWC3Jn5/JHQAAmgLhHqw/t1Uy7+O7InZrTbl6RR+cdXGC96KSmRH7AmqbWZBzf5nPsNv+Jy9PN6/7l+wqM7mDKmJjY318fBBC2dnZ27ZtEx7JxGazQ0JClJSUEEJ0Ov3KlSvwTLYE8PUFANDY7epr0nFCqNCFD8in67oad5pzo7jSxRL4X//bMbW/u425sbG5jWvPkcsup5IIcaNndjQZsO9DxXwo1KeDg0xtZsUIJlfBBS/PrZ4c6O9mb2FqYecVuPD06xqu78BPWO1l6r3uKYkQ9fXIYBMjYcb99qSQCKHSlIjNM4N7eTpamZpZu/abtv/R95JL3oVtnNTf3dbCzNLBvde4/c+4CFW90gPnfcSGCf179urt1dnJJ2j+wfsZ5Petd5x4KenG5pBeXaxMTTt07jlhy3/fqo/7xDmxV27zbLt7qgkO7bjw1Zmlw30drUzam1g5egdM2fswHyOEpDp281L/EH71eT0u1Qp+TPCDfzabPWHCBEVFRcGNioqKEyZMYLPZFTMCiLdI8Mc0slOEAABQTXc/y61brt7I8eslGLDIfxYW8VHFa7GDDLpXsRD15fScSXsL+y7YPL+NVFFa8pO4fGUl2k9/fkIwcpLfMmwD54YYq5MvjixbsWiakknoVNMfdlrR1PpsjHQvS2cZYfNHbs52tNOgI4Tohe8SS0z6Thtlpi2Rcm7V0jVTZNtFLHOSRtSX89MD58Zp9Bm3aFxrqYKPb3INtCQQ4gmvlkoLnRU464H+kClrZxtKZT85t33TyKFp+07NsROclyy5u2pkik3AmBVBrdCn6H9W75i6RPfajl4qlc4vcp/cj+e1HW3DFtxaGrdx3KJo02l/7bVTo7I/vIx7ragsmDJZwtTeWubYw4efSCu4lIToVIQnQcbavn07QqgiXVVZBjR7ELAAAI2dlo+f9ca1V29k9+yjTCDEexoe+Um9q7+NlPBCVNr7TzxNvz7+TqYSCFlYO3nXbeXSTjP3OJX9baE7OubaovgnWdhU7YfDuuiyqlqyCCGEM66uOxCvOfzIOEsphBBimI/dvq1soQ5GE+9dDUl4nEo6tcdPjmyPIb3W7lnhp0wghJBX9ZWSz49sjeT7bNw+10eRQAjZ2pvQP/tt3HY+6OBgTYQQwoUK/ivXj7OQQAjZddRIu9tz/91nvF5uwj+vIb8kvS2SbWOkJchMuPhjaqaUabf+njYsAiFLO1f/ikWZrdvpoxtJKSSCgCU6wuGJzWaPHz9e8AeEqpYJThECABo7WitvPzt8/2pMJkYI8Z6ERXzR7t6jQ+Wf7jJMuvkbfdwzasjC/VFvcut3EWFCTk1NBnHKZxuvFc4IW7kiSnnY8nGWNQ1GZ6qqKxGlJVyEqC/xj78wOno6K/94KD719fHjT4yOrk6K5cvQtV3d2/GfxD0pLStNybaTcflk6fRWmuo0TkEhr/JacFZGNlJWUy6LTATLqae7TPSCgSEbzj38XFJpn+gqqiq0kszMIvjkF6Eqk4Oz2WzhM4NwirClgYAFAGj0CBVPfyd63NXoTIy48WGR3wx9/Uyr9r9LWU0+fn7zEN03+6f0cPYIWnbu9Q8u0iB8hQhEZsWfXDN1aN9u7s5Ojo7OUy/l1unzTxCvVIYtH2dR3o+G81+Hbp49aoCvp0tnR8fOww+9F6Q8XJhXgKUUWbX9JhDn5+ZjKRZLqE+OpshWJPiFBWXXeqDJKQhfeJ4gEKr2SY35PB6SkKi4Zg1Nw3/j+aNznLkRKwd7OPeY8s/ttIpBVwwJBkJ8fpWIBhqkjldlEXeZ4A+BgAUAaPwIRVd/Z+bDsKh0zuOw65nt/Pza1nBmi5Ax9Bq35tSN2LNLvbih84Yvjc7HqNoVInBRUWH5uHLe0y1Dg1b8x/SatGbfv+cuXjy7yKMu8wDjjPCVK6NUhy/7Hq/IlCPjB825VGg3avk/x85evHh+bd/yORBk5WUJTl4+p7b9YykqEJzcXKHx9VRudg6WYClWXHzr53XRZGRlUGGhcK6kq1oHzNsT9l/EnjH6L7aPnbAvqSz1FRUWYUJaRhrmiREhCFhAGAQsAEATQLCc/d1kHkdej46MyTbz625Qy8ghhpJZrznz+uvmvXz2mUI0OTlZlJtd0TGFs58lpJYFLPLj3VvJdLeQJYEu5gZa6qoqEsW5Pz89iDPCV66IUh25bGxFvEI4/2FsPNdmxOKRXh3aaKurqspzc/MFa6JrWlio8R5H38z58ZpprWzt9PmPo29VLEN+iol+w7C0Mat6zYha0DS0NYisj5+r/QySkNHtMnLFBEec+CxRMDyf+vLhM1bW0qjPVFvgRyBgAWEwyB0A0CTIOvp7KEw6tPltTodRPtrVvxuSL48tu1hiYWNiqMUiv9w9EPZZ0c5Sh47o7TvZsY5f3HnMa0lvI2b2swtrdsWR5Vc4VdbWlC59dTM2xclDi/oUd2rtgacEalNrHTgjfOXya1I9N/opZX3+jBBCiC6n2kpGS1uJiroT/ca3bxt6esKljTtucREbIYSQhHXQmE6X/loyhpUZ7GYgy/n66jlynjrAVHitdJMhU/wvTl0esqp4lFdr6Zyn57Zsea4TsK+nBg0hqnoVNSKUTEy1+Feevub1tJNACOdEbV7/XK2TZVtddWbB69Djj2jtxxozEUKIynj29DOjvVlN/YCg3uoSniBgtRwQsAAATYO0vb8X6+yxnM4ju2rU0PdOsFQkErduOL0xsxhLKRl08F60a7qrHEJIwXPe5mlLV+0d7vY3V0bTzH3wX0vlpy2nBI/xmbP6xaJ1i/xtp9DYhg79p29agIacrLWM4ruXItN5pSdCup4ou4WuGXQ4amGnSWsnZq7YMsB+CSWv07HHxJUrpUavK1tAL2DrYcktmw7tXXQ2vURC1ch5gme18lW8lx/dvnf9jp0z/v3GldQwdQvZM3OYvdwvncKjt3fprHbwZswLvp0VAxFSKqyCW/uX7vucx2XIa7Z3Grpl5lBDOkIIZ9268ZTeYbZD7Ve6r6xiYifwIz8NT3Q6nSRJNpv9Z+oB4gUzuQMAQLPBf7Wld78zVv+EL+si88OFyNT9gX7/qK26ttmXXfeElZKSwuVy27VrJ4o6m6HY2Fh3d/fal6Eo6tWrV5KSknBZ5ZYAAhYAADQfOO/GvJ5T3gefPzrsB+PUcP6N+f5T3w05fWxkm188Q5iSkpKfn5+bmyuCQlskNpstJydnaGgo7kLAnwABCwAAmhOc/+TcsQTVnoOdNWvKT7jo+cXDD1h+Q9x0YIgIAL9RPQNWQkJCbm5uenq6yAsCYqSmpqakpGRhYdGQlaSmphYVFWVkZIiqqiZEVVVVTk5OV1dX3IUAIAbQ9qHtA2H1CVgJCQkURdnb29NoMMtDs0JR1L179yQkJOqdsVJTU5lMppOT088XbaZu3brF5/PhOAtaGmj70PZBFfXpIs7JyfH09MQYc7lckRcExIhOp9vZ2V2/fr3eaygsLPTz82vJv0N2cnK6fPmyuKsA4E+Dtg9tH1RRn4CVkZFBEASfz//5oqBJ4fP5DAajIT38mZmZFFXXSXuaq8zMTHGXAMCfBm0fQdsHldVzkCNMR9tcieRlbcnvDYKAS4+AlgvaPgAV6h+w4MtKs9Tw4yOEbwBaJmj7AAiDHixQCQQsAED9QNsHQBgELFAJBCwAQP1A2wdAGAQsUAkELABA/UDbB0BYPQMWRVEwBqtZavjLSlFUSz7IwkBX0GJB2xd3CaBxgR4sUAn8irCB4CALWjJo+wBU+K0Bi/pybOTgN8PCl3Zh1m8z4I+DU4QN1JL3HbRw0PbFXQJoXOp5rRvBNA2V8F5u699/20tepRsxRtUW/JmSO8t8Rx77xCfznly79ZEvuJH/7f61Bxn8Wh9I5kXMcuky7WoOKXQjJzVq24zAbl1srW0c3XuP3nwrm+REzrSzshl84L3Q6njPN/fq2MFn1UNu2boK35ye5ecYfOhD7dtsdkQVsFqyBj6BADRR4m554ifuVwA0LvUPWFXwXl6Lprt7GdEqvdtwjcvWqjgu/K62p5s6yrt1eGfsZz7GGGMyLXLvwQeZVG0PpHJir77R0EoOi8kqX45Mu7pg1PIHrQLXnIy6EXlm5+yAzobyCGMkq6edHRmRQpY/lvs0LBbpatEExfK/Rq8aPes6biVHtMRjRgPfUj9aLfV1f091trKysrKyqmZbW/8Jm2M+c//kftUB+fW/87e+kT9fsFYNfAIBaKJE0ggx/+WaLuqdVjzhiWRtVO6D89ff80Wyrp8T9ysAGhdRnSLkPY+4Ie253oDAZNrNbX+tu/CiQFqvcx9zjDHCGGPE/xy9dfnWq28KJDTsg+bN68PbNXApseTkVEsJhFDp/ZV9N7DXHR/Xnl5879oDfa/xcvE7J6z/70PJ4143ZU0GDVO+sjv+HTWxxyUZ+4khaPNe9c1HRxvREMIFkXP7HDPeuz9YD6VHh72zGTuDsfFI5Fe/gRo0hLgJR3Y+Mp9+crK3EoEQkmlto4YQwlyMcBtX15Tr1xKDx7ajI4RKH4fd0XRxzI4SfLQSEnIWIzdPlDkW8E8zaTW5ubkHDhzIzc0VvlFRUXHYsGGKiorCNzZ8b3/0lGGMEdNvV/KhPtLcvNSHFzfOG+H/dvu1TV2VG83ABerThfVbcpf5OqrWv6Tm8HYBoF5EcrjkPTl1EZlIhJ56NN3crsGDS3BO5Na/7w3v5q5bz86EX9kWtH1QmYh6sEqfhP+n6OmuQ1CZYWv++k97xsnrUefWuH6+/YyPMMaYfP/vorVvHFaejww/NJJ5YtGeV0YeLsR/US+4GGPMib9+R97dow0NU/l3rj028u6iJN1h9F+D26t1X3Eu9Pzq//WYNqentkHA5guhZxd4O3V3LYqKeM3HGFP5d64/0vPy0CYw+SUy7KuTj61tV+esaxEfSYwxmfrgYb6NVxd21XIRJlEbT3ccFfGKhzHGxQ/CH7b2dpSjBGEQI7a1TxctBsa4uXRgsVisoUOHslisilew4pbqCzfwLVXb6UeEMUVRmCGv6zB4/cE52qGr9r/iURTFT4tZ/T8n4zZtTBwHrYnNICmKzInbNtzV3Ki1oZG5y6gjiTyKogqeH5nq29FQS8vQqsfG+FKK4ry7sKCPXTsDQ6MOPpMOPc0nKYrihI2zGrH5wGSfDkb6+sZu446+5lBUjZugKDLr/o4xnhb6WjpGNkEHHlyeE7j27ot/Blhb2k4OzacKH+wY3tXW1MjAwMxr8unkUsHKrSeeiFjZx0pHd8CRdLLm/WzgEwhAEyWKQQqcuFNXlAKWB2pcO3WnuOLGdxcX9HMw0tbUN3VfdKOwxiNGxpEAu4lbNwxxMmmtb+QQuP52JkkV3v47YP61dydH2VpaBx/6wOe+OjLBr5N5WwOD9l1G7HtaTFFU6b0FnQbvjdk+xM5A22vTG14tpdWBuF8B0LjUM2BVeVeVPLp2R9XDTQNRJQm34rX8Bjko0SiGaue+nrp0jCmKnxod+cF6QL+20ohQcuzeiXv3dmpbDxfGzajnpRRV8jjqLtvDw4CgyNxb154ZezqyMEVRFEaoYqgXLv9wpiiGmY87FR3xgkuR+Xej4g09XdURxX8fHpHv4m3CoLX3duNEhL3lUxQ/N6dAVpHFqN4KMMaEgYeHVMy1Z6UUlX8n/Imxdye575soXwpVH2rWZCkoKAQHBysoKGCMK/6ucckGvqVqyXmV7iW0PH2Mk+89yKHIr6emT4xou+q/l69urm1zeeLia3nUt/OrtnFHhz9PTHx6fecUVx0aLr6zcvjqtB777r99++D8hgFtGbxX28fMe+Gy615iYsLZ4ZzNw5fdLMQYY5x7+fAj9113Xic9+Mf+6V/rIwoxrmETmMq6Mm/kfmLkqYTk17f/XdzdotvStf/TbzvqRNzjexu6y2JJ9Y7/+/vSw1dv7q01vrV0x51SjDHGOVf/3s0bc+7p8wP9lH+wrw18AgFoourz5a+K4lunInV797D279Mm5nSsoEHzXm4fPTveZt1/ickJYbtGWknV1JwxQuTH85eKx19ISHwZPlHi4LhlMYXSDjO2j7fQ6L/r3uO4/YO1CJqyaZ8FJ+6+SHp80OPtyvVheRhjhLn3NqxJ7nUw7uX5MYa02sv7GXG/AqBxEUkPVvHDiHuaHq5qBKaKc/P4SirKhODNxlJSJBDGmMzOzC64sbyXj4+Pj4/f3LCC0uIioq2HK/NWzAsuJyH6rrKbmy6BqZxbkS/NvTopoLK3KkbC79zyv+jtfTylYiOelxbcjXpi5OWiSmB+Yvi11x9OTe7m5eUz4XjK24jwlzyM5ORli3Jyq4/zQQhhTNPz8GD9d+0JJ/d2xCtLL1sZhKp2WFXb0SaOxWIFBwfr6ekFBwfX2Hcl0MC31I+3X+n1xJhQVGShooICMjvq/O32QeMc2DSCZTPQV+lmZDxXVldP6nnoyZi3BXTltu00JDA34XI47jU5yJwtIcHS0VeX5CeHX/3kMmq4uTyBJHV7hPSXuXLufinGGNMNew3vqiWBCbZtVzvpzx8ySaqGTZSW3A2NUh88tXcbOYakkoGeMr3KoEFC08bVQlUC0ZQ7O5sUfP3GEdwq323KTA9deRlJid/0BALQRNX5UPRDeTGnbrbr002Npuzd2/zOmes5FMb8t2FXPrmOn+CgypSQ0zTQlMM1NWeMMZLo2D/Imk3DTL0+Y3ow/7v+lIsrn4ZAShYuNlpSBJK3cO4om/E1h8QYI0Q4jV3Ysy1bRkqCaGD94n4FQOMiijFYxXERD/U9x6gQGCNJBXl6bnY2iaVpCOHCgkKMMcKEAltR2Wfe6dm2EkIrId1dpebfeGLHiVP32KJNYCrzv8ikDr2WyFU0CoQp4Tdt+UYJfW9v9vTr941znrf3nKFMYO6zsChm4ObjfbVoCCHq0+lZK8OejjQxMTeVvBhzL8/FVaHSmBpBdCI03dxVQ8Ij9bLf2QRYS6GPFR//FVsT2mYzwWKxgoKC0I+HC4hkb2tcSdmN359PKiM9i8ZWUqAyv2WW3PnL2WwlQghhfinlWUDJdF92bvWedRv6Oiy2CFqycqqnalZGnkoHVVrFw8ms9BzFVqqCM7mIptJKpehZFgdjhGjKKkpE2c0MOqZITNawCbIgK4un1kpojUgoAyLE+3R92+rdkYl5mIZy33GNugt+YUnT1tOmN6v3BACi06CmgXMiT0V+vhHp2H4BQlRpIcUJz/QbyMrKzGFrqDG+N/2ajhgYY0RTUGQJWj5NWU2p4GXe988PjDFCVObdvau2X3qWwacRhR+z2SGCn0PR1HV1pKBNA9Grf8AqP5eEC+9GxLfxCGFjisKIaWZv8eHkyTjviXbyufcuRKaQJpiikE4Xd7Vph48/MRxkzqYVpyV+k2hroEzTd3OVXXz4OFfdLVAdUfxvN66/tx5oLSVYM5aRlyt6n/yNa61Bx1hWQTbr5dscfms2gQgCtXLzUp+29xjHeNBUFqZKHofFyrlvMFdTEXTIKXX3YE25+mCspe2AAO2x6xbsJSb2stGW4eV+/cxRaa8njRHCFEUhNRcPrUOb9yr4rjZnUEKnJAX7KJhjAjf8nFmT0vDDzI++yVUNrLy3oZcTjXvYyNNklNlynuPu7O0lL7w00nabsMlt1JfoFUMnztO/uVubLZ+Zls7HOmUhnVBWY+ckfeNiTEcI8b99yZBTVZYsi+BlOa78fwSrhk0UX2bRM9PS+ViO/n2zFTuQdnJmyDXLI/9utFGkF5wJtg6t2C8C1byDwrsJQAvUwF4c/O3qmYQua68vc5FBCKHimAX9zl7+2m+wIlshNzWDJ2jpCKEamzPORpjKSs8ksQ4NIX7alwwFtgLCgq/TgqBVGL541GG5TWdCPdQleNHTbDeX10vU3qbrXD+0fVBZg08RUnl3Ip+39+jEKvvoVOo6dbZ10upB3br1nxWp191FHmGMMaE/YMl002drg7t7evoEzNofl0lhjAldV2eJx0/U3JzVCEym3Yj+bOfZQaq8G0mh88Be+ORI/x5TT33EWl6DuqTvDPTttTgih8KYUHX11vz41dijkwLCRQ/Cb6u4uWhV9O4S2m7u6nev3S+g6w9cuT6oVfz2kH5eHt69Riw8lpBT/p0GY0yoOnu0o9jOniaM8uYl3NuLq50zbBka+JaqdcUYY4z5Jemvo3aGDN1WPGjWQF0CKbv1tI3ftTHmCwdjsvjr8xefSqnCd09fZZRSWEKlXTsNCR6XzzD38SAvbj/5uoCkOOlJ77IIfZ+eBjd3703IIzHn/aXtZ4u6+luXvZDC28QI45o2gaXsuzl/Or4tLLWEIou+JKXmUUiBLZ/++nU2iSl+YXYuTbtdGwUaLk29EhbP+/7p8bufQACaqPofdDDGmPwUevaVYz9fw1YChv79nBLPXUxFhl7eKjH/7H6cw6O42UnJ38iamjPGGPESTh24l8mjSpJP7Qolnd3NGBjJKyoUJL76zMUUWZKTzVFra6zCwLxvMVfu5lIV5yywqA704n4FQOPS8FOECp7Lz3ii7+mdpt5l4tYuE8uX7FV2F13NceQqx5GVVoEI3cF7YgYL/oVa9dtyEgl/C1CwGbP19Jjy5V1n7HadUfFQilPMkXXobieHMJZ2nH/OsdIjCc2BOy4I1qpg0mfWlj6zhGtHLkvDXASLK/mtC/cTPJQwHLqv0vYZHaad3o5a2teShu/tj0bKY4xxaVhIW+2JBFNOo61d17HHVgRYyWGKQq36rduSuXCpn+WoPEpawyp41b527d6enjrn1DsOU0pex3Xq6h7KWNpxzs6QRfMHWy/MxGybqYeOjTEZtnVV9pxJXbZ/48m18Q7ZNddRmqK4wh2RGJf9q4ZNtNdQ8lu+LXXekh4WIXlEK6+//t0xQK/X2K5Xlriareiy9OrCSX2jV3T3/IfFMuzu29XgNoWr93LWAC6XAVqsBv1Khnx34fx75ylOMhWrkOnc03X+uvNvhk+esGNh9pzxnTZ95cm1G7Hz4myH6s25FYWRrFMXmT39bIZ95qk7jtkyu7MURWFFr5FDTs/2tdxuNuX01vHjLi/o53GSJa/l0r+b1TtMVfr9VEN3H9o+qIJISkr61cecOnXKy8urtLT0dxRUJ1TO/Y0TNzFmHJxsJSm2IponSUnJyMjIAQMG1O/hsbGxvr6+JEmKtqomhE6nX7lyxcXFRdyFAPBHibnt4+wTQU7R/R/v7iEtngKg7YNq6tmDJZLf89dPyc1VQatuEm37zVtqLtHCBkj9AaKapkEkxTRFLXnfQQsnzrb/fTC72BogtH1QxW+92PNvIdV59qnLsyvKEEsNzVjDn1IIWOIuAQDxEG/AEvuvvqHtgyrqGbAQvJnAj8F7A4CWSXxtnz3g4PMBcPABjUnT68ECvxX0YDVQS9530MJB2xd3CaBxaXpjsMBvBWOwGqgl7zto4aDti7sE0LhADxao5PdN09BCtOR9By0ctH1xlwAal/oELDabzePxJCQkuFyuyAsCYsRkMnk8HpvNbshKWnj4bsn7Dlo4aPviLgE0LvUJWMrKym/fvjU0NGQymSIvCIgRn89/9+6dqqpqQ1YCB1lxlwCAeEDbF3cJoHGpT8Dq2P/+BVwAAAFTSURBVLFjfHx8YmJiTk6OyAsCYsRms1VVVa2srOq9BkVFRZIk6XQ6n88XYWFNBYPBIElSUVFR3IUA8KdB24e2D6qo5xisDh06iLYO0DzIy8u/evWqffv2dDr950s3OyRJvn79WkFBQdyFAPCnQduHtg+qqM+lcgCoxbt37woKCnJzc8VdiBgoKioqKCgYGBiIuxAAxADaPrR9IAwCFgAAAACAiNHEXQAAAAAAQHMDAQsAAAAAQMQgYAEAAAAAiBgELAAAAAAAEYOABQAAAAAgYhCwAAAAAABEDAIWAAAAAICIQcACAAAAABAxCFgAAAAAACIGAQsAAAAAQMQgYAEAAAAAiBgELAAAAAAAEYOABQAAAAAgYhCwAAAAAABEDAIWAAAAAICIQcACAAAAABAxCFgAAAAAACIGAQsAAAAAQMQgYAEAAAAAiBgELAAAAAAAEfs/sYKfGq/mtGkAAAAASUVORK5CYII=;" vertex="1" parent="1">
          <mxGeometry x="1018" y="667" width="560" height="339.5" as="geometry" />
        </mxCell>
        <mxCell id="sbGdN3Yiho158-mzq0W8-183" value="" style="rounded=1;whiteSpace=wrap;html=1;fontFamily=Helvetica;fontSize=11;labelBackgroundColor=none;noLabel=1;fillColor=#dae8fc;strokeColor=#6c8ebf;arcSize=8;" parent="1" vertex="1">
          <mxGeometry x="529" y="156" width="146" height="158" as="geometry" />
        </mxCell>
        <mxCell id="sbGdN3Yiho158-mzq0W8-182" value="" style="rounded=1;whiteSpace=wrap;html=1;fontFamily=Helvetica;fontSize=11;labelBackgroundColor=none;noLabel=1;fillColor=#d5e8d4;strokeColor=#82b366;arcSize=8;" parent="1" vertex="1">
          <mxGeometry x="410" y="156" width="117" height="158.5" as="geometry" />
        </mxCell>
        <mxCell id="sbGdN3Yiho158-mzq0W8-181" value="" style="rounded=1;whiteSpace=wrap;html=1;fontFamily=Helvetica;fontSize=11;labelBackgroundColor=none;noLabel=1;fillColor=#fff2cc;strokeColor=#d6b656;arcSize=8;" parent="1" vertex="1">
          <mxGeometry x="305" y="155" width="102" height="159.5" as="geometry" />
        </mxCell>
        <mxCell id="sbGdN3Yiho158-mzq0W8-179" value="" style="rounded=1;whiteSpace=wrap;html=1;fontFamily=Helvetica;fontSize=11;labelBackgroundColor=none;noLabel=1;fillColor=#f8cecc;strokeColor=#b85450;arcSize=8;" parent="1" vertex="1">
          <mxGeometry x="155" y="155" width="148" height="159.5" as="geometry" />
        </mxCell>
        <mxCell id="sbGdN3Yiho158-mzq0W8-33" style="edgeStyle=orthogonalEdgeStyle;shape=connector;rounded=0;orthogonalLoop=1;jettySize=auto;html=1;exitX=0;exitY=0.165;exitDx=0;exitDy=0;exitPerimeter=0;labelBackgroundColor=default;strokeColor=default;align=center;verticalAlign=middle;fontFamily=Helvetica;fontSize=11;fontColor=default;endArrow=none;endFill=0;" parent="1" source="sbGdN3Yiho158-mzq0W8-1" edge="1">
          <mxGeometry relative="1" as="geometry">
            <mxPoint x="230.00000000000006" y="250" as="targetPoint" />
          </mxGeometry>
        </mxCell>
        <mxCell id="sbGdN3Yiho158-mzq0W8-38" style="edgeStyle=orthogonalEdgeStyle;shape=connector;rounded=0;orthogonalLoop=1;jettySize=auto;html=1;exitX=1;exitY=0.5;exitDx=0;exitDy=0;exitPerimeter=0;labelBackgroundColor=default;strokeColor=default;align=center;verticalAlign=middle;fontFamily=Helvetica;fontSize=11;fontColor=default;endArrow=none;endFill=0;" parent="1" source="sbGdN3Yiho158-mzq0W8-1" edge="1">
          <mxGeometry relative="1" as="geometry">
            <mxPoint x="290" y="259.95348837209303" as="targetPoint" />
          </mxGeometry>
        </mxCell>
        <mxCell id="QFNIT0m9x6jqfU3S40xn-44" style="edgeStyle=orthogonalEdgeStyle;rounded=0;orthogonalLoop=1;jettySize=auto;html=1;exitX=0;exitY=0.835;exitDx=0;exitDy=0;exitPerimeter=0;endArrow=none;endFill=0;" edge="1" parent="1" source="sbGdN3Yiho158-mzq0W8-1">
          <mxGeometry relative="1" as="geometry">
            <mxPoint x="119" y="270" as="targetPoint" />
          </mxGeometry>
        </mxCell>
        <mxCell id="sbGdN3Yiho158-mzq0W8-1" value="" style="verticalLabelPosition=bottom;shadow=0;dashed=0;align=center;html=1;verticalAlign=top;shape=mxgraph.electrical.abstract.operational_amp_1;fillColor=none;" parent="1" vertex="1">
          <mxGeometry x="240" y="245" width="35" height="30" as="geometry" />
        </mxCell>
        <mxCell id="sbGdN3Yiho158-mzq0W8-34" style="edgeStyle=orthogonalEdgeStyle;shape=connector;rounded=0;orthogonalLoop=1;jettySize=auto;html=1;exitX=0;exitY=0.5;exitDx=0;exitDy=0;exitPerimeter=0;labelBackgroundColor=default;strokeColor=default;align=center;verticalAlign=middle;fontFamily=Helvetica;fontSize=11;fontColor=default;endArrow=none;endFill=0;" parent="1" edge="1">
          <mxGeometry relative="1" as="geometry">
            <mxPoint x="230" y="250" as="targetPoint" />
            <mxPoint x="240" y="210" as="sourcePoint" />
            <Array as="points">
              <mxPoint x="230" y="210" />
            </Array>
          </mxGeometry>
        </mxCell>
        <mxCell id="sbGdN3Yiho158-mzq0W8-36" style="edgeStyle=orthogonalEdgeStyle;shape=connector;rounded=0;orthogonalLoop=1;jettySize=auto;html=1;exitX=1;exitY=0.5;exitDx=0;exitDy=0;exitPerimeter=0;labelBackgroundColor=default;strokeColor=default;align=center;verticalAlign=middle;fontFamily=Helvetica;fontSize=11;fontColor=default;endArrow=none;endFill=0;" parent="1" edge="1">
          <mxGeometry relative="1" as="geometry">
            <mxPoint x="290" y="260" as="targetPoint" />
            <mxPoint x="275" y="210" as="sourcePoint" />
            <Array as="points">
              <mxPoint x="290" y="210" />
            </Array>
          </mxGeometry>
        </mxCell>
        <mxCell id="sbGdN3Yiho158-mzq0W8-55" style="edgeStyle=orthogonalEdgeStyle;shape=connector;rounded=0;orthogonalLoop=1;jettySize=auto;html=1;exitX=0;exitY=0.5;exitDx=0;exitDy=0;exitPerimeter=0;labelBackgroundColor=default;strokeColor=default;align=center;verticalAlign=middle;fontFamily=Helvetica;fontSize=11;fontColor=default;endArrow=none;endFill=0;" parent="1" source="sbGdN3Yiho158-mzq0W8-39" edge="1">
          <mxGeometry relative="1" as="geometry">
            <mxPoint x="290" y="210.0196078431373" as="targetPoint" />
          </mxGeometry>
        </mxCell>
        <mxCell id="sbGdN3Yiho158-mzq0W8-59" style="edgeStyle=orthogonalEdgeStyle;shape=connector;rounded=0;orthogonalLoop=1;jettySize=auto;html=1;exitX=1;exitY=0.5;exitDx=0;exitDy=0;exitPerimeter=0;labelBackgroundColor=default;strokeColor=default;align=center;verticalAlign=middle;fontFamily=Helvetica;fontSize=11;fontColor=default;endArrow=none;endFill=0;entryX=0;entryY=0.5;entryDx=0;entryDy=0;entryPerimeter=0;" parent="1" source="sbGdN3Yiho158-mzq0W8-39" target="sbGdN3Yiho158-mzq0W8-40" edge="1">
          <mxGeometry relative="1" as="geometry">
            <mxPoint x="360" y="205" as="targetPoint" />
          </mxGeometry>
        </mxCell>
        <mxCell id="sbGdN3Yiho158-mzq0W8-39" value="$$150\Omega$$" style="pointerEvents=1;verticalLabelPosition=bottom;shadow=0;dashed=0;align=center;html=1;verticalAlign=top;shape=mxgraph.electrical.resistors.resistor_2;rotation=0;movableLabel=1;fontSize=9;" parent="1" vertex="1">
          <mxGeometry x="305" y="205" width="35" height="10" as="geometry">
            <mxPoint x="-1" y="-39" as="offset" />
          </mxGeometry>
        </mxCell>
        <mxCell id="sbGdN3Yiho158-mzq0W8-40" value="$$100\mathrm{nF}$$" style="pointerEvents=1;verticalLabelPosition=bottom;shadow=0;dashed=0;align=center;html=1;verticalAlign=top;shape=mxgraph.electrical.capacitors.capacitor_1;fontFamily=Helvetica;fontSize=11;fontColor=default;rotation=0;container=0;snapToPoint=1;movableLabel=1;direction=south;" parent="1" vertex="1">
          <mxGeometry x="350" y="215" width="15" height="30" as="geometry">
            <mxPoint x="28" y="-40" as="offset" />
          </mxGeometry>
        </mxCell>
        <mxCell id="sbGdN3Yiho158-mzq0W8-47" value="" style="pointerEvents=1;verticalLabelPosition=bottom;shadow=0;dashed=0;align=center;html=1;verticalAlign=top;shape=mxgraph.electrical.signal_sources.signal_ground;fontFamily=Helvetica;fontSize=11;fontColor=default;fillColor=none;" parent="1" vertex="1">
          <mxGeometry x="160" y="215" width="15" height="15" as="geometry" />
        </mxCell>
        <mxCell id="sbGdN3Yiho158-mzq0W8-53" style="edgeStyle=orthogonalEdgeStyle;shape=connector;rounded=0;orthogonalLoop=1;jettySize=auto;html=1;exitX=0;exitY=0.5;exitDx=0;exitDy=0;exitPerimeter=0;labelBackgroundColor=default;strokeColor=default;align=center;verticalAlign=middle;fontFamily=Helvetica;fontSize=11;fontColor=default;endArrow=none;endFill=0;" parent="1" source="sbGdN3Yiho158-mzq0W8-50" edge="1">
          <mxGeometry relative="1" as="geometry">
            <mxPoint x="230" y="209.9772727272727" as="targetPoint" />
          </mxGeometry>
        </mxCell>
        <mxCell id="sbGdN3Yiho158-mzq0W8-54" style="edgeStyle=orthogonalEdgeStyle;shape=connector;rounded=0;orthogonalLoop=1;jettySize=auto;html=1;exitX=1;exitY=0.5;exitDx=0;exitDy=0;exitPerimeter=0;labelBackgroundColor=default;strokeColor=default;align=center;verticalAlign=middle;fontFamily=Helvetica;fontSize=11;fontColor=default;endArrow=none;endFill=0;entryX=0.5;entryY=0;entryDx=0;entryDy=0;entryPerimeter=0;" parent="1" source="sbGdN3Yiho158-mzq0W8-50" target="sbGdN3Yiho158-mzq0W8-47" edge="1">
          <mxGeometry relative="1" as="geometry">
            <mxPoint x="170" y="210.0263157894737" as="targetPoint" />
          </mxGeometry>
        </mxCell>
        <mxCell id="sbGdN3Yiho158-mzq0W8-50" value="$$10\mathrm{k}\Omega$$" style="pointerEvents=1;verticalLabelPosition=bottom;shadow=0;dashed=0;align=center;html=1;verticalAlign=top;shape=mxgraph.electrical.resistors.resistor_2;rotation=0;movableLabel=1;fontSize=9;direction=west;" parent="1" vertex="1">
          <mxGeometry x="185" y="205" width="35" height="10" as="geometry">
            <mxPoint x="-1" y="-38" as="offset" />
          </mxGeometry>
        </mxCell>
        <mxCell id="sbGdN3Yiho158-mzq0W8-67" value="" style="pointerEvents=1;verticalLabelPosition=bottom;shadow=0;dashed=0;align=center;html=1;verticalAlign=top;shape=mxgraph.electrical.signal_sources.signal_ground;fontFamily=Helvetica;fontSize=11;fontColor=default;fillColor=none;" parent="1" vertex="1">
          <mxGeometry x="350" y="265" width="15" height="15" as="geometry" />
        </mxCell>
        <mxCell id="sbGdN3Yiho158-mzq0W8-68" style="edgeStyle=orthogonalEdgeStyle;shape=connector;rounded=0;orthogonalLoop=1;jettySize=auto;html=1;exitX=1;exitY=0.5;exitDx=0;exitDy=0;exitPerimeter=0;entryX=0.5;entryY=0;entryDx=0;entryDy=0;entryPerimeter=0;labelBackgroundColor=default;strokeColor=default;align=center;verticalAlign=middle;fontFamily=Helvetica;fontSize=11;fontColor=default;endArrow=none;endFill=0;" parent="1" source="sbGdN3Yiho158-mzq0W8-40" target="sbGdN3Yiho158-mzq0W8-67" edge="1">
          <mxGeometry relative="1" as="geometry" />
        </mxCell>
        <mxCell id="sbGdN3Yiho158-mzq0W8-78" style="edgeStyle=orthogonalEdgeStyle;shape=connector;rounded=0;orthogonalLoop=1;jettySize=auto;html=1;exitX=0;exitY=0.165;exitDx=0;exitDy=0;exitPerimeter=0;labelBackgroundColor=default;strokeColor=default;align=center;verticalAlign=middle;fontFamily=Helvetica;fontSize=11;fontColor=default;endArrow=none;endFill=0;" parent="1" source="sbGdN3Yiho158-mzq0W8-69" edge="1">
          <mxGeometry relative="1" as="geometry">
            <mxPoint x="458" y="239.91954022988511" as="targetPoint" />
          </mxGeometry>
        </mxCell>
        <mxCell id="sbGdN3Yiho158-mzq0W8-82" style="edgeStyle=orthogonalEdgeStyle;shape=connector;rounded=0;orthogonalLoop=1;jettySize=auto;html=1;exitX=1;exitY=0.5;exitDx=0;exitDy=0;exitPerimeter=0;labelBackgroundColor=default;strokeColor=default;align=center;verticalAlign=middle;fontFamily=Helvetica;fontSize=11;fontColor=default;endArrow=none;endFill=0;" parent="1" source="sbGdN3Yiho158-mzq0W8-69" edge="1">
          <mxGeometry relative="1" as="geometry">
            <mxPoint x="523" y="245" as="targetPoint" />
          </mxGeometry>
        </mxCell>
        <mxCell id="sbGdN3Yiho158-mzq0W8-69" value="" style="verticalLabelPosition=bottom;shadow=0;dashed=0;align=center;html=1;verticalAlign=top;shape=mxgraph.electrical.abstract.operational_amp_1;fillColor=none;" parent="1" vertex="1">
          <mxGeometry x="473" y="235" width="35" height="30" as="geometry" />
        </mxCell>
        <mxCell id="sbGdN3Yiho158-mzq0W8-73" style="edgeStyle=orthogonalEdgeStyle;shape=connector;rounded=0;orthogonalLoop=1;jettySize=auto;html=1;exitX=0.5;exitY=0;exitDx=0;exitDy=0;exitPerimeter=0;labelBackgroundColor=default;strokeColor=default;align=center;verticalAlign=middle;fontFamily=Helvetica;fontSize=11;fontColor=default;endArrow=none;endFill=0;" parent="1" source="sbGdN3Yiho158-mzq0W8-70" edge="1">
          <mxGeometry relative="1" as="geometry">
            <mxPoint x="465.52" y="260" as="targetPoint" />
          </mxGeometry>
        </mxCell>
        <mxCell id="sbGdN3Yiho158-mzq0W8-70" value="" style="pointerEvents=1;verticalLabelPosition=bottom;shadow=0;dashed=0;align=center;html=1;verticalAlign=top;shape=mxgraph.electrical.signal_sources.signal_ground;fontFamily=Helvetica;fontSize=11;fontColor=default;fillColor=none;" parent="1" vertex="1">
          <mxGeometry x="458" y="265" width="15" height="15" as="geometry" />
        </mxCell>
        <mxCell id="sbGdN3Yiho158-mzq0W8-74" style="edgeStyle=orthogonalEdgeStyle;shape=connector;rounded=0;orthogonalLoop=1;jettySize=auto;html=1;exitX=0;exitY=0.835;exitDx=0;exitDy=0;exitPerimeter=0;entryX=0.5;entryY=0;entryDx=0;entryDy=0;entryPerimeter=0;labelBackgroundColor=default;strokeColor=default;align=center;verticalAlign=middle;fontFamily=Helvetica;fontSize=11;fontColor=default;endArrow=none;endFill=0;" parent="1" source="sbGdN3Yiho158-mzq0W8-69" target="sbGdN3Yiho158-mzq0W8-70" edge="1">
          <mxGeometry relative="1" as="geometry" />
        </mxCell>
        <mxCell id="sbGdN3Yiho158-mzq0W8-76" style="edgeStyle=orthogonalEdgeStyle;shape=connector;rounded=0;orthogonalLoop=1;jettySize=auto;html=1;exitX=0;exitY=0.5;exitDx=0;exitDy=0;exitPerimeter=0;labelBackgroundColor=default;strokeColor=default;align=center;verticalAlign=middle;fontFamily=Helvetica;fontSize=11;fontColor=default;endArrow=none;endFill=0;" parent="1" source="sbGdN3Yiho158-mzq0W8-75" edge="1">
          <mxGeometry relative="1" as="geometry">
            <mxPoint x="355" y="210" as="targetPoint" />
          </mxGeometry>
        </mxCell>
        <mxCell id="sbGdN3Yiho158-mzq0W8-77" style="edgeStyle=orthogonalEdgeStyle;shape=connector;rounded=0;orthogonalLoop=1;jettySize=auto;html=1;exitX=1;exitY=0.5;exitDx=0;exitDy=0;exitPerimeter=0;labelBackgroundColor=default;strokeColor=default;align=center;verticalAlign=middle;fontFamily=Helvetica;fontSize=11;fontColor=default;endArrow=none;endFill=0;" parent="1" source="sbGdN3Yiho158-mzq0W8-75" edge="1">
          <mxGeometry relative="1" as="geometry">
            <mxPoint x="458" y="240" as="targetPoint" />
          </mxGeometry>
        </mxCell>
        <mxCell id="sbGdN3Yiho158-mzq0W8-75" value="$$3.3\mathrm{k}\Omega$$" style="pointerEvents=1;verticalLabelPosition=bottom;shadow=0;dashed=0;align=center;html=1;verticalAlign=top;shape=mxgraph.electrical.resistors.resistor_2;rotation=0;movableLabel=1;fontSize=9;" parent="1" vertex="1">
          <mxGeometry x="408" y="205" width="35" height="10" as="geometry">
            <mxPoint x="-2" y="-39" as="offset" />
          </mxGeometry>
        </mxCell>
        <mxCell id="sbGdN3Yiho158-mzq0W8-81" style="edgeStyle=orthogonalEdgeStyle;shape=connector;rounded=0;orthogonalLoop=1;jettySize=auto;html=1;exitX=1;exitY=0.5;exitDx=0;exitDy=0;exitPerimeter=0;labelBackgroundColor=default;strokeColor=default;align=center;verticalAlign=middle;fontFamily=Helvetica;fontSize=11;fontColor=default;endArrow=none;endFill=0;" parent="1" edge="1">
          <mxGeometry relative="1" as="geometry">
            <mxPoint x="523" y="245" as="targetPoint" />
            <mxPoint x="508" y="210" as="sourcePoint" />
          </mxGeometry>
        </mxCell>
        <mxCell id="sbGdN3Yiho158-mzq0W8-110" style="edgeStyle=orthogonalEdgeStyle;shape=connector;rounded=0;orthogonalLoop=1;jettySize=auto;html=1;exitX=0;exitY=0.5;exitDx=0;exitDy=0;exitPerimeter=0;labelBackgroundColor=default;strokeColor=default;align=center;verticalAlign=middle;fontFamily=Helvetica;fontSize=11;fontColor=default;endArrow=none;endFill=0;" parent="1" source="sbGdN3Yiho158-mzq0W8-107" edge="1">
          <mxGeometry relative="1" as="geometry">
            <mxPoint x="523" y="210" as="targetPoint" />
          </mxGeometry>
        </mxCell>
        <mxCell id="sbGdN3Yiho158-mzq0W8-107" value="$$10\mathrm{k}\Omega$$" style="pointerEvents=1;verticalLabelPosition=bottom;shadow=0;dashed=0;align=center;html=1;verticalAlign=top;shape=mxgraph.electrical.resistors.resistor_2;rotation=0;movableLabel=1;fontSize=9;" parent="1" vertex="1">
          <mxGeometry x="558" y="205" width="35" height="10" as="geometry">
            <mxPoint x="-3" y="-41" as="offset" />
          </mxGeometry>
        </mxCell>
        <mxCell id="sbGdN3Yiho158-mzq0W8-117" style="edgeStyle=orthogonalEdgeStyle;shape=connector;rounded=0;orthogonalLoop=1;jettySize=auto;html=1;exitX=1;exitY=0.5;exitDx=0;exitDy=0;exitPerimeter=0;labelBackgroundColor=default;strokeColor=default;align=center;verticalAlign=middle;fontFamily=Helvetica;fontSize=11;fontColor=default;endArrow=none;endFill=0;" parent="1" source="sbGdN3Yiho158-mzq0W8-108" edge="1">
          <mxGeometry relative="1" as="geometry">
            <mxPoint x="658" y="219.94444444444446" as="targetPoint" />
          </mxGeometry>
        </mxCell>
        <mxCell id="sbGdN3Yiho158-mzq0W8-108" value="" style="verticalLabelPosition=bottom;shadow=0;dashed=0;align=center;html=1;verticalAlign=top;shape=mxgraph.electrical.abstract.operational_amp_1;fillColor=none;" parent="1" vertex="1">
          <mxGeometry x="603" y="205" width="35" height="30" as="geometry" />
        </mxCell>
        <mxCell id="sbGdN3Yiho158-mzq0W8-109" style="edgeStyle=orthogonalEdgeStyle;shape=connector;rounded=0;orthogonalLoop=1;jettySize=auto;html=1;exitX=0;exitY=0.165;exitDx=0;exitDy=0;exitPerimeter=0;entryX=0.981;entryY=0.526;entryDx=0;entryDy=0;entryPerimeter=0;labelBackgroundColor=default;strokeColor=default;align=center;verticalAlign=middle;fontFamily=Helvetica;fontSize=11;fontColor=default;endArrow=none;endFill=0;" parent="1" source="sbGdN3Yiho158-mzq0W8-108" target="sbGdN3Yiho158-mzq0W8-107" edge="1">
          <mxGeometry relative="1" as="geometry" />
        </mxCell>
        <mxCell id="sbGdN3Yiho158-mzq0W8-115" style="edgeStyle=orthogonalEdgeStyle;shape=connector;rounded=0;orthogonalLoop=1;jettySize=auto;html=1;exitX=0;exitY=0.5;exitDx=0;exitDy=0;exitPerimeter=0;labelBackgroundColor=default;strokeColor=default;align=center;verticalAlign=middle;fontFamily=Helvetica;fontSize=11;fontColor=default;endArrow=none;endFill=0;" parent="1" source="sbGdN3Yiho158-mzq0W8-112" edge="1">
          <mxGeometry relative="1" as="geometry">
            <mxPoint x="598" y="210" as="targetPoint" />
          </mxGeometry>
        </mxCell>
        <mxCell id="sbGdN3Yiho158-mzq0W8-118" style="edgeStyle=orthogonalEdgeStyle;shape=connector;rounded=0;orthogonalLoop=1;jettySize=auto;html=1;exitX=1;exitY=0.5;exitDx=0;exitDy=0;exitPerimeter=0;labelBackgroundColor=default;strokeColor=default;align=center;verticalAlign=middle;fontFamily=Helvetica;fontSize=11;fontColor=default;endArrow=none;endFill=0;" parent="1" source="sbGdN3Yiho158-mzq0W8-112" edge="1">
          <mxGeometry relative="1" as="geometry">
            <mxPoint x="658" y="220" as="targetPoint" />
          </mxGeometry>
        </mxCell>
        <mxCell id="sbGdN3Yiho158-mzq0W8-112" value="$$10\mathrm{k}\Omega$$" style="pointerEvents=1;verticalLabelPosition=bottom;shadow=0;dashed=0;align=center;html=1;verticalAlign=top;shape=mxgraph.electrical.resistors.resistor_2;rotation=0;movableLabel=1;fontSize=9;" parent="1" vertex="1">
          <mxGeometry x="603" y="175" width="35" height="10" as="geometry">
            <mxPoint x="-3" y="-41" as="offset" />
          </mxGeometry>
        </mxCell>
        <mxCell id="sbGdN3Yiho158-mzq0W8-119" value="$$10\mathrm{k}\Omega$$" style="pointerEvents=1;verticalLabelPosition=bottom;shadow=0;dashed=0;align=center;html=1;verticalAlign=top;shape=mxgraph.electrical.resistors.resistor_2;rotation=0;movableLabel=1;fontSize=9;" parent="1" vertex="1">
          <mxGeometry x="558" y="225" width="35" height="10" as="geometry">
            <mxPoint x="-4" y="-12" as="offset" />
          </mxGeometry>
        </mxCell>
        <mxCell id="sbGdN3Yiho158-mzq0W8-123" style="edgeStyle=orthogonalEdgeStyle;shape=connector;rounded=0;orthogonalLoop=1;jettySize=auto;html=1;exitX=0;exitY=0.5;exitDx=0;exitDy=0;exitPerimeter=0;labelBackgroundColor=default;strokeColor=default;align=center;verticalAlign=middle;fontFamily=Helvetica;fontSize=11;fontColor=default;endArrow=none;endFill=0;" parent="1" source="sbGdN3Yiho158-mzq0W8-121" edge="1">
          <mxGeometry relative="1" as="geometry">
            <mxPoint x="597.9069767441861" y="230" as="targetPoint" />
          </mxGeometry>
        </mxCell>
        <mxCell id="sbGdN3Yiho158-mzq0W8-121" value="$$10\mathrm{k}\Omega$$" style="pointerEvents=1;verticalLabelPosition=bottom;shadow=0;dashed=0;align=center;html=1;verticalAlign=top;shape=mxgraph.electrical.resistors.resistor_2;rotation=0;movableLabel=1;fontSize=9;direction=south;" parent="1" vertex="1">
          <mxGeometry x="593" y="240" width="10" height="35" as="geometry">
            <mxPoint x="19" y="-38" as="offset" />
          </mxGeometry>
        </mxCell>
        <mxCell id="sbGdN3Yiho158-mzq0W8-122" style="edgeStyle=orthogonalEdgeStyle;shape=connector;rounded=0;orthogonalLoop=1;jettySize=auto;html=1;exitX=1;exitY=0.5;exitDx=0;exitDy=0;exitPerimeter=0;entryX=0;entryY=0.835;entryDx=0;entryDy=0;entryPerimeter=0;labelBackgroundColor=default;strokeColor=default;align=center;verticalAlign=middle;fontFamily=Helvetica;fontSize=11;fontColor=default;endArrow=none;endFill=0;" parent="1" source="sbGdN3Yiho158-mzq0W8-119" target="sbGdN3Yiho158-mzq0W8-108" edge="1">
          <mxGeometry relative="1" as="geometry" />
        </mxCell>
        <mxCell id="sbGdN3Yiho158-mzq0W8-124" value="" style="pointerEvents=1;verticalLabelPosition=bottom;shadow=0;dashed=0;align=center;html=1;verticalAlign=top;shape=mxgraph.electrical.signal_sources.signal_ground;fontFamily=Helvetica;fontSize=11;fontColor=default;fillColor=none;" parent="1" vertex="1">
          <mxGeometry x="590.5" y="285" width="15" height="15" as="geometry" />
        </mxCell>
        <mxCell id="sbGdN3Yiho158-mzq0W8-125" style="edgeStyle=orthogonalEdgeStyle;shape=connector;rounded=0;orthogonalLoop=1;jettySize=auto;html=1;exitX=0.5;exitY=0;exitDx=0;exitDy=0;exitPerimeter=0;entryX=1;entryY=0.5;entryDx=0;entryDy=0;entryPerimeter=0;labelBackgroundColor=default;strokeColor=default;align=center;verticalAlign=middle;fontFamily=Helvetica;fontSize=11;fontColor=default;endArrow=none;endFill=0;" parent="1" source="sbGdN3Yiho158-mzq0W8-124" target="sbGdN3Yiho158-mzq0W8-121" edge="1">
          <mxGeometry relative="1" as="geometry" />
        </mxCell>
        <mxCell id="sbGdN3Yiho158-mzq0W8-126" value="$$3.3V$$" style="verticalLabelPosition=top;verticalAlign=bottom;shape=mxgraph.electrical.signal_sources.vdd;shadow=0;dashed=0;align=center;strokeWidth=1;fontSize=7;html=1;flipV=1;fontFamily=Helvetica;fontColor=default;movableLabel=1;" parent="1" vertex="1">
          <mxGeometry x="253.9" y="240" width="15" height="5" as="geometry">
            <mxPoint y="10" as="offset" />
          </mxGeometry>
        </mxCell>
        <mxCell id="sbGdN3Yiho158-mzq0W8-128" style="edgeStyle=orthogonalEdgeStyle;shape=connector;rounded=0;orthogonalLoop=1;jettySize=auto;html=1;exitX=0.5;exitY=0;exitDx=0;exitDy=0;exitPerimeter=0;entryX=0.612;entryY=0.11;entryDx=0;entryDy=0;entryPerimeter=0;labelBackgroundColor=default;strokeColor=default;align=center;verticalAlign=middle;fontFamily=Helvetica;fontSize=11;fontColor=default;endArrow=none;endFill=0;" parent="1" source="sbGdN3Yiho158-mzq0W8-126" target="sbGdN3Yiho158-mzq0W8-1" edge="1">
          <mxGeometry relative="1" as="geometry" />
        </mxCell>
        <mxCell id="sbGdN3Yiho158-mzq0W8-132" value="$$-3.3V$$" style="verticalLabelPosition=top;verticalAlign=bottom;shape=mxgraph.electrical.signal_sources.vdd;shadow=0;dashed=0;align=center;strokeWidth=1;fontSize=7;html=1;flipV=1;fontFamily=Helvetica;fontColor=default;rotation=0;direction=west;movableLabel=1;" parent="1" vertex="1">
          <mxGeometry x="254.4" y="275" width="14" height="8.5" as="geometry">
            <mxPoint x="-2" y="27" as="offset" />
          </mxGeometry>
        </mxCell>
        <mxCell id="sbGdN3Yiho158-mzq0W8-138" style="edgeStyle=orthogonalEdgeStyle;shape=connector;rounded=0;orthogonalLoop=1;jettySize=auto;html=1;exitX=0.5;exitY=0;exitDx=0;exitDy=0;exitPerimeter=0;entryX=0.612;entryY=0.89;entryDx=0;entryDy=0;entryPerimeter=0;labelBackgroundColor=default;strokeColor=default;align=center;verticalAlign=middle;fontFamily=Helvetica;fontSize=11;fontColor=default;endArrow=none;endFill=0;" parent="1" source="sbGdN3Yiho158-mzq0W8-132" target="sbGdN3Yiho158-mzq0W8-1" edge="1">
          <mxGeometry relative="1" as="geometry" />
        </mxCell>
        <mxCell id="sbGdN3Yiho158-mzq0W8-155" value="GRD" style="text;html=1;strokeColor=none;fillColor=none;align=center;verticalAlign=middle;whiteSpace=wrap;rounded=0;fontSize=7;fontFamily=Helvetica;fontColor=default;" parent="1" vertex="1">
          <mxGeometry x="242" y="257" width="17" height="8" as="geometry" />
        </mxCell>
        <mxCell id="sbGdN3Yiho158-mzq0W8-156" value="Electrodos" style="text;html=1;strokeColor=none;fillColor=none;align=center;verticalAlign=middle;whiteSpace=wrap;rounded=0;fontSize=12;fontFamily=Helvetica;fontColor=default;fontStyle=2" parent="1" vertex="1">
          <mxGeometry x="104.5" y="252.5" width="35" height="4.5" as="geometry" />
        </mxCell>
        <mxCell id="sbGdN3Yiho158-mzq0W8-169" value="$$3.3V$$" style="verticalLabelPosition=top;verticalAlign=bottom;shape=mxgraph.electrical.signal_sources.vdd;shadow=0;dashed=0;align=center;strokeWidth=1;fontSize=7;html=1;flipV=1;fontFamily=Helvetica;fontColor=default;movableLabel=1;" parent="1" vertex="1">
          <mxGeometry x="487" y="234" width="15" height="5" as="geometry">
            <mxPoint y="10" as="offset" />
          </mxGeometry>
        </mxCell>
        <mxCell id="sbGdN3Yiho158-mzq0W8-171" value="$$-3.3V$$" style="verticalLabelPosition=top;verticalAlign=bottom;shape=mxgraph.electrical.signal_sources.vdd;shadow=0;dashed=0;align=center;strokeWidth=1;fontSize=7;html=1;flipV=1;fontFamily=Helvetica;fontColor=default;rotation=0;direction=west;movableLabel=1;" parent="1" vertex="1">
          <mxGeometry x="487.5" y="260" width="14" height="8.5" as="geometry">
            <mxPoint x="-2" y="27" as="offset" />
          </mxGeometry>
        </mxCell>
        <mxCell id="sbGdN3Yiho158-mzq0W8-172" value="$$-3.3V$$" style="verticalLabelPosition=top;verticalAlign=bottom;shape=mxgraph.electrical.signal_sources.vdd;shadow=0;dashed=0;align=center;strokeWidth=1;fontSize=7;html=1;flipV=1;fontFamily=Helvetica;fontColor=default;rotation=0;direction=west;movableLabel=1;" parent="1" vertex="1">
          <mxGeometry x="617" y="229" width="15" height="8" as="geometry">
            <mxPoint x="-2" y="27" as="offset" />
          </mxGeometry>
        </mxCell>
        <mxCell id="sbGdN3Yiho158-mzq0W8-173" value="$$3.3V$$" style="verticalLabelPosition=top;verticalAlign=bottom;shape=mxgraph.electrical.signal_sources.vdd;shadow=0;dashed=0;align=center;strokeWidth=1;fontSize=7;html=1;flipV=1;fontFamily=Helvetica;fontColor=default;movableLabel=1;" parent="1" vertex="1">
          <mxGeometry x="617" y="204" width="15" height="5" as="geometry">
            <mxPoint y="10" as="offset" />
          </mxGeometry>
        </mxCell>
        <mxCell id="sbGdN3Yiho158-mzq0W8-174" value="$$1.65V$$" style="verticalLabelPosition=top;verticalAlign=bottom;shape=mxgraph.electrical.signal_sources.vdd;shadow=0;dashed=0;align=center;strokeWidth=1;fontSize=7;html=1;flipV=1;fontFamily=Helvetica;fontColor=default;movableLabel=1;direction=south;" parent="1" vertex="1">
          <mxGeometry x="553" y="225.5" width="5" height="9" as="geometry">
            <mxPoint x="-16" y="19" as="offset" />
          </mxGeometry>
        </mxCell>
        <mxCell id="sbGdN3Yiho158-mzq0W8-184" value="Ganancia Inicial" style="text;html=1;strokeColor=none;fillColor=none;align=center;verticalAlign=middle;whiteSpace=wrap;rounded=0;fontSize=11;fontFamily=Helvetica;fontColor=#CC0000;" parent="1" vertex="1">
          <mxGeometry x="199" y="156" width="60" height="30" as="geometry" />
        </mxCell>
        <mxCell id="sbGdN3Yiho158-mzq0W8-185" value="Filtro de altas&lt;br&gt;frecuencias" style="text;html=1;strokeColor=none;fillColor=none;align=center;verticalAlign=middle;whiteSpace=wrap;rounded=0;fontSize=11;fontFamily=Helvetica;fontColor=#666600;" parent="1" vertex="1">
          <mxGeometry x="318.5" y="158" width="78" height="30" as="geometry" />
        </mxCell>
        <mxCell id="sbGdN3Yiho158-mzq0W8-186" value="Ganancia&lt;br&gt;Variable" style="text;html=1;strokeColor=none;fillColor=none;align=center;verticalAlign=middle;whiteSpace=wrap;rounded=0;fontSize=11;fontFamily=Helvetica;fontColor=#009900;" parent="1" vertex="1">
          <mxGeometry x="435.5" y="158" width="60" height="30" as="geometry" />
        </mxCell>
        <mxCell id="sbGdN3Yiho158-mzq0W8-187" value="Offset" style="text;html=1;strokeColor=none;fillColor=none;align=center;verticalAlign=middle;whiteSpace=wrap;rounded=0;fontSize=11;fontFamily=Helvetica;fontColor=#0000FF;" parent="1" vertex="1">
          <mxGeometry x="533" y="158" width="60" height="30" as="geometry" />
        </mxCell>
        <mxCell id="sbGdN3Yiho158-mzq0W8-191" value="ADA4530" style="text;html=1;strokeColor=none;fillColor=none;align=center;verticalAlign=middle;whiteSpace=wrap;rounded=0;fontSize=11;fontFamily=Helvetica;fontColor=default;" parent="1" vertex="1">
          <mxGeometry x="199" y="271.62" width="38" height="15.25" as="geometry" />
        </mxCell>
        <mxCell id="sbGdN3Yiho158-mzq0W8-192" value="TLC2272" style="text;html=1;strokeColor=none;fillColor=none;align=center;verticalAlign=middle;whiteSpace=wrap;rounded=0;fontSize=11;fontFamily=Helvetica;fontColor=default;" parent="1" vertex="1">
          <mxGeometry x="427" y="242.38" width="38" height="15.25" as="geometry" />
        </mxCell>
        <mxCell id="sbGdN3Yiho158-mzq0W8-193" value="TLC2272" style="text;html=1;strokeColor=none;fillColor=none;align=center;verticalAlign=middle;whiteSpace=wrap;rounded=0;fontSize=11;fontFamily=Helvetica;fontColor=default;" parent="1" vertex="1">
          <mxGeometry x="632" y="221.75" width="38" height="15.25" as="geometry" />
        </mxCell>
        <mxCell id="sbGdN3Yiho158-mzq0W8-194" value="Modulo Analogico&lt;br&gt;(GIBIO)" style="rounded=0;whiteSpace=wrap;html=1;fontFamily=Helvetica;fontSize=11;fillColor=#d5e8d4;strokeColor=#82b366;" parent="1" vertex="1">
          <mxGeometry x="268.4" y="385" width="80" height="60" as="geometry" />
        </mxCell>
        <mxCell id="sbGdN3Yiho158-mzq0W8-208" style="edgeStyle=orthogonalEdgeStyle;shape=connector;rounded=0;orthogonalLoop=1;jettySize=auto;html=1;exitX=1;exitY=0.5;exitDx=0;exitDy=0;entryX=0;entryY=0.75;entryDx=0;entryDy=0;labelBackgroundColor=default;strokeColor=default;align=center;verticalAlign=middle;fontFamily=Helvetica;fontSize=11;fontColor=default;endArrow=none;endFill=0;" parent="1" source="sbGdN3Yiho158-mzq0W8-195" target="sbGdN3Yiho158-mzq0W8-194" edge="1">
          <mxGeometry relative="1" as="geometry" />
        </mxCell>
        <mxCell id="sbGdN3Yiho158-mzq0W8-195" value="" style="ellipse;whiteSpace=wrap;html=1;fontFamily=Helvetica;fontSize=11;fontColor=default;fillColor=none;" parent="1" vertex="1">
          <mxGeometry x="230" y="425" width="10" height="10" as="geometry" />
        </mxCell>
        <mxCell id="sbGdN3Yiho158-mzq0W8-207" style="edgeStyle=orthogonalEdgeStyle;shape=connector;rounded=0;orthogonalLoop=1;jettySize=auto;html=1;exitX=1;exitY=0.5;exitDx=0;exitDy=0;entryX=0;entryY=0.25;entryDx=0;entryDy=0;labelBackgroundColor=default;strokeColor=default;align=center;verticalAlign=middle;fontFamily=Helvetica;fontSize=11;fontColor=default;endArrow=none;endFill=0;" parent="1" source="sbGdN3Yiho158-mzq0W8-196" target="sbGdN3Yiho158-mzq0W8-194" edge="1">
          <mxGeometry relative="1" as="geometry" />
        </mxCell>
        <mxCell id="sbGdN3Yiho158-mzq0W8-196" value="" style="ellipse;whiteSpace=wrap;html=1;fontFamily=Helvetica;fontSize=11;fontColor=default;fillColor=none;" parent="1" vertex="1">
          <mxGeometry x="230" y="395" width="10" height="10" as="geometry" />
        </mxCell>
        <mxCell id="sbGdN3Yiho158-mzq0W8-197" value="Electrodos" style="text;html=1;strokeColor=none;fillColor=none;align=center;verticalAlign=middle;whiteSpace=wrap;rounded=0;fontSize=12;fontFamily=Helvetica;fontColor=default;" parent="1" vertex="1">
          <mxGeometry x="195" y="412.75" width="35" height="4.5" as="geometry" />
        </mxCell>
        <mxCell id="sbGdN3Yiho158-mzq0W8-205" style="edgeStyle=orthogonalEdgeStyle;shape=connector;rounded=0;orthogonalLoop=1;jettySize=auto;html=1;exitX=0;exitY=0.5;exitDx=0;exitDy=0;exitPerimeter=0;entryX=0;entryY=0.5;entryDx=0;entryDy=0;labelBackgroundColor=default;strokeColor=default;align=center;verticalAlign=middle;fontFamily=Helvetica;fontSize=11;fontColor=default;endArrow=classic;endFill=1;" parent="1" source="sbGdN3Yiho158-mzq0W8-201" target="sbGdN3Yiho158-mzq0W8-202" edge="1">
          <mxGeometry relative="1" as="geometry" />
        </mxCell>
        <mxCell id="sbGdN3Yiho158-mzq0W8-201" value="ADS1115" style="verticalLabelPosition=bottom;shadow=0;dashed=0;align=center;html=1;verticalAlign=top;shape=mxgraph.electrical.abstract.dac;fontFamily=Helvetica;fontSize=11;fillColor=#dae8fc;strokeColor=#6c8ebf;movableLabel=1;direction=west;" parent="1" vertex="1">
          <mxGeometry x="380" y="392" width="70" height="46" as="geometry">
            <mxPoint x="3" y="-36" as="offset" />
          </mxGeometry>
        </mxCell>
        <mxCell id="sbGdN3Yiho158-mzq0W8-202" value="STM32 Nucelo F401-RE" style="rounded=0;whiteSpace=wrap;html=1;fontFamily=Helvetica;fontSize=11;fillColor=#fff2cc;strokeColor=#d6b656;" parent="1" vertex="1">
          <mxGeometry x="485" y="385" width="80" height="60" as="geometry" />
        </mxCell>
        <mxCell id="sbGdN3Yiho158-mzq0W8-203" value="PC" style="rounded=0;whiteSpace=wrap;html=1;fontFamily=Helvetica;fontSize=11;fillColor=#e1d5e7;strokeColor=#9673a6;" parent="1" vertex="1">
          <mxGeometry x="617" y="385" width="80" height="60" as="geometry" />
        </mxCell>
        <mxCell id="sbGdN3Yiho158-mzq0W8-204" style="edgeStyle=orthogonalEdgeStyle;shape=connector;rounded=0;orthogonalLoop=1;jettySize=auto;html=1;exitX=1;exitY=0.5;exitDx=0;exitDy=0;entryX=1;entryY=0.5;entryDx=0;entryDy=0;entryPerimeter=0;labelBackgroundColor=default;strokeColor=default;align=center;verticalAlign=middle;fontFamily=Helvetica;fontSize=11;fontColor=default;endArrow=classic;endFill=1;" parent="1" source="sbGdN3Yiho158-mzq0W8-194" target="sbGdN3Yiho158-mzq0W8-201" edge="1">
          <mxGeometry relative="1" as="geometry" />
        </mxCell>
        <mxCell id="sbGdN3Yiho158-mzq0W8-206" style="edgeStyle=orthogonalEdgeStyle;shape=connector;rounded=0;orthogonalLoop=1;jettySize=auto;html=1;exitX=0;exitY=0.5;exitDx=0;exitDy=0;exitPerimeter=0;labelBackgroundColor=default;strokeColor=default;align=center;verticalAlign=middle;fontFamily=Helvetica;fontSize=11;fontColor=default;endArrow=classic;endFill=1;" parent="1" edge="1">
          <mxGeometry relative="1" as="geometry">
            <mxPoint x="565" y="415" as="sourcePoint" />
            <mxPoint x="615" y="415" as="targetPoint" />
          </mxGeometry>
        </mxCell>
        <mxCell id="sbGdN3Yiho158-mzq0W8-209" value="I²C" style="text;html=1;strokeColor=none;fillColor=none;align=center;verticalAlign=middle;whiteSpace=wrap;rounded=0;fontSize=11;fontFamily=Helvetica;fontColor=default;" parent="1" vertex="1">
          <mxGeometry x="449" y="395" width="38" height="15.25" as="geometry" />
        </mxCell>
        <mxCell id="sbGdN3Yiho158-mzq0W8-210" value="USB" style="text;html=1;strokeColor=none;fillColor=none;align=center;verticalAlign=middle;whiteSpace=wrap;rounded=0;fontSize=11;fontFamily=Helvetica;fontColor=default;" parent="1" vertex="1">
          <mxGeometry x="570" y="395" width="38" height="15.25" as="geometry" />
        </mxCell>
        <mxCell id="sbGdN3Yiho158-mzq0W8-211" value="" style="shape=image;verticalLabelPosition=bottom;labelBackgroundColor=default;verticalAlign=top;aspect=fixed;imageAspect=0;image=data:image/png,iVBORw0KGgoAAAANSUhEUgAAAxcAAAHbCAIAAAA29/CNAAAACXBIWXMAAA7EAAAOxAGVKw4bAAAgAElEQVR4nOzdd1gT5wMH8PeygIQtKAIiCgi4J+5B3VpnxVn31qp11frrsGqrtVate9c9cdW990TcE0FUlD1kJozk7vcHipCEkBwXksD38/Tpg1n33uXe97733ntvqNDQUAIAAAAAOuIZugAAAAAAJgkpCgAAAIANpCgAAAAANpCiAAAAANhAigIAAABgAykKAAAAgA2kKAAAAAA2kKIAAAAA2ECKAgAAAGBDYOgCAAAYMdmLY1vOv5EzPKs6vYa2dsGJJwDkgyYBWJG9Obtq5redm9ev6VOtmpeXl0/reXeyYk//r0vD+l9N2PtGYbiSyR8saufj5eXbfVWIAUuhjZzrPzf19vKqPmBbJG3ospRmijcb+/h6efm0mndHnveg/NXO0W3qNeo292ICo/HN4bvn/vTPipWrt9/lV6pgnO3ll8ro61urYcuu3/6w1wj2fW23sGbMxyu/9/Sr13rk1hfZ3JXtC+mxCTW9vLxqTjgm1cfHQxmAvijTpEgJvXbi+Llrd5+EvIlMSM3IJiKJtX1FN89qtRo0afFV+xbednr8arNebhr17eKgFJoQiqIIIYRn06RlbfLof8fDUmTM5ZO3EvtVKU/prwDGK+faTy1G7U8qNBUJqk/979CEavySLBOoomNvnbgRmZ5DHT39ePZXX4kKe1nkoYVrH8iImefApcsGVzXG5lK5MqbEhD7+KLDnKu9lHB3fePr5rHyPUDy+yNzS1qmyV40Gzb/q2qNDHUd1m0/LLVwU+bNzJ158TKdvHrseOdi3CioOGB1jbBZAI3nsrX//mLfu7Os0Rf5TPFlqQmRqQmTI/SvHti3fOGrPyVn1hPopAJNw8p81d1NonkOLqcv+GOrnJMhMif/IOFgI41u3rnDmXFZ9/wblymSEMmJ0/K3d+59U6DqyvTsORIQQXvlG/rVtHjyx9G9To9BGkI49tmDp1VSea9cFG39qZW+M+zSTcHJ5vsrYqDxJjgz7QLs76K+wDK3IkqbEhj+ODX98/djWf1yaD/957nft3MwKvkyrLVw0gXerVi5H/kv1bdvYucCem/3qxKZz0ibf9qlvY4xfDJQdSFGmRfps25SxC6/EKhiKb+vj372rv19ND+dyEn5ORnL8+7Dnj+7euHLjuV2fPrX1FKEIIZkPrgenM0RQa9gvo5s48wkhYjtnMSGEuPRceblLFhGZlfkDNd9r6OqlfSupdghQ5g6VDbB1mIQL6xeteNqlxjCkqFzC6mP23hmWTUSiwrYHk3h64cILGe69Fm/8/WtXI20pMx9ev1uwMparXKsc98sR+s069PfXthQhhFHkyFJjI149uXPx6JFzzxIir6//ru/jGRvXjqolLvCWIrewNijHDovOP5hPC0SCAmEp5+G+xSt2O4q+7l3fBns0GJKRtg2gDh117MdxC6/EKoiFZ6+fl/zcp7p1gcN0g2Ztew6ZxGSmpBI9Nix0ckyslCE8q2q+lVSXwheZqXlPmUOZlXP3quZhLM07k3LryoMsRn/J2jTxRZquM1Hluvxzu0uJFYYVOjlaQ2XkEGVm7ejklNfF7FKpqm/DNj2GfffqyB/TfjsQknjr74lz3A791UGpD0zzFtYWTyhSPh9RvLh6PUZBHDn4dIDiMc7RkqAGE39y4R9nYhRE4N53+Y4/+ypFqDyUuY2NuT7LIZPKGEIocwsz9KSbhpzosyeDZMUY4gtGisk0aGWkJNV6/bF1ae9KfKKIPrZgxc0SGqFNpz04demd4QfQAxD0RZkORcie9eeTaMJ36z93tr+DDvFX8XTp133Wvq35w8l9o6vQ0Te2Llu17/LTD8lZxH30/lMza/MJIfKkl5ePHzt3LejB8zcxH9Nz+JJyrtUa+PceMap3HftPJ7l0XPD+nftOnLp4952cEBK941vfHYQQQvguQ3ac/6WRQPFqTe8ey54zbiN2n5ldv+CuxUjfXtm/88CZG49CPySkK4SWDq6e1es17/rt0K99rT8dABjZh7unj566eCv4yasPCSky2szGqWqtZp0HjR7sX9lCdcVk7y7u2Lj7xPXHb+PSFBYOVWq16jFywuCmQmHhe3VOXPChbXtOXr338kNCahbf2smjdtP2vYcM6uitlEm12Wj6pEh+dmLrlgPn7zx7lyBlxA6Vqzfu0HfksK6+Nmq+eTrl5dm9uw+fv/3kdVSSlDGzcXTzrNmgVc+hQ9pVeHfo7wUrDtyOlDGEpBwaXePQp/cIak47fmC8B1/rNdV6033C6TeuZSFzYm7t2bD9vysPwmNSskV2lXybdhk6YVQ7c6GQIqRgisy5/nOrkfsS+A1/PrdrqNL0BUz663O7tx0+d/vxm5iPUsbC3tW7QZtuA4f0blxRbU+r4uOjQxs2H7wQ/Co6RW5ezq16044Bw4Z08TW/PLPZuP+yO6+8t7yjSIcVyYp7dP7o8fM37j0JeRf3MSNHaFm+cg2/9gGjhnf1tsrddHRc8P5d+0+duhj0Vn1lZLsuOqMcvvphesdL004mRR3bdnpSs96OVJFbmEkPObF5474zt198+JgtsnWu5te21+DhvevbPlrYYeC/sY3nXdo64NPdKXTktkHtfw9WOPTbfPX3FkJCx1xf9+dfW06/TFYQQh4uauez6FM5JN1WBy1t/2k7a9OgAXACKcpEKF6cPBUqZyhhnYHDmkhYfACTGJ8oC701ffi8S7GfhqWLKrpW5BFCSPr52V0mHkmkCSGEovgCAclKiw0LPhl27/y5Ryv3zv+qHEUIUbw4seXo3SxiYSlMS8kmfImDk62IEEJ4Traaz4RlIXt+mLDgTERm3oFMnhIdei/69WuLVkO7+X5aw7AN3/ZY8jibIYQQiicQ8mhZ0vunV/Y9vXb62qxdm0Z452/1FTEX5o2auickr4clJ+bljf0ht86cHze7sTVP+ZhJCCHyqPMLJ8zc+Sz9yw10Se+fXH7/5MrhPa2nr1o6oraV8lpo2mj6w2Q83jJl4uKrMXKGEIrH55G0mFe3/3t159Th079sXNLfK39XI5Nyf8P3k/65ESfPW2NpUuTLoMjQyApdhn8lfHj+agSxsTHLTM4iPLF9RbtPb+Y7WuWv/JrXVOdNp4dvvKhCMsl3/hk7cd39lM9lzI5/fffoyuDz5wbO7WbJI0S72SSY9Cfbpk9cdCn6y/bMiQ27ezLs7ul9ewf8uebnDi4FG82ssD1Ths27GPv59ZnRITcPhdw6ceTivLneETKGqDlma1oRJi5wYoefrmR82ip8AZ9kpka9vHnk5a0zF0P+3TmtoSWVWxn/C8oi5hJhaqGVUed1YYeyb9unXbnT++Mzgi7cTu3VrYjR3orIE/8bNuvw26xPhZLFvb57/HXwqSNnZi9r9za+iK9J8ebaqYepEjtxWmKGgohsyjtafloHsb3F5wVr16ABcAIpyjTQMfeD3ykIEXi3ae3K6iBOJ4af+PO7fZdSnJoMHtbvq1qVrBSplFtua2LZuGNb74hM/17d2rWs7+tsLaAzPtw7+Pf//jz57u2BPzcHtPqhjoAQYes5Zy7PIYo3G/t1+esRU773svO/Ni56B2KSLswdO/dMpIKy9Oo8Ykw//9qVbPkZsW+eP7h1T/FVK+vPr+NXadep4XH7qj16dG7TuFYVRwtedlLIhY2//frvveQ7q5ae6LYu7yyXyEO3fD99T4iMCF38J/7v+z7NvRwE0piQO0c3/L1m3ZxnQjlROXZlBC8Z8/2OkCzKpkafiZMHtqvjbieQxoTcPrbxn81XPlz+a+wPdgdW91bqlNC00fSFjjv50/i/rsQxVjX7/TB7bJf6rlZMytvbB5f8tvRsxLl5k5Z7Hp7V8HM/jSLy4A8Tll5PZPh2tXuNGdmzua+zJUmLDnsafPuZde/6Ip6g/5rz/enYXcP8f7slt+r059lFbdSOVNG0prpuOn1840UVko46NGvSuvspDN/Bb/iPM7/1r+5kkZ3wOvj0lqX/7PlppVBOEW2+NUXkoemjF15MZEQurUZMGdujmbeTWJ787vGFvStXBj55vnv6OMnWfTMbfBlFnXFn8YR5F2PllKVPr6k/jOxUx9k8KyH8/tkdK9ce/3niBUrNnljE1qYcWnVsUS3bukvPrl81q+vlJOHLU95c3/XHzyuuxj7f8tfe3ntGVeFrUxl1Xhf2zOv41TYLvCDLfPH0taJbfU2NQs6L9ZNnH36bRczdO0ycNbF7IzcrefK7xxf3rV4VuHB0sCiLIRqH7wmbzj52eXbO7d/8h+6K5VUft2vvKNXbNbRr0AA4gX3JNCgiwiMUhFBiT2+Wo0gZ2ZWd+yV1xm3ZPLWhysmiVbs/jrbL92++xNVvyIJfQu6O2R/3/sb1cEUd1jMcZT/Y8OeRSAUx8x2xcecPDT9fy3Gt7NOgTe8Cr+R7jN52bHS+B0T2Pp1nLo550HHhvfS71+7LenfMbfGZ1IvrNj3IYCiLhtM2rhrllRsLbFxqdxi/vLrNqO6/Xc8iShSvdy7c/iqLCDwHr97+U+NPpbDy9OsxtUHDypP6zD6XcPHvZRfaLm5fYNto3GiaMNkpURHvBCp5lycu7+pooemTZHfWLj4dp+C79l26ZX4b29yX2lZpOXLZalnfb1Y8Dd+15r9hm/pX4BFCmLTLy5deTqQpS78Z2zeP8vncR1WpSnW/9jqUlmhaU503nR6+8SILmX1/y+orH2lKWG34qg2zGuR21ooq+LQZ+met8tndvj8er7ZPSHkjpF5evuRyIs2zbf3L9nX93T61jpY1/YfOb1TTZsCQjS9Dtv6xrWfgeK/cD6PfH1y+762c4Tv3/Gvrn+0/xWvLuh3H1GniK/lm9N53jNrwpnG/4lUIWHU8IN8DApsqbcb/NeNJ2x/OZzy7djtpZBXHovdFndelWMSubg488p6Oj4zO0XRUYZJOr/r3qYzh2fn/unVFgAv/c6GG1GxS137AwLXPuBm9p8cGDUAJRpebBiYtJY0hhGdjb6tS+7NPT67ppaTmpJOZyq+jRLXGLZysfRqwqF3XR0AIHRcdx35q7ezgw8ciFIRXruv33+UdUHXAq1i7thOPMJkxMR8/l0J2+/SVJJrwHLqOHehVsGeF79prWCfVQWOKl0f/e5bNUJI2Yyf4KZWC79Jj6mBfAaETzu4/n6TciOu60T4v8NXmER3aqeo875JKwitAeuPg8WgFJao3dHwr2wILFVbr06e+kGIygy/cSGEIIYRJu3L4XAJN+O79Zwz1Ke4dBYWsqc6bTh/feFGFlD8+fS5KQShxy1Gj6he83k2Vaz+8t3azOzCpVw+dS6AJv0r/yX3cCkYByrL+2O862PKY7OcHDz35NAU6/eHciYdZDCWqN2xS24I9lJRN87FDGooKXX1d9yvKpnbdqnzCKOKiY7WpjTqvS/FQltaWFCEMLc2QashBTPKVE9dTacKv2n9yL5eCX4pFrRGj/FWuqXOJkwYNQBlSlMnIbZwY1udqlKhhn96eOnQ+UuZiC4oQJisrm/VCFW8fPEqiCSVu7M9qNBchlFhsQQhhsvNKoXjz7EU6Qyhxo9Z+qpcjLOo3qaN88KITHj54qyBEWKd1czvVdppftXVrdz5hsh4GPclRWrquG62Y5C/u3k+jCc/dz09l9BXPwdOrHI8w2W9Cc29PUry8/1jGEH75Fv61ij2JQSFrqvOm08c3XmQhY58/j/tUSNW5MQU+jRvaatPQyV8EP5IyhO/UvFV11a+csm72VSMziigig4M/5N4elvn0wUs5Q/heLVs4q3Y7Ovk1ci9ssbrvV5SF2IIihKjZKpysSzExdG7LxONp2tLylw+fZDKEX6FZSx+VUlFWDRv76rOqcdGgAajAFT3TQFlaWlJERqcmp6qcRgmbztx3aHTuw0zS6bnjNjxWd37Jc6zmVej0y7L3N/87cPxS0ONXb6MSkqVZCkVeXCvW2SEd8yGGJoTn7K48tbEaiqRnZw8dPnPt/vPw97FJaZk5NJ1Xinw7qiI+Jp4mhFdR/WdaVHQuxyOR+R9iYiJjaEJ4tpXdbNWtDr9SFTcBCcvKiPyQRBOnfMcBjRtNg7w74HSUGfk+jiaEebWmh8+aQl7Dy0hLZwghRBYVlaQgRFjJXc30nroqZE113nT6+MaLKiQdHx1PE8KzcausJukRfkUXJx5JLPLIKYuOSqYJEbpWUb89xZXdnXjkDR31Poom7nxCx0fF5jCEErhWdlXzTfOcXCvySYjabg+N+xWdGnb5yMFTV+4+DXsfk5gizc63VbTdo3Rdl2Jikj8mM4RQQitrsYbqIouJTqEJEVZyVze4k2fv7GxBkRzVZ3SnrwYNQAVSlGngVXRz5pF4eUZ4WKTCv+CvSVE2lWrUqpT7Nx37WFJYK2FuYa72KVnInpnj/zj7Pouh+JZOHl71a9pbigQUReTR9y8/LuqeGc2YzMxMhhCehUTNTAX50fFXF0+YtuVRioJQZraVvWr4OdqIRXyKMCmvrt95U2AemqysbEIIJbZU+5mU6rKYrKwsQghlYVHIkCRzsQWPIoTJlCnPqlTYRtMPRiaVMgwhlFBiLREWsmCelQWfkLxtSyixRONIKy2pX1OdN51evvEiCkk+FVIsUXsIpywkFiozHahisrKyGEIIZVHYd24uNqcIobNkubeXMVlZmQwhRCQWq4shlKZ9p7DnmNT76ydNWn4rTs5QQhsXT5+GtW0lZnyKENm7O9dfJhexDqzXpXiYpPDwJJoQvrObprv+mKzMT6USq92bckubWtzS6LNBA1CBFGUa+K61azvyH0UrXt28kziKy1/6zQxePmne2fcKvnP7H5bMHdTwyy+LMimHxjZ7fKl4jY5IJCJExmRKNQ4HoqMP/m/avw9TiFXtoQv++r6Dh2Xeqar84aLO/Te9LfCZZiJCZExWptrPZOQ5yl1xlIXYnBDCSDPUTz3JyNKlitzJC7nII+xRZmYiihAiaDDzxLZBFYroYRLlTgzNZMoyGX2dYuu+6fTxjRfFzExECGEyM9VGAiYnR65FVKAsLMQURQgjzZAyRE3PGyNNlzGEUGafp7gUmZkRQkh2ZqbaSkIrdL1YxqRc/GPyPzfjaHOP3nOWzO5V48soSMW7Tf07vXyoZeTRfV2Kg0m+ff1xDiE8m1p1q2rq1xKZ5e6xuWlKdcEKnbeYKj03aADKMC7KRAhr+7d24BEmM2j/wTAOJ+3NCjp05J2c4Tl0n7NoeMMCP87+6ehcLPzyThV4hNDR7yKyC38VHXn64I0UmhLWGv/37E75DqhEXf8Q36F8OR4hdPT7KHVXLhVJCcqjknnObq4CitDJ794kqWtD6Xfh7xSE8MQuLnaGrRFiZ1d7PiF0RHjRMzNTYqcKNjxC6PdvP+jtyKDzptPHN15kIR3KO/IIYZIjIzPUvJNJSlC5a0Adc9dK5XmE0BFvItRu/Ix3b2NpQngVK+WOguI7OJUXUoSRR36IVvMG+mOS6vB4jZjUywdOxSkI3/3bhfP61Ch4I4lMp9qo67oUh+LtwV3XMhjCs2vVvpGmHkhKXMHJhkcIHfk+St2WyfqYpGlsulb03KABqECKMhUWTQf09RZSTPazjXO3hmi+0Ut7TFpUdBpNiMCrbi1LpeeyQ54XO6/xq9SpYc0jTPqdK0GyQl/1eSyNQ+06yvM40LEvQ5QOgfwqNXzFFGHS7958rHqgVrx68CRdqa2kbBs29hZQRP7o8jU1w2MUoVeuRCgIZVa3YU0ufvarGAS+DeuKKaKIvXz2ocpNliov9q5bw4wiipjrV55rHExC8XgURQihaZ2/T503nT6+8aLwKlT3ceATJufhjaAMNct6/ChamzgjqN6koQ2PKOKvX36iumMxKTcu3s1iCN+5Qf1Pw6Asqtf24hOiCL15J1F1AdKnD0N12950fGR0DkMoUfW61ZUnHE0Lef5eh0ym87qwlhmy9Ze1DzMZSuDZd3Ar5UZEqVTetXxFFFFE3b71VnXTZD9/+FzLcd8Uj8fL3aOVtom+GzQAFUhRJkPgO3z2gCpCik4LWjxq4vqgBC4aBEpibcmnCFHERccW/LysVzvXn0wodh+HRZNuHcvzCR1/dMX6x4X9yhZlZW1JCKFTY2MK9iUwiVfWbH+Qo9SySpq0b2HNI4qoI+sPKd1hxCRd2HpYtYHmV+7ev7klxciubVj1aZqAPIrIw//sfCUnPLuverdzMOgFPUKIdeuALk58oni/f+Hq4FS116e+DJO1b9OtpTWPKN7sWbonXEPPDyWxtuJThJG9fROl616j86bTxzdeFGGd9v4V+IROObdxx0ulM4yM4G27H2hzRY8Qi+b9errxKUVE4PK9bwrmUib93rq151JpSujVs9fnKRv5ldt1qC6imMzbWzbcVYru8vDA7ZdUbwXRiLK0tqIIYeSxMQVrHpN+f+Omqzr10+i6LqxkRV5ZPnb44qBUmjLzGjpnTK0iTkIo+zadGospIn+5e+15pVBOx57adkJdn57aD7KytiaE0JGv3xbc7/XeoAEoQ4oyHZRV05kr/tfakU8UMVeWDG7fecQvq/acvBr85GXo69ehLx8HXz25d+O6U691aijM6vjVMaeIInz3vL/PhKbICWGyk17f2PPbkCFLnosdLYu9g4ibj5/aphyPyXyydsSg2ZvOBId+iImNevsy+OKBNb9MWHIlixDCr+LXsDyfMNJL//yyIzhaRhOiyIh6fGrVdwOmHMl0KKd0tkzZth87rLoFRadc/WPE9xsuvIhJy8yWpUQ+vbjlx2E/nkgXS9Tcdt7rh0l+1pTizd4pg3/ccul5VIosU/ox4sHxFRMG/3YxiebZtZg6taO6O7xYYbIS34a+UiM0IklD3CGESJpP/rGzE5/InqwfGfDdP4duvngf/zE5MS7y9eMbx//947s+XX+9/PkTqHJdvh9X35KiU24u/HbY/J2XHoVHxsREvnkedHbvPz9+v/7+5yueZjXq+ggpIn/87/zNd6JltCIrJeZNVJpWR2WdN50evvEimTceOaaJNY/JfLRizPhlxx9FpshystJiQ67vnTdi0o44sVi7/dis/rif+lQSMKm3/hw25u8jwW8SMjJlqbEh13b+OnT8vy9ziKjqoP8N884rHb9q/0k9nPlE/mbn5NELjzyMTJfTiqzkd/eOLRs34u+HtDlfpx2K59igYVUBRXIerP953bV36QpCaFn8y4v/zho4ZnOsnYNOQ5h0XRfNmKzU+JiYmJiYmOjIiNfPgy//t/Xv6QM6dB696ma8gpi5d1+wdoafZZHl45X/euIgLxGliD0+e8RPu2+/S8mh6ZzUyMdn100Z8ssFqVnhM2wVwHevW9OOR+ikk0sWHH+VIqfl0oSIiITsEmjQAJRgdLlJMff+dvU+p+U//bb1dmz6m2t7l1/bW9hLKe2aI57LN9NGHhmx+nHKg83fdd3CFwqIPEdBMzzr2qNXL3bf0uN/V4pZZp5zr0VrYid/t/xW/NMDi747sCjfc2Ydm9CEEGLWeMzMjhdnnop+f2r+gNMLhEIenSNXMETk0nHu1m9fTxi6ucDMBURUY9yKBe9H/nj4zZvTi8edXpy30nyHptM39Hg29scTytfDBF5DV6xKnvj9+nsvDi0Yc2hBvqcoQYXW09cs66f6SxKsKUK3jeu2Tc0TgupT/zs0QdPEybzyXRZsTKUnLTj1Nvzs6llnVxd8mrLqmS/8CLxGrPgnYfz0LY/j726fe3d7/s9xHNA97/74yn0m9Nozfn9E/NXF37b+myKEoRwHbr08t6k280zpuun08Y0Xhe82YPGyt6OnbHsWfW3N1GtfZongWdcetXyM9NcpO2O1+BjKrs0vG3+Xjp17/O319TOvry/wnMSn/6J1s5rmnxmSsmnz86oZUaP+vpkYvGVmwBaKonJ7CymhS+dfJzML/zpV+GVNNWvhM2Rmv1MTd7+Ov75sRPvlAqGAyclRMITv0HTGxpn0/IDFT7X/MF3XRaOcoEXdWi1SfZzi29fuNWXOrP61tZqSixCLelNWzYsY/suZyOeBcwYH/pa3wfgOzabPcN21YJ9WX7xFi5FjGp77Myg1ZO/UrvumUYQwgsZzLm771knvDRpAQUhRpkZUqd3M7c0H3j55+MTFmw+fvf6QmCrNoimhuaWNnYNTparVqtes06Bpy2a1tf3FdnG9yTsOeG9as/3ErWfvk7IoiaNn9aZdh00a1dZN8OxOJd6VmOIWmbKpP/7fk61P7d713/nbj19HJWcyIksHV+8GrbsO9sstJs+529KDTo3WbDxw6f7rmHSFwKaSb702AeO/61vHLuO4txml3LQKKn395yEf/20b95y6+SwiIV0hLl+1TutvRk8c1NTx9QpXHglTKQbPvunUHSf8/9u+48iFoOfvEqSU2K6Ce82m7XoPHtShmrURnaRa+PRffrRZnwO7D565fv9lRHxaJiOU2Dq6etVp3Lpdt+7N81834Tm2/nHvqQ5Hdu45dvHus3cxaVnEzNqpcvVGX/XoWyOvelO2bebs2OC2YtN/15+8S8wWWjtWbuRbXutV1nXT6eMbL7KMjq1+2nu0xc4NO49fe/QmLjVHZF+5VstuwyYMb1spZacbj2iTogghZlW/WfJf/W57tu09ef1RWFSKXGRVzqVag1ZdBwz9xs9J9ZKVuOaozcfq7t+49fCle6FRHzP5Ni7ejdr3HT26d7VbU37X8dIkZdf61317aq9bv+fs3ZColGyepbNP7RY9R08a0rQCc8PXjqdDimKxLloVkccXmluVc3LzqF63casOX3f0c9U0RZQqUZVvlv/nc3TzpsCzQS8jEzOIpZNnPf9eI8cOaBA+f4u2G0zgNWzdDpvVq3efu/sqOp2I7Sr61HG3oEhJNGgA+VGhoaGGLgMAQKmTcXR84+nnsy2+XhW8rIOBb1swCTnXfmoxan+SoNn8y1v7a/FbgQDGwIhOwAEASg06d8oNSnmEwxEAACAASURBVKx+iklQIUtKlDKEwhYDk4IUBQDAOSbp7u2XckJ4rmp/7gRUZNy/9TibITynypWK+9PaACUH1RsAgCXFx9h4dTddMim31q6/JmUI371ZUzfublsweUxKbJzaAfeyp1tWnkygCa9ck+aqP1UMYLSwtwIAsJR5bW7nZaltu3dt27yur4erg41YmPPxTfDJzX//czhczvBsWo7oXx0h6gv54xXfzA5p2K1bu5b1a3hVrmAjETGpEY/O71q2ZOcTGUNZ1Bk6tFkRP8EIYEyQogAAWGMyP9w5tObOoTUqz/Asqw/+e8E3xf+JlVImO/7R8U2Pjm9SeYIyr9Ljj6UjvJA6wZTwJ0+ebOgyAACYJGGl2vXc7S3N+IShc7LlcgVNBBa2FT3qte455udFvw6sZY1x0gXwK9Ro4OloZS6gCK3IyZHLaYZvbl2hSq3mXw+btfD30Y0dkKHAtGCmAwAAAAA20NkMAAAAwAZSFAAAAAAbSFEAAAAAbCBFAQAAALCBFAUAAADABlIUAAAAABtIUQAAAABsIEUBAAAAsIEUBQAAAMAGUhQAAAAAG0hRAAAAAGwgRQEAAACwgRQFAAAAwAZSFAAAAAAbSFEAAAAAbAhYv9PT05PDcgAAAAAYRFhYGLs3mnBfFEVRhi4CAAAAlF0mnKIAAAAADAgpCgAAAIANpCgAAAAANpCiAAAAANhAigIAAABgAykKAAAAgA2kKAAAAAA2kKIAAAAA2GA/d7kxCAwMzP0jICDAsCUBAACAssa0UxTCEwAAABgKrugBAAAAsIEUBQAAAMAGUhQAAAAAG0hRAAAAAGwgRQEAAACwgRQFAAAAwAZSFAAAAAAbSFEAAAAAbCBFAQAAALCBFAUAAADABlIUAAAAABtIUQAAAABsIEUBAAAAsGE0KYpJurmos6tVj50pnx+Rvz04pXUVO0vrinX6Lb+byhiydAAAAABKjCNFyV5sHdxmbJBVJWHeQ3TU9kmTg/33hKfE3/lVsmbIbzcyDVhAAAAAACXGkaJEFuU7LTuzva/blw6n1EvH7/hNmNLYjm/m1nPaYMmRfXdyDFhCAAAAgIKMI0Xx3bt829ZZQL6EKHlE6FtHby8rihBC+B4+HikhLxNxUQ8AAACMhsDQBSgEI82QmVtZULn/4ovFImlGBkMIVeBVc+fOzf1jzpw5JVxAAAAAKOOMNUVRYolFplT2qfdJIZVmiy0llPKrEJ4AAADAUIzjip4qQWUfj4+vQtMYQghRhIeEW3t52aukKAAAAABDMdYURazb9Wl5f93KoGRF9odjy3YkdOjRSGToMgEAAADkMdYreoRyCFi6+sGwQR42sZRr6ylbtra3NHSRAAAAAL6gQkND2b3T09OT26LoiqIohsFtewAAAFAsYWFh7N5otFf0AAAAAIwaUhQAAAAAG0hRAAAAAGwgRQEAAACwYbT36AHoEfV57jHcnwCgJdQaAFXoi4Iyh6LU/w0AhUFNAVALKQrKOhweADRTqiOoMgB5kKIAAAAA2ECKAgAAAGADKQrKFlyMAAAAriBFAQAAALCBFAUAAIVC9y2ABqY9X1RgYGDuHwEBAYYtCQBA2UFRmDUKgBBTT1EITwAAAGAouKIHAAAAwAZSFAAAAAAbSFFQhmCcLAAAcAgpCgDpCgAA2ECKAgAAAGADKQoAAACADaQoAAAAADaQogAAAADYQIoCAAD1cOMFgGZIUQAAAABsIEVBWYGzagAA4BZSFAAAAAAbSFEAAAAAbCBFAQCAznCJHIAgRQEAAACwgxQFAAAAwAZSFAAAAAAbAkMXoFgCAwNz/wgICDBsSQAAAKCsMe0UhfAEAAAAhoIregAAAABsIEUBAIAaSnMZMIyBygFgxJCiAAAAANhAioIyAWfVAADAOaQoAAAAADaQogAAAADYQIqCMkrpoh5+FAwAAHSFFAUAAADABlIUAAAAABtIUQAAAABsIEUBAAAAsIEUBQAAyjDFGoA2kKIAAAAA2ECKAgAAAGBDwPUHMjkZyUmpWQJLOzsrM2Q0AAAAKK24yjmyiKtbfhnaoZ6bjdjKoVIVt/I2YquKNdoMmLX+fHgGLqiDQWGEBwAA6AMXKUoRsnVg4zbfH5PWH7X02LN4WXZ2ZnZO5sdX59ZMas5cmN3O75v1z3I4WA4AAACA8aBCQ0PZvdPT0/PTX/Lnp44qmvWqZaP2NzSY9JfHrss7daopYlnEwlAUtX///ty/AwICOP50KEUK64tCHxVAYdTWDlQZKK3CwsLYvZGLFMVkpKSZ2VhzPsSqCBRFMajEoAWkKABdIUVBmcI6RXFxRS/7/ESPSvW7T/xz19XwNJqDDwQAAAAwelykKLPuGx7891Nbi4drhtZ1rtykz9SlgbffS3GSAgBQqih1PlFqR3EAlCVcXNH7gpG+Dzp5YP/+wINnnlO1Owf07T9kUPea9vqpabiiB1rCFT0AnWioGqg1UCoZdFyUqqzYoL2L58xffzaq4+74A/0k7JZQBKQo0BJSFIBOkKKgrDHouKg82XGPT6z/eWhbb2ev3qvDq43bdO3ltr76iVAAWkKjnx8uwQAAcIiLG+uYlJAz+3ft2x949NZHN//efYdv+PVwSw9rTFwOYAwoijDMl/yU+08AACg+LlJU9rVVcw7KugxYcWO/v49dSU94AACFyw1PSl1QCFIAauXWlPxnHaTMd2CDZlxkHrOvV975mhBCiCI14vHzdx+zFJ/3Op5j9RY1yqNXCqBk4codgK7y99cqPY4gBYXhsOco/cavX3299H0FLxdL/ufHzL5acP6vDhbcLQQAiqJNhMp7DQ4PAEVCfYHCcJeism9u2yqaHfzuBx+uf+oFALTArv8p7xIGQJmlfd1BvxQo4S5FURJLW5fKLohQAAZQzEt4ODZAWcO6yuDEA/LjLkUJG4//XjB52irJiFYedqJP+yfPysXLxUpvQzTQywrAFQQpKDuKP3AQ9QVycTguSiFLT3qy44chx+3FX8ZFdV79ZGMPMXcLKQR2aFCrLAyy1mYdC5toFEAVplgD0B6X46LWL4sfcjnmjybWBmmo0csKRdK8e5hiFtcpQhGVW7hVP83ktgCANvIfIDTXmrw6ormyENQXIIRwOi6KxxdXq1/LMBHqSymwW4PWimwljVD+PbzIg4Hmx9W+HTUISp/CpjBQkrfn5/+jyCBFcPZetnE3lZOw6fgp1K5fdlx78T424bPEtGzOFgBQplFUgSk02UUopdeofZnJJUsADYq5P+dWk7z/9LEIMGkcXtG7uGL+kRMx+46tyPegea9dsYF6+jViQgghgZ//CMh7CCfTUMqottEaWm1dd35T7JAD0EDL63F5dKoyqC+ghAoNDWX3Tk9Pz09/MdIMmYVEXOiexcgyZOYanmeJoihC1O/+SFGQq8hxssY/kFbXJpvdKqguxQg3BZQMzZXCSKqM0i+0sE42LMpf2LJQZUxaWFgYuzdycUUv5/qslu0mrTn7KoVWeoZOe31hw7SOzaZeyORgOaqw10IplncJT3usawSqEpiukoxQGt7FosJCKcDFFT1RhyUH5Ut++sX/f4Otqjes61OpvLUoJy0x8tWDoMeJFduPmxP4Rze9/QiM2nsucFEPTIXaHz1l0RZjhwdOmEQOKP5Qp2LS5l4/KCO4uKL3Wc7HsHu3gh69+hCfksm3dHD2rN24WSMfR7NiF1I9iqKYfLUBlyRAlZFf0eOqFeak2GoLg0pU1pTiKsN5UXFprzRhfUWPyxRVwpCioEhGckjI7RzlJDOp/Ryuio0gBcZQZZTmdip+3dHfPowqU2qwTlEczl1uYKo1Ddf1yjhj6G/XcqKaIinNnAlQKuWvJlzVHb3CkBIoPSmK4B5U0Khk2jXsgQAs6K/iGCTQIEiVHdzMupmVmprFyQcBmCx93KGjea4/zmESTihJuVWmOBWnyKpRMnUHFacs4yJFMdE7+lcfsv+j0o4kvzvPv++mCOXZDwBKlWIeBowNTqDLshIbJlj8KpN3dqE0t7g2U40DcIiT+aKeBD3xbOZno1Qp+B5ukqvXHuVwsATtaZ4gDoBbet3BDHUMKHJAMQBrXP0eC4CR4GJcFJOTLTcXWyhXDoov4GfJMg3dF4Xr02CE8k8NZRL7p6mUE0oHtXOnGfMeiGHmZRYXfVFCn1oej89ejFfaW1JvXH7k7OEu5GAJxYQzadAH7fcrDRcajLORxTgP0AcWP2xnWpfnTKKQwC0uUhSv6uDp7e5O/eaHwCeJckIIIYqUVyd/7z/usPvoofVL1V2AYDIMdchXbfTRsAJow4TSEkAeTjIOVb7XulMZP4yb3sRpqLljOfOcj3HJIp+esw5tnezD52IBOsF8B1ACO4A2U1+a9PEA9Qi4VTYnqMRFPf0xkm3L6dzldEZ0yMvwuHSeTSXv6lXtRcUrmvztwelDZ2y/l2ju0fnHTRsnN7JWvuRcYO5yJZjK3Djln5VY30vJT8MPiGrzsiI/X/v3mhxUpTJCyy+a9X18hv3pmJJUdtbUgDgfMGccc5fzJBV961fwJjxe8c9h6ajtkyYH+x8Mv1gv7cj49kN+a/BgaQtz7d+PM2mDy9v+quMu9XoOYZDvvUw1lEZyClgKKB0JWAwb0h8Ol1LGm2LUF86pjuIvTAlseW5m3SSESbq7aUrXuq5WIoFAYG5ftXGfH3c/TStG+VMvHb/jN2FKYzu+mVvPaYMlR/bdKdk5E4Al1clg1M4Nk3/CPX1PucRtRSrjhwTgivZHAjAtyEx6pVNNKYEDDTcpShY0t1OnBaF1vv/30pOw8ND7J1cMd73zg3+3pU/YTmkujwh96+jtZUURQgjfw8cjJeRlYvF2zdI0NaKx4WoH1ccXpO8WrdSPhy3da2cQxawp+X9gjqtmrYTbxrK2U+HQY1S4/To4mS8qPnDBOrMfL/030/fTtAbuVas3adfEvlWX+UeG7+tnz6LEjDRDZm71eQ4qvlgskmZkMISoDI0q8CYtqiY6VznH7R5pKtPDlCm4Pl58eSMC9RF6SrJZU1qFIhddNvccVBl94HCTclhlOJm7/OHNB9X79fcuODOUee3hQ3yCLt9ndx2OEkssMqWyT2upkEqzxZYSNYMfC1B5ltWiQRd6bSlYnGfru+Uqs+NG8asAxZG/90h/i2BRWQrrzdLfjl3q+26hOEryB7W4WhAnv6OXnip1qOCo/FG88q4VpQlJclafKajs4/HxVWjuyCpFeEi4tZcXmz4t0EL+HVf7nbgk93UtX1bCEQpAf9hFjSJrgTYX35FyoISpHU2r+ho9LbqYOLpHj45/fu3yZaVpynOeJ9A0zbJCWrfr0/LHVSuDuv5UL/3Ysh0JHVY0KubMCXlK5mZ7U1HYjqt0h53qC1hQ+yMJ7BjV3UxgurTv2C+y3VC9Zsfiso7qvPYs6ovaomIwQwlTvfRJ0CLlU+Q1bm32fGPoI+ciRVFWzu4xeyaN26P6lEt7K5a9XZRDwNLVD4YN8rCJpVxbT9mytb0li0/R0AwZT5uierdzCcwCoH37rv1+qfrTV0pHlMJepk0ZOAxz7JTkVQ+TYDw1iLW8/ldS1LepdElOww82az6f1kxtGViPsMn9gnQtj6l/p0auFNQaVaoNvtpwo7YNL05jrnai4yI7WTk/fHA662ZBmVF3ju5/7TFhYAOuOpEK0jzrpsqL1TxoDHszJ+2a2n4jdssqDl23ZwmEIe03XZGvL7MjovIziSip5Q0KWq5LCTTKOm1DbkepsysM61qj5eeXGkZ73Ck+fe+HmhVzL1W7W7KedZOr+aK+YGQfbu35c1yn6q41B65+mCE04qEkhh3mov04HopS81/+xzW/smTG67FoGlQvXhBOf0urdLRWRq4ExqJp2PNVd2+l8hS28xfWP636+UWWrThY7Op5b+GwpuT/cL0qa1XSsOurWmXUPsv6kjEx9DFUM6aQH4AnXH8v3M1dzkgjbh7esW3bzqNB71Psuv69/d7BFpVVb6szECO575TDMhjD6uQqzh6pNkhxoqy11yWjhOtRYVlH+xdr+Sy7VxYHh/snuy4xfQ8egMLoe7NrOGcobNFFXpIzKsZWNi76ouiI0wtGtfOt1nb2aWmjGYcfHxrh4tKoYzPjiVC5dO2uL6aS7w0qZdhVFX2coBNjyqwGp3ZIELe7dymuL3raP0mxO4P1oVR+g7oq4ZkditzmmitX/ryloetXrzRvMWOLUISbFKV4f/PgsWeS5n0G9B/Q29/Hjs/BZ+pHiQUpk2s+lPqEtG/rjWefLsnWynjW2iBK+Eza1OlUoThZkDavLHllvNbkp6dEYurHsvx7r9qR45z34HKCixQlbD7v3rt76/rYP1s7sHbVBt8svp6SI2c3TZSB6LSjqA7CUB20wYKGi7jcUlqQ5mEWmh807FFBqeSsF5Ff6TuElyRT3Hpa7jna7PBqa5ZR5RUDFgkKw0mtKQV9t6a7W3J9j15WzL0Tu7dt3R54W1q9S/8Bgwb3bedlrZ9vV6d79Aq+UdOzmj+S8z21JBdXzN3U+K+Xs6O0kbXpsCx9G0FXxalEaj/HICMXtc/Qml9Z1vYHFlWmsJeVHVxVGS0/sOSpHWlX2IirvFdqPqzkf7s+5P981vfo6Wumg+y4Byd3b9+2L3PwhbW9xeyWUAQ9pSiixTfKIS3XQO2iNeyvoD2kKHZYHBWUmlFO5C1I7XekUyELe3GRA3LLGlQZFrTZ4VmcfhiW2uRkoowuRZUA1inq89s5LAtLrOtM6dhrjQQOCaxpf2BgXd00vJ1d9dGy95cxhZuVDAVVhjXtK0Jhpwe6yr/lNXcQsu5fKB1YpyjuZjowNSV2BYGTPY9RNwk4gGFpk5CKmZ9U/2b3UVpGIg4XCqBK++MOpTL1PItlFfmI2meLedJS1pTdFFUyjPOeAgAO6eOEhPO9HdUHjIROQYr1IooDlUUnZTpFcdX6q34O9sLSBF9ukfQ01AmgVOK2vih9LJQwTlOUPOHJudM3Xydmyj9/mwLPLmO/ribkciHGoLCe0lIzzg7AUFCDoIzgthMXFcdQOPwFmI8nxvsNvlKlUysv67xPFVq0MO6vVqexdapv0f4pgFJP16OC6jgM1KDSAd23WuLweggYCncpKufO4TPV/rxzakzFkrv5LTAwMPePgICA4n9a/v4kNOsALBR5WqJ2oDdqGZRZRd6Lp/QCHJ6MDXcpirKysbW2LtnfzuMkPClhmC//BwDWlBJV3j9RuQBUaX8DKWqQUeEuRQkbj58qnDRzQ/lJnWo4iT/9lh5lZl3OSsTZMgDAJKHdB4BSibsUlX1+ya9HLsTsO7c534PmvXbFBvaTcLYQgBKGER4AAFAY7lKUqNPa9xlrOfs4AAAAAKPG7XxR9Menx3YduPIiNtvCybdF7wHda9nzOF0AAAAAgJHgMOTQkYHD/Nr+dDqSX66CPfXh1C/tGw3aE0FztwAAADByuAgOZQp3fVHyB2t+f97/5N35DSxyH5j/eH6bAauC+vzVpNTNugkAAADAXV+UIjoy2adBDYu8B8x9GtZIex+p4GwJAAAAAMaDuxQlrFHf487ufa8zP/1bFrZ329XKDWqhIwoAAABKI+6u6PGqjFr2/cWe9Vzne3lXNJdFvXxNWi84NKEan7MlAJQwzn8uFAAAShMqNDSU3Ts9PT3VPJod/+LO3RexmeYVfP0a+zroc8JNiqIYDFyEYtMwGBbjZAHUKqxqoMqAiQoLC2P3xuL3RTHpMVE55VzshNlpiWlZDOXo6+foSwghJDUhAXOXAwAAQClV7HFROdd/blpj+N5EJuvkeA8nZZVHHM7gopgAAAAARoaDK3p0TjYtFHE7fac2cEUPOIEregC6whU9KGVYX9Hj4B493ucIxdB5NYbJiHr5/F2yvPifDgAAAGCUuJvpgI7a2Kv5b/fkhNAxB4fW9G3dsXH1r/56mMXZAgAAAACMCHcpSv446EnlWj4Ckn1vxdzgrw+/evfwd5t/N93M4WwJAAAAAMaDw+FMPB6PoRkm8fjyveUnXGhjw1NUraw4m6AgBBNvAgAAQKnDXYoSNurWcsLULl1tX4d33b62Co/QH56+ELkO0uesm4GBgbl/BAQE6HExAABQFAwthzKI01k3Ze+un7iR4Obf1a+ikBD5m8sHI6p807qynm7fwz16wAncbQSgK7W1A1UGTJcBZ93MRyixkdDPgvavufm5+gjSw5tVroYregAAAFDqcJeimI8nxvsNvlKlUysv67xPFVq0wOkIGDeGKXAOTVE4hwYAAK1wl6Jy7hw+U+3PO6fGVMQvuAIAAEDpx91MB5SVja21tQQRCgAAAMoEDu/Razx+qnDSzA3lJ3Wq4ST+dGcefo0YAAAASinuUlT2+SW/HrkQs+/c5nwPmvfaFRvYT8LZQgAAAACMBHcpStRp7fuMtZx9HAAAAIBR425c1Ce0LPH967DodNzlBAAAAKUalykqO3TvxBaVylWs6tNo1qVsIn+wsNOw3bGIUwAAAFAacZeiFKGrRv0S3f/I28TjIxwpQojAu5rdpXPB2ZwtAaDEYBZmAAAoEncpSv7yUUTzEaMblTf7fPzhCYWKzCwcfgAAAKA04i5FCXxqV7q5c1+Y7FNsyn6zb/t1z8Z1MM8BAAAAlEbc3aPH9xq/8vtbfRq4/GLHj5Ndql8lQeY3//AYD87HrwMAgJHBRXAom7hIUfKnu+bf9Z09vH6dCQdeDAwLDnoelc4r5+3XpEZ5Mw4+HgAAAMAIcZGiFKEnVh9hpg2vb06IwNazSQdPDj4UAACMlOpveAOUTbjeBgAAAMAGR+Oiss9Pre3+s+rpiFmnlQ/WdRNzsxBVgYGBuX8EBAToaxkAAAAA6nCUooSNJm/7u7OlyuM8Ow9zbpagFsITAAAAGApHKYqyqVKvYUMbbj4MAAAAwPhxMS6KEjtWKi/BCCsoLTBUFgAAtMFFX5So4/IHHTn4HACjhJlvAABALfQgAQAAALCBFAUAAADABlIUAAAAABtIUQAY+QQAAGwgRQEAAACwgRQFAAAAwAZSFAAAcAmXyKHsQIoCAAAAYAMpCgAAAIANpCgAAAAANpCiAAAAANhAigIAAABgAykKAAAAgA2kKABNcM82AAAURmDoAhRLYGBg7h8BAQGGLQkAAACUNaadohCeAAAMgmEIRRm6EACGhit6AAAAAGwgRQEAAACwgRQFAAAAwAZSFAAAAAAbSFEAhGBGAwCOoCpBmYIUBQAAAMAGUhQAAAAAG0hRAAAAAGwgRQEAAACwgRQFAAAAwAZSFAAAAAAbSFEAhcI92wAAoAFSFAAAAAAbRpOimKSbizq7WvXYmfL5Efnbg1NaV7GztK5Yp9/yu6noFQAAAABjYhwpSvZi6+A2Y4OsKgnzHqKjtk+aHOy/Jzwl/s6vkjVDfruRacACQlmA63cAOlGtMqhEUNYYR4oSWZTvtOzM9r5uX2pg6qXjd/wmTGlsxzdz6zltsOTIvjs5BiwhAAAAQEHGkaL47l2+bessIF9ClDwi9K2jt5cVRQghfA8fj5SQl4k4ywE9y38mjbNqAADQTGDoAhSCkWbIzK0sqNx/8cVikTQjgyGEKvCquXPn5v4xZ86cEi4glFYITwAAoCVDpSj547kNG/z2SE7M2q17e3asE6X0PCWWWGRKZZ8OaAqpNFtsKVF+EcITAIAhMQyhqC9/A5Q1hrqiJ6g952EOwzBM5jnVCEUIEVT28fj4KjSNIYQQRXhIuLWXl72a1wEAgCExzKf/AMog4xgXpYZ1uz4t769bGZSsyP5wbNmOhA49GokMXSYAAACAPMY6LopQDgFLVz8YNsjDJpZybT1ly9b2loYuEgAAAMAXVGhoKLt3enp6clsUXVEUxaATGQAAAIonLCyM3RuN9ooeAAAAgFFDigIAAABgAykKAAAAgA2kKAAAAAA2kKIAAAAA2ECKAgAAAGADKQoAAACADaQoAAAAADaQogAAAADYQIoCAAAAYAMpCgAAAIANpCgAAAAANgSGLkCxBAYG5v4REBBg2JIAAABAWWPaKQrhCQAAAAwFV/QAAAAA2ECKAgAAAGADKQoAAACADaQoAAAAADaQogAAAADYQIoCAAAAYAMpCgAAAIANpCgAAAAANpCiAAAAANhAigIAAABgAykKAAAAgA2kKAAAAAA2kKIAAAAA2ECKAgAAAGADKQoAAACADaQoAAAAADaQogAAAADYEBi6AMUSGBiY+0dAQIBhSwIAAABljWmnKIQnAAAAMBRc0QMAAABgAykKAAAAgA2kKAAAAAA2kKIAoDSbO3euoYsAAKUWUpRxybvrsDTBSpmKUrlSpVLp+6ZK3xoRrFTZgBQFAAAAwAZSFAAAAAAbVGhoKLt3enp6clsUXVEUZdgCAAAAQCnAOguZ8KybDMMYuggAAABg8sLCwti9EVf0AAAAANhAigIAAABgAykKAAAAgA2kKAAAAAA2kKJKXM77c4uGNKtiLxHbVmk5bvuLTEIIIUzK7aUBtStYW9pX9Z92+J2cEEKI7Nm/w/1cbS1tKzUZtfXTC40b/WF7r/LizpvjGUIKKb9JrRSdeGvliJaejrY2dq6jT2QRor788rcHp7SuYmdpXbFOv+V3U435tgc69sK8XnVcytnZV/DpNOtoROF7mimsVGbY/nF17X1n35V/foSJPf9rZ28HKytHn65zL8QxhJhc5VJeqdLQYsijzsxuUb7CyNPZSk+YcouhbqVMvsVQWanS1WLoA1JUSaMT71/5UG/epfdpyS+3NL8/bfKW9zQhWbd+H75a9OPtuNQ3gR3uT56w9T1NFC9Wjv41dvCZyNSo8yMSfxu+7JnC0IUvAh25Z9ry8PK2uVNQqC2/Sa2U/Pk/fYae8Jhz/m1SyseI9Z3N1Jefjto+aXKw/57wlPg7v0rWDPnthhG19EqyL88bud9l0b3Yj/FP11Y/Pebn8SI4rQAAIABJREFUExmmulJM3MVfO3+9/KNLef6XB1OOzxp5xGvF06SPz9f4Hh0547+PjElVLjUrZfItBpNyd1nvtv8Ld3ThKz9lui2G+pUy8RZD3UqVohZDX5CiShrPqcfvK6e2c5fwRE4tvmnr9D48UkHkT0+cEfSb2reKOc+mwXeTW97bdyJG8f7siQ+dp4yuIeGJvYd93z3hwKEXRtF+FIaO2jdtMW/yFL/cGkirK7/aBw1c7kLJLi5fazZ90+x27hIeITwer5CVSr10/I7fhCmN7fhmbj2nDZYc2Xcnx9BlL4w8+aPUtU69CgLCd6hbvwqTIZWb7EqZW9aYGHjip8aSLw9l3Tl20X3EtPZOQoGj//Qx1c7uu5huWpVLdaVMvsWgzMTu/becWdLBQWmGP1NuMdSulKm3GOpWqjS1GHqCFGVAdPS9e8m1G1YTkJzw0A9VfD1zZ+8Se/m4hD8PzQx/FVHZx1NECCFE6OXr/vb5KyPeK5mYwBl/MTOX9K3A5DZycnXlV/ugwcqsmfz5ldt2Hukruzfwcq9Sq8usoxFytSsliwh96+jtZUURQgjfw8cjJeRlorH2Zos7TpmU/ne/GdtOBM4f+o9s+o/dbUx1pShrv359almSfKWiE8LC5R7ezjxCCKEcvKuJQ19EZJpS5VKzUvmYaIthXqPXwCb2lNIEfybeYqhZKdNvMdSsVClqMfQFKcpg5G+2f79UNumXXvYUI8uQMhYWFrlPUBZic1mGlJZmyMzFFrknBZRYYqHIyMgyYHk1YmIPzlgkn7FsgAuPfDoCMOrKr/ZBg5VaM0X0h/fPLr+ou/Tqq9f31ta7PPa7ndHqvpTM/I8RvlgskmZkGG3zIakzcFKzuB2/fjdhydt6w3vUkKj/pkxrpT5jpBnSL6WmLCTmsvR0qalXrs/QYhj5SqHFMJmV4hRSlGEooo5+12uJ9cI9M2qJCKHMJWKeTCbLfY6RSTPFlhKeWGKRKZV9bmCkMr5EYmbAImvAxB3+YWHWtKUDXPLtT5S68qt90BBF1oZCQdUeNqtvNQnFt282ekC1e9cfydWU3zz/Y0QhlWaLLSVG+utETOLRCV2WOKx8Eh7+5s7/eIu6DNsdRav7Ukxppb6gxBLxl1LnViRLC9OuXJ+gxSDGvlJoMUxlpTiGFGUAdNyZ6d1nJ08/sv4b19wRASIvH7e3L19/uvsh9GWku7eHmZdvlYiQsNw7JXLCXryr7ONpnD/Yw8Qf3bD/+fkZDZ2dnJwqf7sv7uL0mtW+u+iupvwCk1kpQviV3F2SouNyrzYw2dk5QpFIXfnNK/t4fHwVmsYQQogiPCTc2svL3kibj5y7R8+6Dp3iX4FPWfr0XzS1xvkjN7JMfaW+4Dl6e4leh0TRhBDCJL56lVbV283CpCsXIQQthkmsFFoMk1kpjiFFlTQm6cpPPSaHDd2xuleF7PT09AxploIIavTqLgj85+DbLDr1wepVl326dawocOna2+vsys3PMxjZq+3/HLbo8rWvcTYflOOgPW/fvHj48OHDhw+DVnZ3aD7n0vU//N3VlJ9nMitFiKB2v/62gfNW3k9WZL478c+ODy071DdTV37rdn1a3l+3MihZkf3h2LIdCR16NBIZuvCF4LtVdQ45fTxURgjJDD964nElbw+h2i/FhFYqH1GTPl2jty47HyuXJ1xduuFpq+6tLU27cqHFMJWVQothMivFtVC2GGCDjl7fvkCHNM9lwsUshmHSH6wdVK+itdjapfGo7S8zGYZhmOzQ3eOaudlKrCrU6bciONWwJddS5vFhTp03xdEMU0j5TWmlMkP3TWnjYS+xdPDtNvdCbKErpfhwfFY7D3uJZTnvrvMuxdMGLbRmaQ83jGzh6eLs4uzs2WLUxodpDMOY8krlPPqtfo0fg3I+/5tOvLqgh6+jpcSuiv+0/yLkDMOYXuXKv1KlpcVQfFjd1nnEqSyVJ0y5xVBZqdLQYiitVGlrMQrFOgtRoaGh7OKXp6cn++wGAAAAYBzCwsLYvRFX9AAAAADYQIoCAAAAYAMpCgAAAIANpCgAAAAANpCiAAAAANhAigIAAABgAykKAAAAgA2kKAAAAAA2kKIAAAAA2ECKAgAAAGADKQoAAACADaQoADA0JnZnH+9B+5MYQxcEAEAnSFEAUHLSdvW0oAoy77Qp3r71lEUTW9hQJVsYeeiqjvXHnUnWPbxlP1nYqsGMq+l6KBQAmBIqNDSU3Ts9PT25LQoAlH4MrVDQDEnf26fyzq4hx4Y7UBSPz+eVcH4ihBAm6cCgBhtaXjk93o3F2WTaqdH1FnifvDyjGp/7ogFACQsLC2P3RvRFAUAJonh8gUAgEPAo6tOffB7FJPzbxbbPPikhhEm+s3xgg0qOjhW92838L0JOCMk6NrRK/z9XDfWrbG/j4NPj7yu3N49oWtXB2rZym1mnYxlCmIR/u/mM/Hth71ou5WzLV++54GoiQwghiuizv/Ws7VLO3sGt4YC/rycW6HNi4o9uu1T724BKPKIIWdSi+fRVszv6VrC1qdR04v6gM3O61qhoa+VYq//6p5mEEPmbg9+3rVbRoZxDRW//Xy6mMMTqq8FdY3bteio3wDYEAKOBFAUARoNJOTVjwDrJLzcj48L2t7s7ceL2SJoQwiQf3hEy8NjrxPcn+0T+2mnIjU57X8THBc0QbZ6zJURBCCGKd/sOSKdfjkiMuTVLtG7w7LPphI7YMnLYSd+VD2OTom//7rhj4MTAuHw5Kuvu5XvV/FvZ5/aC5dzbdrLi0uCY+KcLKx0a2nmR6LcbkUlvdrV6+MuiM1KSc2PZD1f8doTGJ8a+OrtiSF1rihCzBv5+UVevRtGG2E4AYCSQogDAaGRe2XvMcej0bpVElKT20AG+N05eyyCEEL73NyPbVhBQ1vU6tXSu2HlYr8pmlLlHx3ZeMe8iFYQQQoR+g8c2Lccn5h4Dvw8wu3DqQXbC2QO36k+Y0cpRQITOHWaN9Tq751xK3pLomNBwxqOa8+cm0KLN0OE1JJTQtWOHOsIG/Uc1tOXxHFp3akxFvk+kec4ebnHntx24GyO3qlzLKzd5mXt4u74NCVeU8CYCAGOCFAUAxoJJjY1NffxnaxcnJyenivV+vkvJ0tIYQgivnKN9bmMlEIpsbHOHoVMCgYChP/UF8Wzt7XJfwS9f0SE1KVmeEJcodnKyyu1r4jk4O1EJcR/zeo6Y9DSpxMry83gsnpVDObNPCxDybGytc5cgFAgYmiF8r0kHj30nOTisjmfzMRvupTCEEEJJrMTStHT0RQGUZUhRAGAsKCsHB6sm84OjYmJiYmJi4pMTT4x2zg06VBHjz+n42PjcQKOI/hBrU85O4FDBQRodnZt4CB0fGc04VrDPa/EoscRCmp6Rd4mviM/n2dcfuvjY05Bjg+L/GLwwWE4IYaTpUguJ2ADj4gHAaCBFAYDRsGjT/+uIdfMOhqbThMmKe/4wPE3LaQhygrevuRYvZ2Sh25cdULTvUk/k0GlAm8drFl+Ok5Oc6LOLN4S279fOOu/1vIoe7orXodFadSXR0U/uvklTEJ6NR10vO0VONkMIyXr96oNbtSoCNusJAKUEUhQAGA3K7utl+yczKzq521nbujYbu+1phpZvtPyqneXytpXLOTVbSn+34492EsJz+XbDzm/eTm/gZO/U6H/Rg3av7ls+X8eReePWDV5euvZRm5RGJ1ye38WznH35itXHPOv6z/SmQkKy712+Xb5ly0poQwHKMswXBQAmjkn4t6vnyaFRB/qJdXrXvv4NN7e5ym6+qPQzY+rO9Th2bZYv5osCMH2YLwoAQBeUwzfzppMNC8+xmLs85/mahfe6L5yACAVQxuGaPgCUUQLvSWcfsHqnsPoPl+9xXBoAMEFIUQBg4iiHESeTRxi6FABQBrFPUawvIgIAAACUAhgXBQAAAMAGUhQAAAAAG0hRAAAAAGwgRQEAAACwgRQFAAAAwAZSFAAAAAAbSFEAAAAAbCBFAQAAALCBFAUAAADABlIUAAAAABtIUQAAAABsIEUBAAAAsIEUBQAAAMAGUhQAAAAAG0hRAP9v7z7jmtbaAICftGWPtkzZQ1CGLNmgsocMt6ivCu5xxb3n9bq34rwu3Pde3IrKEhX3BjeCiLiVVXZpm5z3QwFRERAqBXn+H/xJm5w8SXOSJycnJwAAAEBDQBYFAAAAANAQkEUBAAAAADQEQ9wBAAAAAKBJZWVllZSUZGdnizsQMVBVVZWXl9fV1RVJaZBFAQAAAK1IVlaWpKSkh4eHuAMRm6tXr75+/VokiRRkUQAAAEArUlxcHBQUhDEWdyBi4+rqeubMGZEUBVkUAAAA0Irk5ORQFCXuKMQsJydHJOVAFgUAAAC0Oq25LYogCFEVBVkUAAAA0LpgjFtzFiVCkEUBAAAArQtkUaICWRQAAADQukAWJSqQRQEAAACtC2RRogJZFAAAANC6UBTVmrMo6F0OAAAAgIaDLEokIIsCAADwrYyMjOLiYg6HI+5AWioWi6WoqGhgYCDuQGrWyu/oiXDdIYsCAADwlYyMDJIk9fX1xR1IM5WSkjJs2LA6J7ty5YqoXjMicpBFiaooyKIAAAB8pbi42MrKStxRNGv1OQ136tRJVK8ZETlRZVHlp4fpDznFp9FoEgqa5u6D56+Y7KZGa3y5v5gIs6jmv7IAAACaFNzIqxOun+zsbHFHWrN6xl83hCWdlyZ/+vwh49quEP6ekfPPFYqs7F9KVFsSsigAQDPCTZjSsX07Y2NjY+N2lqGH3jXDl30JUlb6mPuueUg2qhSc/V+YeYcJsTwRRQWaVhOfqkWOEhFMIYQxRVFISs1mUIiT4GXGJz4lyDo1p3dn6/aG+sYO/dZezycpinfvLxeXv+7xKIqiKP7z9T42M6+WU7zMU7O725kYtTUysQ9emsQhKTL7wooBHjambfXb2nSbH/dBQFFk9oH+neefOj7Tz0zbaOy5MtFELqotCVkUAKAZkfZZeyNpYRdJRofw4zf2DtSq8xBFpkb06Lv9ZeNSGgB+UotOoZBI26IQQhiT5fmZV3ccuM7q2FGThgl2W5/xkZcepT05Nah064rDb8mKzVF942CMebe2LbzWcevt1LSnt44sDzGXRxgp6LgO35SQ/Dz1wjTm0cV7nvAxRoh68++yE23mxz1JXuspKaLARQSyKABAs0JIKSnJEYQ0iy1Tj+OTICPx0stm2GAFfnNNfKoWOdFkIhhjjHg359i0aaNvFTDjos6syFmOkhhjWZPOnQzkaUjKsLOTZs7HbPK7uTBCGBPq+to5Sf+dvv9JIKdtYsBCGGOGgbO7CYuBGBqdXI3zP3wSzkpq95n1h5OGnIwkQ1RxiwhkUQCA5gwXHB9lGbTh9oP/Fgz2dbA0s7D3Hjj/SGopQoj6HDsnMGTjk7KHa/xMjI3b2c28xEMIIcGHK39PCfGws7S0c+8z+e9rnyoaqniXZjq4Lb6V9/DgtF6uVuaOU9dPcTLtuv7Jl3YsnHdyjLV5312vSISLnh5fOXFgsIejpbmlg0/lMr9H5d8/MC/Uz9nK3MLOvfe4tWfSa54OCd4nbRzXzdXKzMzGLWT2v2lcia/Ws+jp8SXDA11sLKyduw5bfCK1pPmegUHLz6KQyBIpJOm05P77j28zH185sry/mRzCmOKkHJo7pJuvr59/UPg/WWS1TVE5F4URwphmMDzywDDZ6PHuDoFT9qcUUBiXpp1cOrKnn6+vf0Dotoc8jBHGGCO6jr42TUQRY5H+LvCMHgCguaMy/5s03TBg6IyICXJFDw+vWb9gIrP92WmWSq6Tt//F7Tc7vfeurQP1aDRZZUmEC68vDxt7UqHPzA2zjYn046uXjR3NO3R4goUkQghR+Q92Tb7wgd1zwtIRSroWktJHY2Njnkwwt6QjhBDOu3TuJmk9pasuHRGM/IwXDPuBs8NN1cknBxYvXTBFySx6sjn969DKHmwcNiSyzDN83lYbFd6rpL0bpg9KLTv6d1+dbydMXj9q3F6u+6RVc22VStPidi7YnCpAnSq+JTP/GR+67JV9+J87XJTzru1YOndYjsSp9UGqcKHbTIn2TNz0RJVMYIyRMNH5Uhj/1tpRaz5POX4yRE9akLLUayLGGGOCICgBKZyQ5OQXCPMjgmkRsuBAn4mP908KGxfR4XzI5fA5D3odPfK3iTzO2t6zW6qwaIwIkW5zERYFWRQAoLnDfJ7l2I1ze6oQCCF7S/T4yqSbt96QlgYKqloqcnRCktlGU0uLjhBC1Jvjm6I+WE7fvSBEh4aQTQfFN3dDDh28OnKlpwxCCHEfp2tsPbHck00ghFB5qa/qifiYx5MsrRgI4ZyL525RdrP9NGgIIRnX6TtdKwKw1B11MW5B8oNcbK5WfcxjnBu7bd9zg1En1oxqz0AI2TvaqxUEjNm0+3a3hc5S1VehKGlf1Au1/vtWj3SUQQh1tDUjXvrMv13xbdn13VtvyfXasWZsZzmEkKUh95H37L0ns7qONPgmGQPNxDen4ejoaIRQcHCwmML5aSLLomoojOTkFrKMzDSkMMm5f/bSa9IdY0xT02mTc+LeW76NHo1z7WjcG9IDY/Lj04flOha68gp6ZgYsks8jObmFsvomunIIl6SeTXgm0KnM0ETbhgRZFACgNWGYuDgoVaYv0m00lYhnRSU1TlmScvsJ2S68i2ZFI45Ee1tLuV1PH2eRniYIIUTTDRjgxq4sSso2yF8jKiHm4RSrjhI4+8K52zTnhT7fD3dDyKupyaL0Mi5GqHoWJXh6N5mrE+JmVHUklXfycpI7fu9uJulsUi0BIjMfPi1hOnaxkan4gKbi4GRMr8iiyIw7d/PkHD3s5SoWx7SybYs2PkrlIQMZBJqj6qfh6OhoYRaFMW4piZSonlOjKIwR/rosCdeRUw2njvJOUFRQte/v7ypTRlEUVgmePiFxakjnKLU2Km3dvRwlSQoLcq+tGx1xMxtLy6pY9P1rjY2UstIk1wmzfX0UFNkd+nh4KWcInwRE3y2kceANMACA1oSmoKhYLbUhEEI1X0tSRfkFAvLRuq7m6758RiGd0tKKyelsFaVqx08J66AA3YNnYx5M7dgxL/HcXclOy72E35O5yUd374+5lfo6u5AroHhFHGz63eIEhZwSgsliViuRzmQrEkWFxV+HRxUXFSMmm/UlsaIpMqtWiSrIL6QKT/1hfbrqa0xRDGZpOUYyIjvaA1GqyqKio6OrhtaMjo5uKYmUqJp2JAK2PQtA3zTuSJuHbYsNq/pzAEIIYyRnNXLn+ZFVn4YjhBAauufS0OphIf1eq0/3qvo7FCGEEbvf/mf94I4eAAA0VH2vHGnyivJ0hvXoPYu7sr/MQkiydRgI8RD6uikJIUQ3Cww0jDwWkzJVOz02WcZ9rRuTQAjxH24cEroHB8ycvsrFSE1ekryxtNvs998tjqHIksfpeRyMql7yISjIK0RMtuLXy6HJKcijoqJiCqGKRApzy7gYKQi/VVCUp6s4L9k9ugO9+jxtFCCFaq6Ep+EzZ858Mzq58M+goCDxhFVvIu9k3bJAFgUAAAghhOh0Gi7nVo1dKWdtb0rbnvZRaYKjar1SELpxYJDJ9qi4i/oZyfJemzrJI4QQ+ebG1Qy6x7qFA91kEEIIZ5dyuDUcdhkWTrayxy9fSp9saSI8mBbfPH+zRNW7o/7X/ZnoBh1MZPfcuvqE52otiRBCuDD5bjqJVCtisLdl7Xn0SqDXy1QKgZZAeBoODAwMDAz80bcivG0kcpBFiaqoX5pFUe/2DfRZcpePEEGjS8mr6Jg6Bw0bP9xTt1kdJ8js2wcith6+kJKVz5dkaxlZOPX4Y9r/rBR/cvcvu76429SMsP92D9KD7qAANAK/gFOKcXkBh0tpydb1jBpdr11bRlT09v9sQ80Ykhr25np9J/U7Mmrh0CnvhgVaacgKCt8/T36t+b+JQbo/qJh0/YAgiy37Iw7ksn23Owm7IdGUtTVlyp9dScp09dKi3t4+vHrPQwIZfTcvwfILH3Vw4JZJ02Un9euoys9Kilx7orzTwqH2kt9Mqeg+uI9u2MFZs9SmDrBml2Ve3LPr/peTrEznUeMc+y37Y2TZyP6djFj0stzMR3cFneYOtfu2HNBM1Oc03MzTlGYeXkvx6x+jlXAYt2vf3sjta+cOdaLd2vzHoHnxeSL/6agPB8P8lt0T/Pyc5Q83Dhu+6irdfdyS9euXzRze1QR9zCcb0BWBLq+mo6elJN18rz0AaAG4CVOdOi1I4gkeberpNPTQ+7q6k9I0es//szvzzqpRg0fMO5rGRwTTZc7B3RNt8s+unTFq6IgJf+649FlWSa6WQx1Nyz/IJufla1X/YLuKKzyC6T9r5VCdewuC7S3s/MftL+q9YV5n2Zoqt6TpqB375roWnlw0ZnDo+LUXJYNWHozoV0PGJms/bfemofrpO6eGDhy5IIrjv2JlL62qEukG/9tyaGUPVvLeP8cPHzZm5ppjT4jqvajETPDh2o7pIe52lhYd3QfMP5FR/vXXuCglcnyQk7WlncegZfHvhONvcdOPzuzdqaNlx8595hz/do6Wr4lfMyJyjR5xqcUT1ZYk0tPTRVXWd6h3+wb6rFZdd3+jv/CCiv90Q6/eO5XmX9jzP3VR5m/Ux3+H+e1sFxk/x/YnG9cEd5f6DD7juO3CCnd4FAYAABBCKCkpyc3NrepPKvt8xLY3jsP7O6kV39kwJvxx79N7/qdRdQzn3V8ZPO1T+P7lgcz0HWPG3ut+eHuIWubOAWG3gvZsGqT98fDUoUctd0aNMW42WWFjJSUl9erVq87JaDTa0aNHq2/JZiIpKcnPz08gaEDDw2+CwWDExcWJ5Kdp2iHdJIysTOWoTx+zMRLcX+5l5ruq2gs9S06P7WA+8nhB5QinPxjJl8za1dcq7N/3bxNXDfW162DZd/PRFT2D/rpe+mZPf1NjY2PzUcIi6j2gMEaEBKPm7VDvGHZkkLxLM+3M+0e+qbz2KMuMXTeuRxdbSysHn4FzDiRzoO0UANAi0VS9Jy8Y6qIlQ5NQtfNzVv3w5lO1RhYy7dIVRuDQAG0pmkKHwWF2j89eyiE/Xr340S2sn7EMTcag9xCv/Nj4jN/rVYdN3OAhcqJ5o29LJqot2bS9y6lPr16X0jU0626Iqn0kX+pt3PzRWeVOofP6qKmZOrfrpsIb8cd5u3UHxlkwkLSSAlHvAYUZZh5u6gdOrFxspzozuL0CrYExmGnR0ZvqK/r53JzBU28aDJ+9ZaFW2YODy1eNmIiORQ7W/22uxQAArRH1+cnjQpO+1QcD5b959VHbs6I/qLReW/U3L17x9DPfaxnqCd9xw9Bvq/32zisBavcbHQDrkyE15yyqmSd5v5oI170JsiiyvLS0pJxb8C71StT6LSks3whfFQLVfllSy0i+CCEkeHO/ZPqxAyONK95DRaoqMAi6vKqWlhYDoZ8ZUBjJOs/YOp8zaeWM7jFbXIP7Dwrr524gRzQgBl61QsmnBzfFcj1XbpjaTZlAyNqUnuY7el/UwwEzbeChSABAS0W+Pbkksjx0s2+1EbJweVkZlpaWFv5FSEtLcUvLKG5ZuaRMRTdRQlpGiiot5SHUrB4sahzIolo0Ea77r7+jVx4/zd7KuqOjW/CQxfG0rksiF/sq1dUDu+aRfNMepVakKoSUU0iIkcQP5xcOKNzl2wGFs+/dzfwueyPkzAZGnD0ftWKIdUni+jGBfkP/vl+IGxUD9fHunSyatUfnyhWVsbI1pb1/8jS3+XY1BACAWpGfExeO3S0/bf3w9tUPfISkjAzB5XKFf2Eut1xGVpYmLSPFK6sYHAJzueU0Wdnf63HDFn1Hj8VikSRJp9Pr3xf7d0Kn00mSZLFYItmYv75pRNJp8q5JjtIScmxNPV0VmR+nbdV2t9pG8pVECBEyyso1Pi9Tod4DCleSULPuMd66x6iJiavGTt4wfbN97BzLhseAC/ILKP69ec6m876sEkVYlJQ20yoFAAC1onKvLB+9pmj49tV+bb65Lyepb6j57uVrEnWgI1SelfFJ205XQr+tzvvnWXykK4WQIOvFOy1D3d+rIR431wypPhQUFJ49e2ZiYkKn/0Y3WeuNJMnU1FRFRUWRlPbr92uCbWhra/v9Vci3w5Hh0uJSYX5Sr5F8a23OqveAwt+Q0vKaNNzl8OxHjz5T1g2PgZBnKtCku8z8Z4ZztfUmZFS1W+MOCwBo4XDB7XVjFmf1XL/aV4VfWsonCIakDP3V8SWRRT3nhVka+3rRJ+6N7besK/PFwQO3DL0nqzLUPXz1d+8/8sJuoPbHE3sTpN23Gv1eh7/6ZFHNNtMyNDR8+fLlgwcPOByOuGMRAxaLpaioaGBgIJLSxHZ1QMgpyKHC/HxB5QsRSh+lPBcgC4RQ7SP51tihis6gY145r3KPrfeAwt8hcz7nkBLqyvIEXeknY/iCpmlnqy04l56nEdoF3uAAAGjZcE7M1j0pmbyUHvaLEUII0dQH7rs4Gz+9djXXoTzUUsZs1Iph82b1dZxdJtcuYMbqAbo0hLQHLJqWPmN4p1UFknruY1eM6vB7NUW17CwKIWRoaCjuEH4TYtux6fqOTpqbj+/cEWwUZi1flBa/cUNCUdW3PzmSL13L2Eg293xkpLuUoxxD2cJSp54DClOfj8+ZdkXBwbKtdhtlWd6HlJgDB59p95nsrkggouGjCTM6hE30OzN92lA0KtTLTFWyPP/Ns3t5ZuPGutfZJQwAULNf+XoAQcrKrgMT/f6NmWZJJx9v7jPivOeuY+M7iG45Pwq+5O6KvmFHmeGRkWMtf37IOsxJWtBn2uuwo5GDa9wmuPDawl4TMwZF7R3SthHHekK1/94n/b//fF58UsX/ZEwHrD014OtvGXpBi6KCFjV8sc1bS8+igKiI7/JA0nbChvlFS3dN8NuhKALBAAAemklEQVRaJqnWvlPfKStDV0x7UfEt3eB/Ww4xt23au/fPqA9FlJy6kY3HkKAfHtMUfKYtGzRj+fbwwdtUfBcdXaejajpqxz7Wxg0HFo1ZX4DYho5BKw9O6PbdgMI0OUNTtRNHjmyJ+lzMo8ko61u5T9o1IdRZgfj5GL4qVz1w5T+yuyJ2Hl4W/ZYjkFLWt+oyoJMUpFAANBhdXk1Hj9sErweQU9HR1VGVE2mZNQZPZccvmptoMHv/qoFmDRn1l3tv29KT0v/7t/+P0kpC0SV8vGPA4uXHfXeEaDbt6IC/O2GGdPv27by8vG++UlJScnBwQJBFtQ6/dOxyAABoCaq3RTXdUsmCNy9L2G015RuU3+DcU+N8F5RNj9/dv7YR+Li3FvsPvRYcdWaqRf0vmr8Zuxx8Iykpyd/fHyGUl5e3efPm/Pz8qq/YbHZ4eLiSkhJCiE6nnz17Frbk7w2uTgAAzcj23mYdx0VXG+qffLjGz9R51qXSr14PIPhweevkvp52FqamFnbu3UcsPpNFIsS7ML2jWcju11VDilBv9w4wt5txUTg+CS56enzlxIHBHo6W5pYOPgPnH0mt4Y0GgpSVPua+ax6SCFEfDgwyM67OtM/OTBIhVJ4ZHzE9rIe3i7V5B1v3PlMi730JuexlzPoJfT3tLTtYOXn2GBv5iIfQt+824L6KXzeub/cePX06ufqHzt17K5v8svSO40+nX4oI79HZ2tzcplP3cRsvf/q+LybOTzp7jW8f4K0mPIrj4mdHFw0LdLE2MzGzdvHtP2nX3UKMEJLu2NVH/XXsucet920fv4TwmXk2mz1u3LiqZ+ZZLNa4cePYbHbVQ/XiDRI0gd+swx8AoGULCLLatPHcpfygHsJOhIJHMfFvVHz+dJJFN6smot4fmTVhV3HveRFzjaRLPmY8uF2orESr87kPgpGf8YJhP3B2uKk6+eTA4qULpiiZRU82/2HzE02t1/oEz4oULDtm7oiIPBcHDTpCiF78Mq3MrPeUkR20JTKPr1i0apJc+/jFrjKIen9i6sDZtzV6jV0wtq100ZvnHAMtCYT41YulPkbPGDjjjv7gSatnGkrnPTi+ZcOIIR93H57lILyNWHZjxYhMu/6jl4a2QW8v/L1y6+SFunFbe6h8dTuQ9+BWMr/dKDu28NPy2+vHLrhgPuWvXQ5qVN7rp7dTWcrC8YMlzB1tZQ/dvfuWtIaXJ4hOVYYkTKS2bNmCEKpKob6ZBvzGIIsCADQjWv5BtutXn7uU172XMoEQ/2Fswlt1v2A76eoTUR9fveVrBvUKdjWXQMjS1tW3foXLuE7f6Vrxf0vdURfjFiQ/yMXmaj/sakWXU9WSQwghnH1uzZ5kzWEHxlpJI4QQw2LMls0VE9kYj795LjzlfhbpaoIfHNhykfRZvXNpkDKBEEI+3xdKPj6wKUHgv37LbH8WgRCydzSjvwtav/lE6N5BmgghhIsVg5etHWspgRBy6Kjx8Ub3yBuP+D08qj/XQr5Pf1EiZ2SsJUyMcOmbrBxp8659ve2YBEJWDu7BVZNKtm2vjy6lZ5IIsijRqZ4hsdnsP/74Q/gfyJxaG7ijBwBoRmhtfIMc8K1zF3MwQoj/ICb+vXZAN5uvH4xlmHUNNn6zc+Tg+ZGJzzkNe8stIa+mJou4leNr1wpnxyxbmqg8dMlYq5p6gUuqqisR5WU8hKj3yfffMzp6d1H+cR946sP9+28ZHd1dWZXT0LXdPdsLHtx+UF4RmpK9s2nl8OD0NprqNG5RMf/rUnBudh5SVlOuyIsIpmt3T9kL8/qFrzt+913ZV+tEV1FVoZXl5JTA6V2EvhkOm81mV7+RB3f0Wg/IogAAzQmh4h3sSr997kIORrzkmIRPhoFB5t82mktbT/znRMRg3eeRk7p18QpdfDz1B68lqP5OBETmJketmjykd1fPLq4uLl0mn+bU6yQnzKFUhi4Za1nZIoYLU6MjZo4MCfR26+Ti0mnYvlfCVA4XFxRhaRaztifucCGnEEszmdVa12gsNosQFBdVvN2AJq9Y/c3oBIHQd6djLODzkYRE1atYaBrB608cnNWFF79skFeXbpP+vvaxqiMUQ4KBkEDwTR4GGqWeLxsRd5jgl4MsCgDQrBAs9+AukndjEj9z78ecz2kfFNSuhhtRhKyhz9hVhy8lHVvkw4ueM2zRhUKMvnsnAi4pKa7s0M1/uHFI6NLLkj4TVu3+9/ipU8cWeNVnUFycHbtsWaLqsMVfcigy88AfA2adLnYYueTvQ8dOnTqxunflMAJyCnIEt6CQW9v6MVmKBJfDqdaxneLk5WMJJqvqnVJ1x0WTlZNFxcXVk0e6qm3/OTtjLsfvHK3/ZMuYcbvTK1K7kuISTMjIysBQKyIEWRQQgiwKANC8EMwuwR6y9xPOX0i4mNchKMCglt48DKUOPWbN6atb8PTROwrR5OXlECevqokJ5z1KyarIosg3N65m0D3CFw50szDQUldVkSjl1H03D2fHLluaqDpi8ZiqHArhwrtJyTy74X+O8LEx0lZXVVXgcQqFJdE1LS3V+PcvXMn/ccm0NvYO+oL7F65WTUO+vXjhOcPKrsO3b0moBU1DW4PIffPuu4cMCVndziOWjnPBaY/ShP3iqfev32FlLY2GDEkFfgSyKCAEvcsBAM2NnEuwl+KEfREv8m1G+mt/f61HPj20+FSZpZ2ZoRaTfH9jT8w7loOVDh3RTZwdmP+c2nbIZ2FPY8m8RydXbb9NVr6dU1lbU6b82ZWkTFcvLert7cOr9zwkkFGtceDs2GVL4qS7rw9Syn33DiGEEF1etY2slrYSlXj9wvPA3kb0zymn12+9ykNshBBCEraho51P/7VwNDMnzMNAjvvh2WPUZXKIefVS6WaDJwWfmrwkfEXpSJ+2MvkPj2/c+Fin/+7uGjSEqO+jqBGhZGauJTj7MJXf3UECIZyfGLH2sZqzVTtddcmi1Oh/7tFMxphKIoQQlf3o4TuGSYeaWvRAg9UnQ4IsqjWALAoA0OzIOAb7MI8dyu80wk+jhgZzgqkikbZp3ZH1OaVYWsnAxnfB9qnu8gghRe85EVMWrdg1zGM5T1azg+egvxYpTFlCCefxn7XyyYI1C4LtJ9HYhk59p26YhwZH1RpG6Y3TCZ/55f+F+/1X8QldM3R/4nznCavH5yzdGOK4kFLQ6dht/LJl0qPWVEyg13/TfqmNG/btWnDsc5mEqnGXcd7fha/iu+Tgll1rt26b9u8nnpSGuUf4zulDHeV/6o4b3cStk9reKxefCBysGYiQVmEWXY1ctPtdAY+hoGniOmTj9CGGdIQQzr166SHdZqZT7a9i/1rVAEjgR+rMkOh0OkmSbDa7aeIB4gJjlwMAQEskeLaxZ5+j1n/HLu4s+8OJyKzIgUF/q62Iiwhk1z+NyszM5PF47du3F0Wcv6GkpCRPT8/ap6Eo6tmzZ1JSUgYGBk0TFRALyKIAAKBFwgWX5nSf9CrsxMGhP+g7hgsvzQ2e/HLwkUMjjH7yhl5mZmZhYSGHwxFBoK0Sm82Wl5c3NDQUdyDg14IsCgAAWihc+OD4oRTV7oO6aNaUJOGSx6f232EGDfbQgc4bAPwSdWdRKSkpHA7n8+fPTRMQaBpqampKSkqWlpaNKSQrK6ukpCQ7O1tUUbUgqqqq8vLyurq64g4EADGAug91HwjVkUWlpKRQFOXo6EijwZgIvxWKom7evCkhIdHgRCorK0tSUtLV1bXuSX9TV69eFQgEcDAFrQ3Ufaj7oEodzbz5+fne3t4YYx6P1zQBgaZBp9MdHBzOnz/f4BKKi4uDgoJa86O8rq6uZ86cEXcUADQ1qPtQ90GVOrKo7OxsgiAEAkHtk4EWRyAQMBiMxjTI5+TkUFR9B7f5XeXk5Ig7BACaGtR9BHUfVKq7yyEMwPq7EsnP2pr3DYKAN2qA1gvqPgConlkUXHb8lhp/EIQMG4DWCeo+AELQFtV6QRYFAGgYqPsACEEW1XpBFgUAaBio+wAIQRbVekEWBQBoGKj7AAjVnUVRFAX9on5Ljf9ZKYpqzUdS6GEKWi2o++IOATQX0BbVesEzeo0ER1LQmkHdBwCJLoui3h8aMej50NhFnSVFEhf49eCOXiO15nUHrRzUfXGHAJqLut/rIhzp4Cv8p5v79t38lP/Vhxij7yasS9n1xYEjDr0VkAUP4q6+EQg/FHy6FXcnW1DrjGRB/Ay3zlPO5ZPVPuRmJW6eNrBrZ3tbOxfPnqMiruaR3ITpDtZ2g/a8qlYc/3FEj442/ivu8iiKovhvE1YM7drJycWzz/SDj4pIqvUQVRbVmjVyAwLQQom75omfuH8B0FzUK4v6Bv9p3AW6p48x7atdCtc4ba1Kb8fe0Pb2UEcFV/dvS3onwBhjTH5M2LX3Tg5V24xUftK55xpaGTEXcyunIz+emzdyyZ02A1dFJV5KOLptZv9OhgoIYySnp52XEJ9JVs7LexiThHS1aAhjjMnP0StWPrVfHn0l8cAo6cPztqWU/+Q6tGyN3Ht+VCz1IbK7OltZWVlZWVWznX3wuIiL73hNuV71QH64fOLqJ7LuCWvVyA0IQAslkkqIBU9XdVZ3XvqAL5LSKM6dE+dfCURSVt3E/QuA5qIBd/T4j+MvyXivNSAw+fHK5r/WnHxSJKPXqZcFxhhhjDESvLuwacmmc8+LJDQcQ+fM6cXf3m8RsTBqspUEQqj81rLe69hr/hlrQi+9GXdH3+cP+eRt49Zefl12v8cVObMBQ5XP7kh+SY3vdlrWcXw4itilHnFwlDENIVyUMLvXIdNdkWF66POFmJd2Y6Yx1h9I+BDUT4OGEC/lwLZ7FlOjJvoqEQgh2bZ2agghzMMIG7m7Z56PSwsb056OECq/H3Nd080lL5HEGOPiO5cfm/ddZK5AEArugwIiJ8c9nGBlW/dGacY4HM6ePXs4HE71D1ks1tChQ1ksVvUPG38g+NHRBGOMJIO2Z+zrJcMryLp7av2c4cEvtsRt8FNuNp0JqLcn127kLA50UW14SHAkBa2WSDIJ/oPDp5CZRPThe1MtHBrdFwTnJ2xafnNYV0/duhsHGr0sqPug0s+3RZU/iL3M8vbUIaicmFV/XdaeFnU+8fgq93fXHgmEzTuv/l2w+rnTshMJsftGSP63YOczYy834nLiEx7GGHOTz19X8PQyomGq8HrcfWPfzkoyNqP+GmSiFrD0ePSJlf/rNmVWd22D/hEno4/N83UNcC9JjE8VYIypwuvn7+n5eGkTmHyfEPPB1d/e3q9Lblz8GxJjTGbduVto59OZ/W24CJPIyNsTJ8Y/42OMcemd2LttfV3kKYwwxoIPr9+z9XRkEcYYE1r62kWvXnFqbQVr/phM5pAhQ5hMZtUvWPXJ9xM3cu+p7W4hwpiiKMxQ0HUatHbvLO3oFZHP+BRFCT5eXPk/V1MjIzOXAauSskmKIvNvbx7mbmHc1tDYwm3kgTQ+RVFFjw9MDuxoqKVlaN1tfXI5RXFfnpzXy6G9gaGxjf+EfQ8LSYqiuDFjrYdH7Jnob2Osr2/qMfZgKpeialwERZG5t7aO9rbU19Ixtgvdc+fMrIGrbzz5O8TWyn5idCFVfGfrMD97c2MDgw4+E49klAsLtx3/X/yyXtY6uiEHPv/gVm8jNyAALZQo+hRwbx8+q9R/yUCNuMPXS6s+fHlqXh8nY21NfXPPBZeKazxiZB/o7zB+07rBrmZt9Y2dBq69lkNSxdeW958b9zJqpL2Vbdi+1wLeswPjgpwt2hkYmHQevvthKUVR5TfnOQ/adXHLYAcDbZ8Nz/m1hFYP4v4FQHNRdxb1za5Tdi/uuqqXhwaiylKuJmsFDXBSolEM1U69vXXpGFOUIOtCwmvbkD7tZBCh5BLgzLtxLaudlxvjSuLjcooqu594g+3lZUBQJOdq3CNTbxcmpiiKwghVdb/ClWdgimJ08PekLsQ/4VFk4Y3EZENvd3VECV7Fxhe6+ZoxaCa+Htz4mBcCihJw8ovkWEzG97s6xpgw8PKSvhj3qJyiCq/HPjD1dZavWARZVlouKSVRsWQkKSXBLS1p+V2jFBUVw8LCFBUVMcZV/69xykbuPbUkc199S2h5+5tm3LyTT5EfDk8dH99uxeWnz66sNjoz/s+4AurTiRWbeaNiH6elPTy/bZK7Dg2XXl82bOXHbrtvvXhx58S6kHYM/rMto+c8cdt+My0t5dgwbsSwxVeKMcYYc87sv+e5/Xpq+p2/HR/+tTa+GOMaFoGp3LNzRkQSIw6nZKRe+/fPAMuui1b/T7/dyP9u37+5LkAOS6l3/N/y03efPb+52vTqoq3Xhfd1888t38Efffzh4z19lH+wro3cgAC0UA25wvtG6dXDCbo9u9kG9zK6eCRJWKH5T7eMmplst+ZyWkZKzPYR1tI1VWeMEPnmxOnSP06mpD2NHS+xd+zii8UyTtO2/GGp0Xf7zfu3IwdpETRl817z/rvxJP3+Xq8Xy9bGFGCMEebdXLcqo8fe209PjDak1R5eXcT9C4Dm4mfbokrvxt/U9HJXIzBVyikQKKkoE8I9iqnEIhDGmMzLySu6tKSHv7+/v3/Q7Jii8tISop2Xu+TVi0943JQLN5Q9PHQJTOVfTXhq4eOsiCr2R4yq756V/6Ob+HtLJ8U/Li+6kfjA2MdNlcCCtNi41NeHJ3b18fEf90/mi/jYp3yM5BXkSvI53/e9QQhhTNPz8mJejnvA5VyLf2blYy+LkHAZSEpaqpzLrWh9IrlcvpSM9G/Rb5LJZIaFhenp6YWFhdXYCiXUyL3nx8v/6vfEmGCxmKikqIjMSzxxzSR0rBObRjDt+gUqXUlI5snp6kk/jo66+KKIrtyuvYYE5qWcicU9JoZasCUkmDr66lKCjNhzb91GDrNQIJCUbrfwvrJnj98qxxhjumGPYX5aEphg2/s5yLx7nUNSNSyivOxGdKL6oMk9jeQZUkoGesr0bzryEZp27paqEoim3KmLWdGHT1zhpwpdJ0330lWQlZL4RRsQgBaq3oeiHyq4ePhK+15d1WjKvj0trh89n09hLHgRc/at+x/jnFQlJeQ1DTTlcU3VGWOMJDr2DbVl07CkXq/R3SQvn3/Iw9XPHBgjJUs3Oy1pAilYdukol/0hn8QYI0S4jpnfvR1bVlqCaGT84v4FQHPxk/2iSm/H39X3Hq1CYIykFBXonLw8EsvQEMLFRcUYY4QJRTZL2X/OkZn2EtUKIT3dpedeeuDAva3utVGbwFTO5YR0mx4L5av2fISp6ntm5UIJfV9f9tTzt0zzH5t4T1MmMO9RTKLkwIh/emvREELU2yMzlsU8HGFmZmEuderizQI3d8Wv+rkI8yhC08NTNTw2QS/vpV1/W2n0puIcT1PX0ypKfFNCmSkQiHqb9U5Op6fC73LLm8lkhoaGoh/fwhfJetZYSMWHX35QKvtzLo2tpEjlfMopu/5Xlw7LEEIIC8op7yJKNmDx8ZU716zr7fSnZejCZZO9VXOzC1RsVGlVs5O5n/NZbVQZwg9oKm1USh7lcjFGiKasokRUfMygY4rEZA2LIItyc/lqbaqViKolegjx357fvHJHQloBpiHOS55xgPD5RZq2njb9N9kbABC1RlUNnJ9wOOHdpQQXk3kIUeXFFDc2J6gfMzcnn62hxvhS9Ws6YmCMEU2RxRTWfJqymlLR04Iv5w+MMUJUzo1dK7acfpQtoBHFb/LY4VTFIV9XRxrqNBClemVRlbd+cPGN+GQjr3A2piiMJDs4Wr6OirrtO95BgXPzZEImaYYpCul09lSbsv+fB4YDLNi00o9pnyTaGSjT9D3c5f7c/w9P3WOgOqIEny6df2Xbz1ZaWDKWVZAveZXxiWerQcdYTlEu9+mLfEFbNoEIArXx8FGfsusQ13TAZCamyu7HJMl7rrNQUxG2oikFeDEnnbszxso+pL/2mDXzdhHje9hpy/I5H95xVUz0ZDBCmKIopObmpbUvYpdi4EoLBvXlDqKMrbvVlmNRj52HtCu9+u85jsMUE3rjb3S1EI0/lvzomgx/uaOHEEKI/yL6TJppNzsFmqwyW9577PVdPRSqT420PcZt8Bj5/sLSIePn6F/Zoc1WyPn4WYB1KjJxQlmNnZ/+iYcxHSEk+PQ+W15VWaoiz65I1ir/IZg1LKL0DJOe8/GzAMvTvyy2agU+Rk0Pj7M68O96Oxa96GiYbXTVehGo5hWsvpoAtEKNbI/Bn84dTem8+vxiN1mEECq9OK/PsTMf+gxisRU5Wdl8YU1HCNVYnXEewlTu5xwS69AQEnx8n63IVkRYeM0szKaKY/8cuV9+w9FoL3UJ/oUp9hGV8RK11+l6xw91H1T6mTt6VMH1hMcmXs7MivOjkt/kmbbpKwd07dp3RoJegJuCsJO2fsjCqeaPVocFeHv7958ReTuHwhgTuu5dJO4/UPPookZg8uOlC+8cvG2kK5tGFTv164GjRgR3m3z4DdbyGdD587aBgT3+jM+nMCZU3X0133ww9XJWRLjkTuw1FQ83rarGWELbw1P9RtytIrp+v2VrQ9skbwnv4+Pl22P4/EMp+ZVXJxhjQrWLV3uK3cXbjFFZhzDGGDE9xk+1eLCwj7d/2NZc37mj7aRxa9LIvafWgjHGGAvKPqcmbgsfsrl0wIx+ugRS9uhun7x9/cX3XIzJ0g+Pn7wtp4pfPnyWXU5hCZX27TUk+DwBw8Lfizy1JSq1iKS4n9Nf5hL6/t0NruzYlVJAYu6r01uOlfgF21b8kNWXiRHGNS0CSzt27fL2n80xWWUUWfI+PauAQopshc+pqXkkpgTFeRyadnsjRRouzzobk8z/cor41RsQgBaq4QcdjDEm30Yfe+bSJ9CwjZBhcB/XtOOnspChj6/Kxb933M/nU7y89IxPZE3VGWOM+CmH99zM4VNlGYe3R5NdPDswMFJgKRalPXvHwxRZlp/HVWtnqsLA/E8Xz97gUJUBf9PXoBHE/QuA5uKn7ugpei856o2+5OE09c7jN3UeXzllj4qv6GouI1a4jPiqCEToDtp5cZDwL9Smz8YoVD2fV7QbvenI6Mrp3aftcJ9WNSvFLeXKOQU4yCOMZVzmHnf5ak5Cs9/Wk8JSFc16zdjYa0b12JHbohg34eRKQWtig4SzEoZDdlcun1BxHrPeecxXsbYSjV/VH3VRxxjj8pjwdtrjCUl5jXYOfmMOLe1vLY8pCrXps2ZjzvxFQVYjCygZDeuwFbvbt39xZPKswy+5ktIKOu6TV3ZTxjIus7aFL5g7yHZ+DmbbTd53aLTZ0E0r8mZN6LzlE1/eyDd8+2wXGYriVT2UULk2uOZFmGgoBS3ZnDVnYTfL8AKijc9f/24N0esxxu/sQvcOSzsvOjd/Qu8LSwO8/2YyDQMC/QyuUbhae+WPWybhLRCg1WrU4ynky5MnXnWZ5CpbVYRsp+7uc9eceD5s4rit8/Nm/eG84QNfvv3wbadmOn1fndtQGMm5dpbd2cdu6Du+usvojTM7SVMUZvmMGHxkZqDVlg6Tjmz6Y+yZeX28opgKWm59u1q/xNRXDy41dvWh7oMqRHp6ei1fHz582MfHp7y8vMkC+haVf2v9+A2MaXsnWkuJLYjfk5SUVEJCQkhISMNmT0pKCgwMJElStFG1IHQ6/ezZs25ubuIOBIAmJea6j/P+C3W90Pf+jm4y4gkA6j6opu62KJE8Et8wZVdWhK64QrTrM2eRhUSr6a7UZEQ10oFIgmmJWvO6g1ZOnHX/Sy9ysVVAqPugiqjeRvxLSHeaefjMzKowxBLDb6zxmxSyKHGHAIB4iDeL+vrpFbGFAACqTxaFYI8BPwb7BgCtk/jqPjtk7+MQOPiA5qFZt0WBXwraohqpNa87aOWg7os7BNBcNOt+UeCXgn5RjdSa1x20clD3xR0CaC6gLar1+nUjHbQSrXndQSsHdV/cIYDmoo4sis1m8/l8CQkJHo/XNAGBpiEpKcnn89lsdmMKaeUZdmted9DKQd0Xdwiguagji1JWVn7x4oWhoaGkpGTTBASahkAgePnypaqqamMKgSOpuEMAQDyg7os7BNBc1JFFdezYMTk5OS0tLT8/v2kCAk2DzWarqqpaW1s3uAQWi0WSJJ1OFwgEIgyspWAwGCRJslgscQcCQFODug91H1Spu1+UjY1NE8QBWhwFBYVnz56ZmJjQ6fS6p/7tkCSZmpqqqKgo7kAAaGpQ96Hugyp1vAEGgFq8fPmyqKiIw+GIOxAxYLFYioqKBgYG4g4EADGAug91HwhBFgUAAAAA0BA0cQcAAAAAANAiQRYFAAAAANAQkEUBAAAAADQEZFEAAAAAAA0BWRQAAAAAQENAFgUAAAAA0BCQRQEAAAAANARkUQAAAAAADQFZFAAAAABAQ0AWBQAAAADQEJBFAQAAAAA0BGRRAAAAAAANAVkUAAAAAEBDQBYFAAAAANAQ/wci0slbWKZzEgAAAABJRU5ErkJggg==;fillColor=default;" parent="1" vertex="1">
          <mxGeometry x="305" y="610" width="454" height="272.63" as="geometry" />
        </mxCell>
        <mxCell id="sbGdN3Yiho158-mzq0W8-212" value="P" style="text;html=1;strokeColor=none;fillColor=none;align=center;verticalAlign=middle;whiteSpace=wrap;rounded=0;fontSize=19;fontFamily=Helvetica;fontColor=#990000;" parent="1" vertex="1">
          <mxGeometry x="565" y="685" width="27" height="30" as="geometry" />
        </mxCell>
        <mxCell id="sbGdN3Yiho158-mzq0W8-215" value="R" style="text;html=1;strokeColor=none;fillColor=none;align=center;verticalAlign=middle;whiteSpace=wrap;rounded=0;fontSize=19;fontFamily=Helvetica;fontColor=#990000;" parent="1" vertex="1">
          <mxGeometry x="595" y="640" width="27" height="30" as="geometry" />
        </mxCell>
        <mxCell id="sbGdN3Yiho158-mzq0W8-216" value="S" style="text;html=1;strokeColor=none;fillColor=none;align=center;verticalAlign=middle;whiteSpace=wrap;rounded=0;fontSize=19;fontFamily=Helvetica;fontColor=#990000;" parent="1" vertex="1">
          <mxGeometry x="600" y="760" width="27" height="30" as="geometry" />
        </mxCell>
        <mxCell id="sbGdN3Yiho158-mzq0W8-217" value="T" style="text;html=1;strokeColor=none;fillColor=none;align=center;verticalAlign=middle;whiteSpace=wrap;rounded=0;fontSize=19;fontFamily=Helvetica;fontColor=#990000;" parent="1" vertex="1">
          <mxGeometry x="638" y="670" width="27" height="30" as="geometry" />
        </mxCell>
        <mxCell id="sbGdN3Yiho158-mzq0W8-218" value="P" style="text;html=1;strokeColor=none;fillColor=none;align=center;verticalAlign=middle;whiteSpace=wrap;rounded=0;fontSize=19;fontFamily=Helvetica;fontColor=#990000;" parent="1" vertex="1">
          <mxGeometry x="408.5" y="685" width="27" height="30" as="geometry" />
        </mxCell>
        <mxCell id="sbGdN3Yiho158-mzq0W8-219" value="R" style="text;html=1;strokeColor=none;fillColor=none;align=center;verticalAlign=middle;whiteSpace=wrap;rounded=0;fontSize=19;fontFamily=Helvetica;fontColor=#990000;" parent="1" vertex="1">
          <mxGeometry x="438" y="640" width="27" height="30" as="geometry" />
        </mxCell>
        <mxCell id="sbGdN3Yiho158-mzq0W8-220" value="S" style="text;html=1;strokeColor=none;fillColor=none;align=center;verticalAlign=middle;whiteSpace=wrap;rounded=0;fontSize=19;fontFamily=Helvetica;fontColor=#990000;" parent="1" vertex="1">
          <mxGeometry x="443" y="760" width="27" height="30" as="geometry" />
        </mxCell>
        <mxCell id="sbGdN3Yiho158-mzq0W8-221" value="T" style="text;html=1;strokeColor=none;fillColor=none;align=center;verticalAlign=middle;whiteSpace=wrap;rounded=0;fontSize=19;fontFamily=Helvetica;fontColor=#990000;" parent="1" vertex="1">
          <mxGeometry x="485" y="670" width="27" height="30" as="geometry" />
        </mxCell>
        <mxCell id="sbGdN3Yiho158-mzq0W8-223" value="" style="rounded=0;whiteSpace=wrap;html=1;fontFamily=Helvetica;fontSize=11;fontColor=none;noLabel=1;labelBackgroundColor=none;strokeColor=none;fillColor=default;" parent="1" vertex="1">
          <mxGeometry x="590.5" y="480" width="120" height="60" as="geometry" />
        </mxCell>
        <mxCell id="sbGdN3Yiho158-mzq0W8-224" value="" style="shape=image;verticalLabelPosition=bottom;labelBackgroundColor=default;verticalAlign=top;aspect=fixed;imageAspect=0;image=data:image/png,iVBORw0KGgoAAAANSUhEUgAAAzQAAAAsCAIAAAA8fWpLAAAACXBIWXMAAA7EAAAOxAGVKw4bAAASX0lEQVR4nO3dZ0AU1xoG4G9mdhd2WaqASEdFBBQMEooNUeyxoYmJJRoido3YEs1Not7YorFrrLFgRIliBUFBQMRCEUVQeq8CK0vbXWBm7g8MYSlKRJQbvucXTD17BmbePXPmDJGcnAwIIYQQQqhjID90ARBCCCGE0N8wnCGEEEIIdSAYzhBCCCGEOhAMZwghhBBCHQiGM4QQQgihDgTDGUIIIYRQB4LhDCGEEEKoA8FwhhBCCCHUgWA4QwghhBDqQDCcIYQQQgh1IBjOEOpkJOk396+eOWagTZ/evXqZmpr2dtr4UFbov26src2wRefS6Q9XstqYbS69TU3NJ+xP/IClQAihD43zoQuAUCdDi5PDfK/fCot8mpieW1xWWQ08JRWNboY9e/Xt7zBo2IhBZurt+G8pSzg2d+b2CDEDQBAEAACp6jDYCp6su54ilrAhfvdLpploE+1XgI6rJuz7QXO9RUxL8zkWHld8FvWimsygxUkhVy77h0Y+TcooeFkuZXlKqpq6RqaWtgOHjR43zLJL0+NZWxwXdN0vKDw6PjkjT1QuqSYVhCqausY9za0/dhg83MXeRLnpfhBCnQaGM4Tem9rC+79v2njoZmo5zTaYLCkrzi0rzk18FHrt1J6jc738vv2I2z4FYIv9dh+MFDOk5iCPXZtm2+lwpOKil6wmn1vk5NQ14JbMxrl/l06ZzN4SWxZ3ftO6HVcSxA2PqKSsKLusKDsh6rbP8Ssrr3vP794gaUmzgn7b+POJOzmShn8DUCUuyhIXZT2PvO1zfKf1at/z7iYYzxDqtDCcIfR+VMWf+mb+ltBCmiUotd7OE8Y52/XpodtFiaqpLC3KTnn2JDI8NPyZ+tSpVu2UzABAGnM3qoIFTt85P7g76FIAIFDXFQAA6E3aFzJWBjyFTp8IKNPZB3Z+ZtC0xwehqGkkVzts8Z1NbktPP69igVDUsx83aaxT/566GkJCWlqQFh8dHugfnGoxy7VByGJLI/YsXPxbVCkDBE/LymXCGCdbC2MdDQEhqygtzEyKj3l4N/Reutm0CUad/jgg1KlhOEPoPWDyrn23YEtoIQ38npP/8+t/plqoyF39+w8YPunLpaxUXAaq7XdZZkoLCqtYIJV7mRs03QvFU2i3Pf8fIRS6GJv26vHGo0Cnn121wvN5FUsomU/fsu/bMUb8v2da9R8w8lP3NeWllQK1+pbImhTPbxb/FlXKkKpWMzfuWDXWhC+3RduBI6d85cFUiSu4qtgbGKFODcMZQu2OLfLbsimggAaO8Wd7PDc6a7Zw6SUUVVXbtRySKgkLQCjyFfDeZdswRde2774vZgiOyed7T/00RL25CqWU1VTqf6EzvdbvvF/KEHxL90MnV9oqt3AISIGqSvNzEEKdBoYzhNobneh1OFDEAGX4+Ya1LSazZteM2/nJ1N8y+qzxO+9uwuSHn9y1/3xIXE6pDIzdvW+stqIAoFaUEHL92q2wiJhn6QUvK2oopS76vfo7u7rNdbXWeNX+w7yI8j5z3vfG7cjMWgDI95xp7gkAAJTel56BP3zMoZMOuk7c9Yw1dDsbsNZG/rTAVmWEep+5EBD+JDmnuILmCjX1e1p8NHDczNmfmKu8ShisJCfS/+qN2/ejniblFIsljIKqTve+A8bMcJ/lbCTfPgQAAJLM255Hz/rejc14UU7zNU36Dpn49aJZjlxuy2ekmhdRPqe8/O5EJ+QUl8koFZ0eVo4jXL+cMcpMvhGyVZXWVnTahVPBYgYonUnrVg1uNpk1Iok4+XtUJUvwLOZuXtZiMkMIIQAMZwi1O/q5343kWpbgWk+f46D0FhtgS4pKJMn3V361MbjwVb9zXjf9biQAQEXg2rGLL5cwAAAEQXE4ICsvTInyS4kOvPVk37n/DutCAAD93PfE1UgZ8IXccnE1UEqaOmo8AABSR+31jWiSRK81izYHZEnre6/XivOTo/NTU/lDZo83f/UJU47MnPhrbDULAECQHC7JSETZcaHn48L8w77945ibWcMbpnRB0Ma5Hl6J9R3iawoSwr0T7wcELlhrr0ICyHWUr9tnXuCWRavPxFf8/SilKPtpSPbT0EteTiv373SzapJ2XldpbUZnBgUm1LJAmUyeMVilNUFLFu0bkE8DIRw8Z4Y5750UAiH074XhDKH2xRQ8isqkAThmQ5303yobMCVpvluXnA8W6zjMmjNtWF8DZbqMMKx7qlJoP2q4WZbUefJ4l8E25roqHKYyJ/rijnVb/TIzLmw9/umQNdYcAK7TTwEhPwGdfnTa2F+esNquuwJ/tH/zPz8rCtowf0NALk0ITce4zZvmbGWgRlUWpj+LuR9NDxtSf/eNMnEZbXtdo/vEiWOG2vc10eKT1aLEoKPrf/w9uvTh/p2+4w+5av2VYGqTTyxf6ZUoAa6e8+J1y6cONNXkVBUkPrx6ZMfBQz/Fc2sBGjdtVUb9Om+5Z6KMULWcunjZdBdrY3VOVUHig2tHdx8PzQn5Zf4a9QsHXPXk6/Z1ldZWbEXsoyQagOo6YJBZqxri6JTIRyIGCIV+zoM1sNUMIfQGGM4Qal90VloWDUAIepo10wu/NVhJ6BlvJesFJ4572Ko2vrIru2y66tLgd0pJ3+7LzT8kRs7zfpEdfjeNtm5mZK7WqY45svVyLg0K5m5Hz6yx/auFSN+od/+hrnJLUj3cT11zbzCBp9F7zOrtBTGjtkRXRIY9kriOEtR9lLLbh47FVLIE33bF0f1zTevakFT1rEYu3GOhOnfC+ruyxqWgU89sOZ0kA07PWQdOf2//qhTKPe0mevS3NVo6de2t4ts7dgUN3z5Crm5eW2mvw1aL87IyOU1iNCnQ1tfiEwAATF5GTg0LQBmbmrTuFFqdlZ7DAJBdzUzVMJshhN4EwxlC7YstF5ezAKSqhlqTlFTtv8xm6Q35PKIwek/UvrGKctMIXt8FW5a1PmTwrfr15ni/qH2R/4KBtw1n1VGXrmXRQGqOW77EtlX37uSR3aysdMjobGlBwUsGBCQAgOSBf6iIAVJr3PzppvJ39yj9yXNG77/3Z5H8KLB0wtUr8dUsIRw6f5Fdo1JQehM9Zp0O3hVffNM7cK3LFPl2sX9aaX/tMOm428jjTac3OC5seXkFABCkqlrr6oWtFJfRLAChptGkfxpT+Mcc5/X3axpOI7WnnwzZ4Nh+Y6oghDo2fGAboXZX1+WJbdqXqpUInu1U157/4JsUoSjgEwCsTFb91julM2KeiBggBPbOb9VTDoAQCPgAwFbXl4JOj39ewQIh+NjJTtBkeb6NgzWvUXZhih/HZNAAXGungc30u6e6OzkZU8DKHkc8rZGf9Y8r7S20OvfVH4W3/yNACHUi2HKGUPsihEIhARKmrLSsyZuBuI6rz/u4101mRf4bFhyJrW1mE6RWL9MWeypJsu9duXA9OCI2KSOvuLRKRtP1AaBNN9CYgpwCBoDUNTZ88/hntCj+ps+lgLBHz9KyC0Xl0hqGqS9Fg5MMXVRQxACQ3ZrfJr+bbhcSchtOYgtyCxgAUs3IsNn7gZSBiSEHUmSVuTkiBnQafNt8baW9BqfPiusXFr52nDNCSagEACwjLi1noRXDkhBKQiWSAGDFL8WN0xnZZcyGP61ePerAZHqvWnUuAxMcQp0chjOE2hfZzVCXhKLayrSUXNpZ/p08hKqBZV+Dup+Zwlilli7zinzFZmdJEr1WL9x0M1vGEpRQp4epTR8NIY9DEFCb/ygktqjF10S2BiuVSlkAkq/UzFAYDTFFd7YvWnHiiZgGQkHNyNTSTktVwKMIYMVJdx+mVzVcViarBgBCIGx2m0TTfbEymQwACD6f33zlKAr4JAHASiWSRpGmpUprO1LXQJcikmk6MzWDBs1WnEV5eoZdSchkClPTytmP5JsAORomlhqvfqa5IYrNrI4Q6mQwnCHUvih9Kyst6kk+nXTvYcncd/lScWnUnqUbb2bTlO6INb9umGGrVd+JixX7zB8QG9ymcAY8Hg9AwkqrmvTRb4jJv7huxe+PxaBsNXvzL8tH9hDWt17VPt425vNjGXLbVOABSFiZtNltsrU1jRsOCb5AEQDYqsrG2evVKpKKKrpuYN0W0ls7IFTMLY3I0GS6ICIijbZtRac+jql1HyUis6z6cXhk5ZSRwvdQSITQ/zHsc4ZQO+NaOTtpksBKI7wvptDvbruyCJ/LmbUsqTnhp21fNUhmAMBKJdK23hqjtHW6kgBMfmZWdctLMbn+F8PFDMHtu3DH2tENkhk015pFaWp3IQGY/Oy85m7f0qLil40CJalrqM8hgCnNTBc1lzWZzLRMGoAU6Ompv7+zGdVryCA9CqA28dKFGGlr1lCyH+agTAAjDj53Pa9toRkh9O+H4Qyh9sZ3/OIzMy7BVscf3XAy8bXtUP8AW56XX84AcEz79W3cElOd+KzNMZAysbZUIYGteBgaIWlxqb96pmlaWTceKIQpTEgUNQpnJpbmAgLYish7sU0TH50U87SiUaYk1GztzTgE1D4JCStpmjfp5NDQLBoIhX62fd7n0K7cflOnmPMIoDPPbT0e13L11CPUXWaM16OArQjfu+ly7jvM6AihfyEMZwi1O475V2u/MOESTHnE9rmLD0cUv4trM6GkIqQIAPpFfqH89mRJZw77Fbe5eYbvMH6UNgVM0dW9h2OrWliIUFYRAgBTVlhQKZed2JLQg6djahrlKSWHEYNUSKDzLh/2yZEvNSsKOnkpo0nNUEYTPh8oJFhJ2JH94Y1609O5l3afSaoFUn2Yq4vmex0/jDKduepTQw7BSmL3LfI4GSt+Y3ULHBavGatDEUzRrR/nrDwb9+Y1EEKdFvY5Q6j9EcqOq/euy/rq59CigtBfZ424OPCTCSMcrUwNtFUFXKipFL/ISXkeeSP1H12vFaztrBUDHkjSzm7cYblp4XBTVapalBYZ4Ll3z/kkgZaw6kVl20otGLjQY+ittUElT39zm1G4YMEUJ0t9FVL6Mi8tLiL4tsRl10onBcrEzlabSsyvCt79g6fu2k9tuvHZyrz4Oz6Hdx0Jlmp2oQpL5CpCbcT8ORYhe+PEdza5LS/7dtEEOxMNjqwoNfqm5+59vhUCJbK8UalJnclrll55tPVh+rlvZkmXeMweZWOiwZW+SAy/fGjnkWARQ6oP8fAY1Zr3W7YKKyvJSE6im35vJRQ1jQw1/mqfI1QGrtm5PNltZ4Q4P2jztFGXR06eNNze0rirMo+trnhZkJ36/HFkVHbvVUcWW9edZkmt0Rv2pObP2xclzvBdPzXca9iET5zt+/bU01BW5DLVlaWFmclxd0Py8VFNhBCGM4TeC0WzmQfO6+z5fv3JB4UV6WHn9oSda2lRonU5g9SbsuLry24HYsUxx5eMO0FxOVBbQzMsqWLlfmC78YmJ60LbWGZSd/K2g4XLluy5XxR3YduSC9sazFMY5cAAACjYz1s96vbqG/nZN/77hf9mLpdkamppFnh6ozacnJm6aPZxuaExgGe5YO/m7K+/u5Se7r99gf/2+g9NaTquPDIxfv53vo07cXFMZ+/dX7p4+eHo5z6b5/lsbjCL4HR1Wnlw1zSjd/E28zp08qkF4081M4Nj4XHFZ1GD3v8Cq3lH/9D8ec0Wn+fikni/Y/F+xxqtQulpN7x7SyjbLD7upb/tuy3nn4pKE26dTrh1utkykPgWAYQ6NwxnCL0vPAOX1acHTn/gd8n39r3H8ak5JWVVMobgKgpV1TV1DLr3suhj3d9x8ACrN48rVkfw0TLPC2bHDp72vR+fLZIRSlo9LRzHzVk6d7ghJ/6hARla0NYiE6o2C3/3c7px9o8rgQ9iU/NKpSxPqKlv1t9p3Cy7umKSuuN3XtT5+ODRC8GPUgsqaI6qgflHQz9duOQza/XK62YKRG6jbXIMPtnq09v51FGvG/fis4oraIF2d2unKe6LZzhqpe7VJyGlSTFIDUcPT1/nK6c9LwdFPMssriIE6l2N+zi6uM6aMbKXygfrnUEIzKZs9hk+K/Cij/+dyNikrCJxlZQmFASqXXRNLG0HDHYe25tqtIbppA1/uswJu3b5RvCD2IS0PFG5pBpInqJQVUO7m2H33hZW/ewcB9lb4OsBEOrEiOTk5A9dBoQQQggh9Ao+EIAQQggh1IFgOEMIIYQQ6kAwnCGEEEIIdSAYzhBCCCGEOhAMZwghhBBCHQiGM4QQQgihDgTDGUIIIYRQB4LhDCGEEEKoA8FwhhBCCCHUgWA4QwghhBDqQDCcIYQQQgh1IP8DXZlSy5JvNUQAAAAASUVORK5CYII=;" parent="1" vertex="1">
          <mxGeometry x="308.25" y="615.98" width="447.5" height="24.02" as="geometry" />
        </mxCell>
        <mxCell id="sbGdN3Yiho158-mzq0W8-225" value="$$28.36\mathrm{k}\Omega$$" style="pointerEvents=1;verticalLabelPosition=bottom;shadow=0;dashed=0;align=center;html=1;verticalAlign=top;shape=mxgraph.electrical.resistors.trimmer_resistor_2;fontFamily=Helvetica;fontSize=9;fontColor=default;movableLabel=1;" parent="1" vertex="1">
          <mxGeometry x="240" y="197" width="35" height="24" as="geometry">
            <mxPoint x="-1" y="-48" as="offset" />
          </mxGeometry>
        </mxCell>
        <mxCell id="sbGdN3Yiho158-mzq0W8-229" style="edgeStyle=orthogonalEdgeStyle;shape=connector;rounded=0;orthogonalLoop=1;jettySize=auto;html=1;exitX=1;exitY=0.54;exitDx=0;exitDy=0;exitPerimeter=0;labelBackgroundColor=default;strokeColor=default;align=center;verticalAlign=middle;fontFamily=Helvetica;fontSize=11;fontColor=default;endArrow=none;endFill=0;" parent="1" source="sbGdN3Yiho158-mzq0W8-228" edge="1">
          <mxGeometry relative="1" as="geometry">
            <mxPoint x="508" y="209.9741100323625" as="targetPoint" />
          </mxGeometry>
        </mxCell>
        <mxCell id="sbGdN3Yiho158-mzq0W8-230" style="edgeStyle=orthogonalEdgeStyle;shape=connector;rounded=0;orthogonalLoop=1;jettySize=auto;html=1;exitX=0;exitY=0.54;exitDx=0;exitDy=0;exitPerimeter=0;labelBackgroundColor=default;strokeColor=default;align=center;verticalAlign=middle;fontFamily=Helvetica;fontSize=11;fontColor=default;endArrow=none;endFill=0;" parent="1" source="sbGdN3Yiho158-mzq0W8-228" edge="1">
          <mxGeometry relative="1" as="geometry">
            <mxPoint x="454" y="209.9741100323625" as="targetPoint" />
          </mxGeometry>
        </mxCell>
        <mxCell id="sbGdN3Yiho158-mzq0W8-228" value="$$7.43\mathrm{k}\Omega$$" style="pointerEvents=1;verticalLabelPosition=bottom;shadow=0;dashed=0;align=center;html=1;verticalAlign=top;shape=mxgraph.electrical.resistors.trimmer_resistor_2;fontFamily=Helvetica;fontSize=9;fontColor=default;movableLabel=1;" parent="1" vertex="1">
          <mxGeometry x="467" y="197" width="35" height="24" as="geometry">
            <mxPoint x="-1" y="-48" as="offset" />
          </mxGeometry>
        </mxCell>
        <mxCell id="sbGdN3Yiho158-mzq0W8-233" style="edgeStyle=orthogonalEdgeStyle;shape=connector;rounded=0;orthogonalLoop=1;jettySize=auto;html=1;exitX=1;exitY=0.5;exitDx=0;exitDy=0;exitPerimeter=0;labelBackgroundColor=default;strokeColor=default;align=center;verticalAlign=middle;fontFamily=Helvetica;fontSize=11;fontColor=default;endArrow=none;endFill=0;startArrow=classic;startFill=1;" parent="1" edge="1">
          <mxGeometry relative="1" as="geometry">
            <mxPoint x="714" y="220" as="sourcePoint" />
            <mxPoint x="658" y="220" as="targetPoint" />
          </mxGeometry>
        </mxCell>
        <mxCell id="sbGdN3Yiho158-mzq0W8-236" value="" style="shape=image;verticalLabelPosition=bottom;labelBackgroundColor=default;verticalAlign=top;aspect=fixed;imageAspect=0;image=https://upload.wikimedia.org/wikipedia/commons/thumb/a/af/Pioneer_plaque_man_upper_body_as_diagram_template.svg/800px-Pioneer_plaque_man_upper_body_as_diagram_template.svg.png;clipPath=inset(0.67% 1.14% 23.33% 2.97%);" parent="1" vertex="1">
          <mxGeometry x="154" y="709.23" width="116.08" height="126.03" as="geometry" />
        </mxCell>
        <mxCell id="sbGdN3Yiho158-mzq0W8-237" value="" style="ellipse;whiteSpace=wrap;html=1;fontFamily=Helvetica;fontSize=11;fontColor=#ffffff;fillColor=#e51400;strokeColor=#B20000;" parent="1" vertex="1">
          <mxGeometry x="227" y="817" width="10" height="10" as="geometry" />
        </mxCell>
        <mxCell id="sbGdN3Yiho158-mzq0W8-238" value="" style="ellipse;whiteSpace=wrap;html=1;fontFamily=Helvetica;fontSize=11;fillColor=#6666ff;strokeColor=#0000FF;fontColor=#ffffff;fillStyle=solid;" parent="1" vertex="1">
          <mxGeometry x="189" y="784" width="10" height="10" as="geometry" />
        </mxCell>
        <mxCell id="sbGdN3Yiho158-mzq0W8-239" value="-" style="text;html=1;strokeColor=none;fillColor=none;align=center;verticalAlign=middle;whiteSpace=wrap;rounded=0;fontSize=19;fontFamily=Helvetica;fontColor=#ffffff;" parent="1" vertex="1">
          <mxGeometry x="189" y="780" width="10" height="13" as="geometry" />
        </mxCell>
        <mxCell id="sbGdN3Yiho158-mzq0W8-240" value="+" style="text;html=1;strokeColor=none;fillColor=none;align=center;verticalAlign=middle;whiteSpace=wrap;rounded=0;fontSize=12;fontFamily=Helvetica;fontColor=#ffffff;" parent="1" vertex="1">
          <mxGeometry x="226" y="817" width="12" height="12" as="geometry" />
        </mxCell>
        <mxCell id="sbGdN3Yiho158-mzq0W8-241" value="" style="shape=image;verticalLabelPosition=bottom;labelBackgroundColor=default;verticalAlign=top;aspect=fixed;imageAspect=0;image=data:image/png,iVBORw0KGgoAAAANSUhEUgAABCkAAAHjCAIAAACB39JFAAAACXBIWXMAAA7EAAAOxAGVKw4bAAAgAElEQVR4nOzdd3xT1f/H8XPTQbqAsje0pVAoQ9mgLMUFgoK4t19QhgPc46fg3qKiuAcgCoKAgyUbZIMgsjuAUihllUJp05Hc3x+FGpq0TZM7k9fzwR/0pr33nXPPHZ87paSkJAEAAAAAKrPoHQAAAABAQKD2AAAAAKAFag8AAAAAWqD2AAAAAKAFag8AAAAAWqD2AAAAAKAFag8AAAAAWqD2AAAAAKAFag8AAAAAWqD2AOAkb/+fnzx113WXdWiT0KJFfHx8Qu9XNuRnLny+f6cOV4yavt+uX7KirW/3S4iPbzXok706pgAAAD4I1jsAACf27KTV8/5YvHrTv3v3Hz5x5lyBCI2oWqN+k+Yt2nbsdvkVV13eMlrFhTZ/z9fD7np3Y7ZDCEmShBDCUq1bz3bin+f/SM7Ok1fMX3fy1pg6knoBjKtw9QuXD/v5lKOsz4Nbj/119qgWQS4f2LP3rfh17sKVm/7dd+Bo1lmbHBpRrVaDpvGJnS674toBVyTWdJ2fRSd2LP1j/tI1W3YmHThy6mxegaVKZNVaDZo1b9W+c7eeV/brGhPlOh0AAMyA2gMwiKLMdd++/srnf6actctOg/POnDh85sThvX+v/H3yR18N+2n+M5eGqBNAPjH/w0mbsh2WWpePnfD6vV3qBduyj2fJtcJCjvfuXXfR4vwOfTvWDMjCw0vymR0zXn/+vV/3ZDvP0bwzxw+dOX5oz+Zls7/59Yk/fn4o1qmQsKUt/eyV175blZ7n3AdEbvbxtOzjabs3LZv9zQftn5o3Y3gM1QcAwIyoPQAjyN05+bGH3lyZaZeloOoJfQcN6NulTVyDmhFBhedOHz+UvOufTWtWrtkVPXRoO5UKDyGEbetfm3NkEdz2vheHd2sQJIQIj24QLoQQDW+cuKJ/vgitEvA7vEHx9376wS2NXS9Wlay1ml7UOvKJVa8/8MiU3bmykKwNuw64sX/vjs0b1IiUbKePpu7csmbJwuUpre8e4lRDyKc3fjRy9GebTzuEFFq7Xb9B1/Xu1LpZvRrhUn7O6cyD+3Zu3fDXyrX7W946qGnAzwcAgFlRewC6cxz5/dkRb67MtIuw5oP/7/3/G9q66kU7tx17XHnjPY/Ituwzopp6e52O00czc2VhiWrRqrHrVIJCq6g2ZRORqtRsFt8irsK5YN//45OPT92dK0sRre54c+Iz1zUN++/Ddh17XH3z8KfPnj4XXr3kPFJh8tTHRn+2+bTDUq3dXa+892T/mLCLxtjpsqtvun+sIzc7J6Qa9+kBAMyK2gPQmXx8/puvLzpqF8HNbvlo6it9a5WxZylZq1VTNUdebp4shGQNq8KFVb5xHP/93Q/XZTuk4JjbPp48rle0uwYNiqpeteQH+8Gfxn+w7rRDCksc/vn3T3SKKmMWWMKrVXX/CQAAZkDtAejLvvenL5accoigJre9/FyZhYfbv9zxwfVDPzvQ5un5M4bHODLWfD/hkxkrdqSfzhfNhv+84Kl2QUKIolN7Vvzx++LVG7fu2n80K6cwKKJmoxYd+w55YNiQ9jXOH713HNv88w8z5i1YtulgkRAiY+pdraYKIYQIanjP1CUvdg6275s05IYJu+QmD/y46LkOF6805NwDK3/+YdaiNf8kpZ/IsYdE1mrUvPWllw24697rW1U9vwMt56VvWvjbgmXrNv+7L/1Edp6jSrV6sW17XHfn8Lv7Nr346L4QQoi8g8umfvXjvL+2Hzh21h5WK6Ztrxv+N+ru7iEhZa+vCo9tnj35p/mrtuxJP3EmP6hqvbh23a8acs+d17S8+BSSR43mK3vqrMnLsx0iqN6Nzz/Z023hUUrexu+/3XxOlkJbD3vj0TILDwAATI/aA9CVfff8BUlFshTS/o77ukV4MQL55PGTeUnrnrj/leWZ529pDq3fqL5FCCFyljzXf/Tckw4hhJCkoOBgkX82M3nz/OQtSxb/M3H6q1fUlIQQ9t3zvvttU74Iiww5m10ggiJq1aseKoQQlnrVyz8Fkrf3p6dHvbEozVZyY3RRdkbSloyUlLBe9w5sdf4bJn951w3vby+QhRBCsgSHWBx5pw7tWDljx+qFq5+Z9vUDLZ2v5rIfXfrKsLE/7S2517rw6J41P+9dt2jJiOe6VrUIcdE92MXTPLLkzVFP/bAz57+HUJ069O+KQ/+unPNT7yc++eCBdi478+U1ms/sB5cu2VMki6CYwXf2rOpJHZG/Zd6iDLuQInved2erUEVCAABgSNQegJ4cR//efNAuRHDLPr0bebXr6ziZOu+th2csz67X7e77br2ibeMo+xmpSfHzqCK7XnNlyzRb38ED+/Xs0KpB1WDHufQtv7z3/FvzDx6Y9dY3N/d6un2wECG9xy1aMU7Y9391a/93/pHrDJmw5KWuFa8a5FNLX37o5UWH7VJk/HUPPHhr33aNqwedy9y/a+u6LfYrepVcGhQU0+/aTn/UiL3hhuv6dG0bUzvMUnBq79Kvxr/07ZbTGz75YN7Az4fUvrCDXpT03ZgnftqbJ0Ia9h39/Jihl8XXCs49unfDb1++N+nzcTtDioQofWLi3Ob3HxwzdW++VC1x6OhH7+jXvll0cO7Rvet//+rDb1amr3jnoaejZ306pOHFbVteo/lKztn+9z67EEF1e1ze0qPTKPbkTX+fcgipyiV9e9bgnAcAwJ9RewB6sqelptmFkMKbt3Rzg7cn5LyVP/wc0X7Ed9+M7VSt9I5rVL/Xf+vn9HNQRKMu97zx4t5ND/587NCav1Lt7d28kcIzBVu/fGvuYbuo0uqBr354utOF4/uNmiZ07DPkot8Mihs++ffhTgNCayRc99S7R7de8+aWnE2r/84bck148Vc5s+zzr7eek6WwTo9/9cmw+OIzANUatrt65Eetqw0bNP6v/NIp7Ck/vDllX74Ibn73p1Ne6Ho+RVTzLjeM7dip6SNDn1t8Ytl7E5Ze+e5VF7VNuY1WHrkg+0jawWCXKtESXqdR7TBJCCEcRw6kF8pCBDWLj/FsBVuQtj/dIYSlbsv46pQeAAC/Ru0B6Ek+m31WFsJSrUZ1lyKgYOGjHR5ZcPHudpVrP9o8sb/1omFSaNsRbz7q+T50WLtLEoJ/PlZ0LOOYQ3hbexRsnvN7ml1Yag0Y83Anjy4supilfrt29SxbDtmOHs1yiHCLEELkrV+48pRDWGoPeOiO+IsvPQpqNPi+az9ZO/P4xS/3s+/57dedBbIU2eehUV1KpQhqeMPYu6csn7DzxJ8/L3mu300Xn9WobKNdmOC+bx64+hvX4U7zRT57NkcIIVmqVfesXeRz2WfsshBS9Rou94Y4Mqfd13f8ukLnYZY6d3y/4uXu6j1sGQAA1fCsRkBnxbcbyK73MXhICu00dEjzShxGkKzhYZIQcn5+gdcTtR/Y+s8ph5DCu/b16i4VIaTw8DAhhFxQksK+f+fuHFlI4Z17dwl3+f2wDt3ah5baNXec2Lb1gF2IkPa9L3NzS3dQbO/ezYKEnL9t47+FF39U6UbzgsdlTclc8L4TAABgDpz3APQkRUZGSiLPceb0GUfpz0K6PzVj9vDiwfKphS+P+HJ7kZtRWGq3iC/zLoG8Q2t/nfXH8o3b9x04cuJ0br7dXrJ/69PVPY6j6UcdQlgaNGtS8Xs/7Kd2/jl7zqLVf+9KPZR56qyt0OEoSeG0CrIfP3rcIYSlvvtxhtVvUNMiDjsPko8ePuoQwlK9aRO3FysFNY5pEiyS888dTj/lEPWcDrWU22jlCG7z+B+zRpb7fg8pIjJCCCE7sk+flYUHzyuWIiIjLJIQcnZWduniw1Lzupdntjt/F73j4M9PPjn9AAUKAMC8qD0APVnqN2lgEceLzqUmH7b3jblon1aq1jixbePi/zsyt0eUtRdrDbO6/Shv709PjXz9z0P5shQUWS8uvkObGpGhwZIkijL+XrH9uEutUxmyzWaThbCERbh5Rq4zx/FV7456/Lt/su1CqlK9aXxil9rVwkODJCFn7/trw/5c59/Nzy8QQkjhkW7HKblOS87PzxdCSGFhYe4bxxoeZpGEkG15eaX22MtqNN9ZGjRuECQl2e0HUw7YRS0P1rGhDZvUtYiDjsyU1LPypRefwAmuEZNY4/z/7SErrG7+HAAA86D2APQU1Khdu9pB/2TY963dcHJYTB3l9odtmz965JU/D9mDGlz19Psv39mpdskNFHL27Id6bF/uU+0hQkNDhciTbbkut387c2T88vzj327LFlHt7n3jnTFXx0WWnHso2vb2dbd9feCicVYJFSJPzre5HadcVFj6tI8UFm4VQsi550qXFuf/JC8n1178vsQyihMVSFVbJTa1rEyyH924MdXeyYMbaoLj27eJkA6eKdi2ZtO5m66O1CAkAAD64H4PQFch7fr2rmURsm3jz78k25Ubb/7G2XMPFsmWWoPGvX2/U+EhhJBteTZfr9sJqlOvrkUIR8bBtIKyf8txeOEva7IdUkjbke89d61T4SHcnYsIqlWnpkUIR8ahI+6uLbOfOpFVql6yNGjSKFgSjtMH959yV0o5DqYetAthCW/YMFq7dV1Qi16XNwwSomjvnFlbbZ78RUTXK7pFScKRvXz6H0d8qwkBADA0ag9AX2Hdb7+lZYgkF+z86uXv95Z7FqES5LNHMs46hAiOv6Rt6ePoBXt3+VzlBMW0T6xqEXLOhpUb88r8rQt3hdRq1770E4QdmXv2nipVe8QktgqXhJyzae1214LGvm/rvzmlSiapeqeuLYMlUfTPitUnXcspe9LKlWl2IVW5pFMbLd/YF3LJ0JtahUrCfnD6W9/sKLt5SkjR/e4c2DBIyDlrPn597mEFS1AAAIyF2gPQWXCr+5+7PSZEcpzd+O6w0V9sPKHErqcUUTUySBLCfiwj8+Lx5e/74Yv5J3w+uB7WbeA1dYKE4/hvH3+xPbeMX5KiqkYKIRxnMo+eu6g0kE+unDRla2GpciGi21WXV7UI+5G5X8xOvzi1fGrp93MOuLRMUNNBt10WKcl5q7/8ZE2pG7Xth+d8+MO+ImGJvmJIv1qavjcjKP6uJ29uEizJedsnjhr7/fbsCps7vNvop/vXC5Icxxe/dN8TP+6o+C8AADAj7vcA9CZFdX/q4+fT7n9t5fGjK9+/+6pfLrt+0FXd28U3rlMtPEQUnss+lp68e9OClErtjlZp36W9ddH6vNQfX3kv8fWRV8ZXCyo4lbpp0dSPP5qxL7x2ZO6xc76lDr9s5Ng+i59bevLfzx64M3PEiJt6JzaqarFlHUndsXH5srx+E57oXSUopkunOkF7M3KXf/ji1AbP3dyhfph87sjOVbO/mPDlclutmkGZJy9qiOpXPXRf6xUf78he9foDY848M2pQl5gawfnHU7b8OfXDifNywiMsZ0ulttQb/PQjv/791ob90x+72/bw2Huv6RBTI8R2bO+auZ9/8OXyUw5LdK+xY69x8wBe78j5Jw8k7bO7HrSRrLWaNqlx4eyKVPWypz8Yk/TABxuzM5a+ces1c68efOOVXROb1Y0KlQtyso4eStm9bdPmQwlPfjm6ffFK2FL72pc/Ssl4cOLm7APzxg9d89MVg67v27Vt84Y1oqwhjoJzpzMPJu34a0UGD7kCAJgatQdgANaWd306o95HL4z/fn1mzv7V0z9aPb2sX5U82422NLzp8f/NfeDT7dlbv3l4wHdBIcGiqNDukC1V2w3/9N1m393w/EofM1saDH57UuajD3+07viOWW8/POttp8+qXNPNIYQQVbo++NQ1y55akHFowau3L3wjJMTiKCyyyyK04TUvf39Xyqh7v7nombkiNHHEx28c+t+zc/bvX/juiIXvlnzpoFrdn/jyhp0PPTuv9A0UwfH3fvzJ6dFjvtiye/YbD85+w+kjKbhu7ycmTbi1qbfvbndlT5o8YuBkNx8Etx776+xRTjeWh7d78KtptV57+s3Zu7NP7pz/9c75X5f6k6CGdZwvLZOiOoz+5qdGbz/75ox/T53es3jKnsVT3Gaw8O5zAIBpUXsAxhDauN9TUy67Y/38OfOWrd22MyX95JncfIcUYo2sFl2rXuPYFq3btO/YvWePdhW/T6NY+KWPTp3V8utJU+at23noVL4UUbt56+4D7ntk2JVNgnduaGxZedTXyFK1DiO/nd97wY/Tfl2yfnvKkdM2OTSyVqOWHXsPuLtLcUxLg4Ef/FKv86SvZi3/O+Vojj24WuNWl/a5eeTDt7SPPvdHyyrS4VLjDG58/VuzE/pO/uqnBWt3pp3IsYfXiW3f+6bho+/sXjvl40YWkewSw1Kj+9ip8/r+OmXq3KUbdx08kSuFR9dt1qZ7vyF333l1i6q6XVgqhbe86Y3ZV9695JfZC1dt2r4v7Xh2rs0uVQmvVrNBTGKnHj379k8IKvUX8Te+PLPffat/n7tg+frte1KPnDqbVyAsodbIajXq1G8Sm9C63SVdul/etTUvNQcAmJOUlJSkdwYAAAAA/o97zQEAAABogdoDAAAAgBaoPQAAAABogdoDAAAAgBaoPQAAAABogdoDAAAAgBaoPQAAAABogdoDAAAAgBaoPQAAAABogdoDAAAAgBaoPQAAAABogdoDAAAAgBaoPQAAAABogdoDAAAAgBaoPQAAAABogdoDAAAAgBaoPQAAAABogdoDAAAAgBaoPQAAAABogdoDAAAAgBaoPQAAAABogdoDAAAAgBaCFR9j8+bNFR8nAAAAAF0kJycrNSrznfeQJEnvCB7ZtWuX3hE8Qk5lmSXnihUr9I7gEbO0JzmVZZac48eP1zuCR8zSnuRUlllysj1SlvFzmq/2AAAAAGBG1B4AAAAAtEDtAQAAAEAL1B4AAAAAtKD8c640kJqaqneEiqWnp1utVr1TVIycyjJLzoyMDJYjBZFTWWbJmZWVxXKkIHIqyyw52R4py/g5TVl7xMbG6h2hYjabjZwKIqey0tLSTJHTLO1JTmWZJWd0dLQpcpqlPcmpLLPkZHukLJVyBvQzdgEAAACYEbUHAAAAAC1QewAAAADQArUHAAAAAC1QewAAAADQArUHAAAAAC1QewAAAADQArUHAAAAAC1QewAAAADQArUHAAAAAC1QewAAAADQArUHAAAAAC1QewAAAADQQrDeAbyRmpqqd4SKpaenW61WvVNUjJzKMkvOjIwMliMFkVNZZsmZlZXFcqQgcirLLDnZHinL+DlNWXvExsbqHaFiNpuNnAoip7LS0tJMkdMs7UlOZZklZ3R0tClymqU9yakss+Rke6QslXImJycrNSquuQIAAACgBWoPAAAAAFqg9gAAAACgBWoPAAAAAFqg9gAAAACgBWoPAAAAAFqg9gAAAACgBWoPAAAAAFqg9gAAAACgBWoPAAAAAFqg9gAAAACgBWoPAAAAAFqg9gAAAACghWC9A3gjNTVV7wgVS09Pt1qteqeoGDmVZZacGRkZLEcKIqeyzJIzKyuL5UhB5FSWWXKyPVKW8XOasvaIjY3VO0LFbDYbORVETmWlpaWZIqdZ2pOcyjJLzujoaFPkNEt7klNZZsnJ9khZKuVMTk5WalRccwUAAABAC9QeAAAAALRA7QEAAABAC9QeAAAAALRA7QEAAABAC9QeAAAAALRA7QEAAABAC9QeAAAAALRA7QEAAABAC8arPQoPLX77nh4xNSLCq8f0HDFlt03vQAAAAAAUYLjaw3Hy75Xpl76y/NDZ03u+u+zvxx/97pBD70wAAAAAfBasd4DSLPVueG1i8X8jLr/pynpzUw/bRWPDlUgAAAAAKsfIO/WOjC1bTrfr1MJw9REAAACASpOSkpKUHWPz5s0VGU/R/u9vveabLr8sfaZtqPNwSZLGjRunyCRUdfz48dq1a+udomLkVJZZch44cKBZs2Z6p6iYWdqTnMoyS84VK1b06dNH7xQVM0t7klNZZsnJ9khZKuW86667lBqVQWsP+5HfRvd/If/FBV/f1Cjo4o8kSZJl2fdJqG3Xrl2tW7fWO0XFyKkss+Q0yz6TWdqTnMoyS87x48ePHz9e7xQVM0t7klNZZsnJ9khZKuVMTk5WalRGvJ7JcWzRE4OeO/3Eb1NcCg8AAAAAJmW42kM+tfKFGx5NvvenyYPrFuTkFEiWEGt4FUoQAAAAwOSMdq+5nDnr9Qnr9817tGOtqKioqKioqi0eX1WgdyoAAAAAvjLaeQ+p3oN/2h7UOwUAAAAApRntvAcAAAAA/0TtAQAAAEAL1B4AAAAAtEDtAQAAAEAL1B4AAAAAtEDtAQAAAEAL1B4AAAAAtEDtAQAAAEALRnu3IAAAgUKSzv9HlnXNAQBa0az2kAvPnT51Jj84Mjo6qoqPZ1tSU1OVCaWm9PR0q9Wqd4qKkVNZZsmZkZHBcqQgcirLLDmzsrJ8WY7i4v77vySJlBQFIrlllvYkp7LMkpPtkbKMn1Pt2iMvbdX0r7756Y/l63ekn5NCg+wFdmvdhM59rr/9fw/ddWVshFTxKFzFxsYqnVN5NpvNIDnLP65mnJzlI6ey0tLSTJHTLO1JTmWZJWd0dLSCOdX7xmZpT3IqS+2cktMunC8n7tgeKUulnMnJyUqNSs37Pex7v7+ja58xv+d2GPbB7zuP5xUU2AoKbVn7Fk965DJ56XP9utz0xc5CFacPcfGqQfKq0gMMTpLO/wNMjT4M86L3wnNqnveQ7XWHTts6uG01px5pCa3asE3vm9r0vmn0S3t+/6uIK1wB+KBUdc1F8wAAGJmatUdQ0x79qlQrqxSWIhMGXavi1AEAAKACTnTAa2pec1WwZHRc4w6DRr81bVXqWYeKEwIQkNj4AQBgLmrWHlUGfbn11xeuDNs26d5LGjTtNnTsBzPXH8rlkgjtsGcGAAAA41D13YJSeKMuNz323vQ1qUd3zXryMsv6Cbe1aRDb8/anJ/664xQ1CAAAABBItHmvuRTeuOvQse//vHzD4o9uitz02Zjbxy/O1WTKAAAYD+elAQQmTWqPgmPb533xf/de2bJB/JBPU1uM+Hr1nsm3RGgxZZTC1g4AAAB6UfUZu9l7F/08bcbPM39bl9Wk75Bb7v/ypTk946pqc6oFQADiMbsAABiZmrVHwepPxv2S1//2j9f83DchWu03qAMAAAAwMjUrgirXT9xwvRBCCPuZtO27Dmbl2y8ckbTUbn15Yh3OgAAAAJgfp53hIQ3ORuSseemK6z84VDe+YWTQhWFVrnhjyTtXh6k/cQAAAADGoH7tUbB28vehz20++HRCqOrTAgAAAGBU6tceUkRk9YZNGypZeKSmpio4NpWkp6dbrVa9U7hRqvEMm7MUciorIyPDX5cjXb6WWeY7OZWVlZWl7HKkUu81S3uSU1na5/SuA/vx9kgXxs+pfu0R0nXkmOBHH/8k4oFecdGh5x/xaolqGN8wytvnvcbGxioWTzU2m82YOUuFMmzOUsiprLS0NFPkLKc9y3pgtC5fyyzznZzKio6OVjZnXJwqV8ybpT3JqSz1ciq7+vWD7ZGhqJQzOTlZqVFpcL+HPS/n1L9Tn77njxrh/93vcd2n/351Q7j6EwcAAABgDFrc7/HFhOP3rDj6ereqvNcOAAAACFjqP+ZWsgSFt+jQlsIDAAAACGjq1x4h3Uc+Jk17cerq3YcyT1xw8myB6hMGAAAAYCAaXHO17ONX5847OuP3j50GWgdPy5x5a4TqEwcAAABgEGrWHnLuubywiPBrPzt07jO3n+edy7NGhHMxFgAAABAA1LzmqvCvZ3r2e2TSn/uyHaU+cZxNWfrl49f0GLvUpuL0A1xZj8ADAAAAdKHmeY/Qq9//pej9F17s+/zdUa07XZLQuE7V0MKzJw/v27px+8n6V40YN/P1gWEqTh8AAACAcah7v0eVZv2fn9b/qazkLes2/rMv/Xi2LahxQrdBI9/p0TmhdhVVJw0AAADAUDR4t6AIrhbXrX/zbv2FEPK5I3sPFtZrTuEBAAAABBj1n7HrOPLV4MvGbykSwnH0l3vbtOp9TdfWV7yzLV/1CQMAAAAwEPVrj6LtG/9t2jYhWBRs+fjlzdfP2Xdw22vVvv16baHqUwYAAABgHBpcc2WxWGSHLJ/846PpdUYt7VPNYo9tav/zhF2IEPUnDheSJGRZ7xAAAAAIPOrXHiGdB/YcNbb/gOopqQOmfBZjEY70HbtDG90Z5P0oU1NTlcunlvT0dKvVqncK95zbz8g5nZFTWRkZGf66HOnytcwy38mprKysLMWXIzU6sFnak5zK0j6nd73Xj7dHujB+TvVrDyl64KSl0fPWnGjSd0CXKCGEw97mwUkDO/tw0iM2NlaxeKqx2WyGzemcy8g5nZFTWWlpaabI6UV76vK1zDLfyams6OhoxXOq8b3N0p7kVJb2Ob2bmh9vj3ShUs7k5GSlRqXFc65EWOPEhIhps94d811BWL1Wlw+5/ebeNdS/0QQAACPi3a8AApYGJYDj8Mz7ulz5wsLDQTXr1pDSF7x4Vec7f0or/apzAAAAAH5N/fMeRVsnvbbrtvmbXu14/h3mr25/tc/tn2wc+k437jUHAAAwD87awUfqn/ewZxw+ndAxMaxkgDWhU+LZQ4ftqk8ZQABiuwgAgGGpX3uEJHaI2/DjjBTb+Z/zkqdPXtW0Y1tOegDwFgUGAABmpP41V5aYYRPGLLvx0kavxresb807sidF9H5j9qgWPjxjFwAAAIbCC8TgCS2ecxXefvTcvbfs3rBpd6bNWrdVl66taoVqMFkAAAAABqLJM3aFEKG1W/Xs30qjiQEAAAAwHNVqD8ehNTNX7S8s49xbUJOeN/dqqlXhAwAAAEB3qu3+29PXzpq+Mk8WkhRUmL5u+f7I9h1b1YtwnE75e/OpFne/3X5oL7UmDQAAAMB4VKs9Qro/NfP3p4QQcuaMu4Y2+SP146tqSEIIIZ9d+9yNHwfX4qQHAKWwKVUAACAASURBVAAX425dAP5N/WfsFm5ZtLZZv141LjwSU4rq1Cd24/wNBapPGQAAAIBxqF97WBo2rr52+syS93sUHp4/c7W1YX2esQsAAAAEEvWvfApu9+gHd9x4W9uG4xISGkYUHNu3+0SzET/81sWHKaempiqXTy3p6elWq1WvqcfFlfepc/vpm9Nz5FRWRkaGHy9H2n8zs8x3ciorKytLjeVI8VGapT3JqSxdcnrRe/17e6Q94+fU4K4LqWbfV1cdGLl9w9aUE7aQGjGXdL20cYRPLyWOjY1VKpx6bDabYXM65zJyTmfkVFZaWpopcnrXntp/M7PMd3IqKzo6Wo2cio/SLO1JTmXpktOLCfr39kh7KuVMTk5WalTa3PHtOJ2yafWKlbszC8LqHbXXbtawbQ31L/YCAAAAYCAalACOwzPv63LlCwsPB9WsW0NKX/DiVZ3v/CnNof6EAQAAABiH+uc9irZOem3XbfM3vdoxrHjAq9tf7XP7JxuHvtMtRPWJAwAAADAI9c972DMOn07omBhWMsCa0Cnx7KHDdtWnDAAAAMA41K89QhI7xG34cUbJM3bzkqdPXtW0Y1tOegAAAACBRP1rriwxwyaMWXbjpY1ejW9Z35p3ZE+K6P3G7FEteL8HAAAAEEi0eM5VePvRc/fesnvDpt2ZNmvdVl26tqoVqsFkAQAAABiI+rVH4bp37l146aTxV/Xs30r1icE9WRaS0ytVJEnIsn5pACCAST694AoAzE2DZ+zKmX8v/vsYz9QFAKA0jgQBCCga3Gve/dlP+v711LM/rk/OOH7ivJNnC8r7m6Iji567vE7d/y0s97cAAAAAmIf611wVLBo3fNKyIzkL50347+COdfC0zJm3Rrj7fTl704d33/NDWEJD7kYHAAAA/If6tUfoNZ+knJpkcb6+tTA3x2F1W3gIIaQq4c1u+25Rr623d92sejgAAAAAGlH/mqv8ufdc8sSaQuchSx7t/PCfZV5OZU0cfEe3GhKXwAIAABgWu2rwgrrnPQpOHth/+PCZ/KyDe/fUPD8pe/Y/v2/OETf7MNoVK1YokU5dBw8ePHbsmN4pznNtsJIhhspZDnIqa9u2bXpH8Ih37an9GsIs852cyjpw4IDv26Ny1s9KMUt7klNZauTs2/eiHxXpvf69PdKeSjkbNWqk1KhUrT3k7K3TXnrpy2X7T62/dnHxKz0kyRJSvfm1b39xhQ+v+OjTp48yAdW0a9eu1q1b653iPNcGKxliqJzlIKfi/Hg50v6bmWW+k1NZK1as8H05Kmf9rBSztCc5laVBTqV6rx9vj7SnUs7k5GSlRqVq7SHV7vfCjL43ff74wm7vj7lEi9cYAvB/pV6PUOr1NQAAwLDUv98jKH7Q8D51iv4bIJ/as25HZlHZfwEAAADA/6hfexRu+vCWh75PtZcMkPOWv3Tja38VlvM3AAAAMLpSt5tzFhoVUv9CKMeJzKwG7Rv/97IOS60GdXNWnLALEVL2X1kajlpyWPVsAPxCqcuuJImnrwAAYEQavNe8dYeWm3+cvCv3/M+2lOnT1jRu26qcwgO+cb0aHgAAANCd+uc9LLHDJjy55MaujT6Ib9UoPP/o3j1n2z476+HWvLUcAAAACCRaPHwq4tLHft93244NW/YdywupEdehW/uG4VwPCAAAAAQWrR58W6V2XGLbsAbBdePqR1J3AAAAAIFH/fs9hChImj768sY168cmdH5meYEo2vrmtff9mMlNCAAAAEAgUb/2sCd9MuzFjNvmHjj5xwO1JSFEcMsW0csXby5QfcoAAAAAjEP92qNozz9plz0wvHOdKheutbKEhNht+Zz3AAAAAAKJ+rVHcEK7xmt/mJGcd77YKNg/Y8pfzbu2D1V9ygAAGB9vZwMQONS/1zwofuTEMeuGdmz4YnTQsbzlHWJO5HV5dc6DcVrcaQIAAADAKLR4zlV4+1Gzdt+RvHnjriM5lpotu3RLrFPFpxGmpqYqFE1F6enpVqtV7xRCCOG2tUoGGidn+ciprIyMDL9Zjsrv4dowy3wnp7KysrJ8X4406MBmaU9yKkuDnIr0Xn/aHhmB8XOqV3sUnD15Nt/pRHL15h16NBdCCHH2xImcKlVrRnl91VVsbKzv+dRms9kMktNtipKBxslZPnIqKy0tzRQ5PWnP8nu4Nswy38mprOjo6MrmLHU9lVzGrY/KfnuztCc5laVBTkVWv/60PTIClXImJycrNSrVao/8+SPjbp6eU8Zq1Tp4WubMWyPUmjgAAAAAo1Gt9qhy4w+nC39Qa+wAAAAATEbNO77zf3+g6a3TzwghhChc88ZNLy+3FQ+fc0/DO2blqjhlAAAAAEaj6tOmimznbEXFV105ju1YuT3TXjzcbsvNL+L9HgAAAEAg4Um3AAAAALSg8jN2HSd3/7ViRYQQhTuOFR3ftXrFCqsQhTuPO9SdLAB/5eFjggAAgAGpWXtIUQ1iTv7yxIhfin+sJ34eM+Ln4v83uyqKMy4AAAAmwaEfKELN2iO033tbdr+n4gQAAAAAmAZnHwAAAABogdoDAAAAgBaoPQAAAABogdojUHBPGAAAAPSl8jN2ixWd+HfxwrUpJ21FF3aAg5v3f+j6FiFeji81NVWxbKpJT0+3Wq3aTzcu7qIfU1KE29aSJJGSIoR+OSuLnMrKyMjwj+WorC+h8Zczy3wnp7KysrJ8XI606cBmaU9yKkvtnEr1Xr/ZHhmE8XOqX3vIWfNGdrl7Zcy1veKrlkwtJOxyHw7Dx8bGKpFMXTabzQg5y4lQ/JFBclaInMpKS0szRc4K27OsDzX+cmaZ7+RUVnR0tI85tenAZmlPcipL7ZxK9V6/2R4ZhEo5k5OTlRqV+rVH4YY5i1q8tWHBg/Wlin8ZAAAAgJ9S/34PKapa9apVIyg8AAAAgICm/nmPkK4jx4Y88tSXdR65NrFeeFDxQKlK1ZpRoapPGwAAAIBRqF97FCx5/6W5S4/OWPyN00Dr4GmZM2+NUH3iAAAAAAxC/doj9NrPDp37TPXJAAAAADA0TZ6xKxxZO36fNmvl7syCsHqtLh9y+6C2NXixCAAAABBQNCgBHIdn3tflyhcWHg6qWbeGlL7gxas63/lTmkP9CQMAAAAwDvXPexRtnfTartvmb3q1Y1jxgFe3v9rn9k82Dn2nm7fvFgSAUmRZSDxODwAAY1P/vIc94/DphI6JYSUDrAmdEs8eOmxXfcoAAhZ1CADogtUvyqd+7RGS2CFuw48zUmznf85Lnj55VdOObTnpAaCSSm3SZFmnHIBX6MAwr3IqCnoyKkX9a64sMcMmjFl246WNXo1vWd+ad2RPiuj9xuxRLYJUnzIAAAAUR70Br2nxnKvw9qPn7r1l94ZNuzNt1rqtunRtVYvXCgIAAAABRr3aQ845eqSwZsPokIKzJ8/my1LtVl1qtxJCCHHmxAneaw4AAAAEGNVqj8K//q/7wAOvpMy5ZfXIuJun51x8cs6395qnpqb6HlBt6enpVqtV7xSinKYq/sggOStETmVlZGT4wXJU/jfQ8vuZZb6TU1lZWVm+LEcVrp+VYpb2JKeyVM2p4OrXP7ZHxmH8nKrVHiE9P9h3zBESKokbfzhd+IOi446NjVV0fKqw2WxGyFlOhOKPDJKzQuRUVlpamilylt+e5X8DLb+fWeY7OZUVHR3tS84K189KMUt7klNZquZUcPXrH9sj41ApZ3JyslKjUvE5V5aQ0OLKRnaUnPSQzx3Zs+vg6SL1phrYeIgKYHaSdP4fAAD+R/1n7DqOfDX4svFbioRwHP3l3jatel/TtfUV72zLV33CAGAyziUHRQjMxbXH0oEBuFK/9ijavvHfpm0TgkXBlo9f3nz9nH0Ht71W7duv1xaqPmX4q5ItHFs1+I1y+jP9HMZXTtlMBwbgTINn7FosFtkhyyf/+Gh6nVFL+1Sz2GOb2v88YReC1wvCY4mJQpbdbMMkiUvLYGLslqFYqfWbn63Z/OzrwJ/wzkTtqV97hHQe2HPU2P4DqqekDpjyWYxFONJ37A5tdCfvFoRnOHgGsOsGw2LNDH/Filcl6tceUvTASUuj56050aTvgC5RQgiHvc2DkwZ25qQHFFK85WMFAdOp1E4bW0EYCiUHTM3DDsyKVw1avNdchERUi3Ds3PjzpLUX5mBwTmqPpi0oP1ARzzdvrCDg9+jkMAgvCg8OEgEopn7tIWfNG9nl7pUx1/aKr1oytZCwy1kBoSIcV4Mfo3sHGr95BjpdF6ZW2Q7MQR/FqV97FG6Ys6jFWxsWPFif1RUqwbvjaqwgYArsvcGkPOy6xati+jkMxesOyd6FsjS43yOqWvWqVSNYA6ESyl9BuH3gVckfsoLwVwFy2LjU92LvDUbgeT8sf8FkFQ1A/fd7hHQdOTZk8lNfLtuRlnnigpNnC1SfMEypnLccyPL5fyX/L2sMgDFV+FIa115NKQKzcF0tu11L04dhZOxaaED98x4FS95/ae7SozMWf+M00Dp4WubMWyNUnzj8xs6dbgaWcwIEMJrKVh2AQXiymi2rA/NeJhiE52vgsnYtit8zBt+pX3uEXvvZoXOfqT4Z+DNZFrt26R0CUE2ltmfst0EzHNxBMb+55LWEd1+B1a8iNHnGrhBCOPJOHj6SFVw3rn6kz+uy1NRUJSKpKz093Wq16puh/HYq/tQIOUvExbkfnppauZw6dhBDtWc5MjIyzL4cVRhfy+9X4Xwvq2+npAhR+ahefzWz9E+z5MzKyvJ6OdKyA6vXnsUdWCjUh80y38mpbO9Ve3vkdvVb/gRTUtz+VboQVuNvOY3fP7WoPQqSpo+9/4nvNh4rjLh99tEp1+168/qPmk7+7o663hYhsbGxigZUhc1m0zhnZQ9LFKfTPmdZyjnAFhtbZk6350aLVxm6HJwwTnuWLy0tzRQ5y2nPCuNr+f3c5vTkmLEnIV07eVycl93bLP3TLDmjo6O9zqllB65se1bqYVae/JrbtbTrn5tlvpNT2d6r6vaorM5c4QTd9VubKfZAVZrvycnJSo1K/XvN7UmfDHsx47a5B07+8UBtSQgR3LJF9PLFm7nZHEKIC3fflrOpq3DzxglQ+D06udmZ6OIlZQsPL34ZUEo5j66BjtSvPYr2/JN22QPDO9epcqELWEJC7Lb8AJ7xFe5to1g5D7OCwSneyU23vPhye65S44dhmXrN5t2a2dRfGWbke+HBg9pUon7tEZzQrvHaH2Yk552fhQX7Z0z5q3nX9qGqT9mYnHstPVipFmAFYRCuJYdKlbYx92NKvmz55/GcnxYN6M6533rSdQHjYwfAyNS/3yMofuTEMeuGdmz4YnTQsbzlHWJO5HV5dc6DcepXPQbEowad8chRPxPg63q1T3S4nSKLiXqKZygtXIx2CGTmWrcru2tR/PvmagHjU7P2KNox7dVNrZ67v0P7UbN235G8eeOuIzmWmi27dEusU0XFyRpTOR3X+SNV1++lbpzSa8dFy2WYnTPjYF74iLfZaKmkqf243xZ/NR07FdWd4krNTbfvxfKdkWeZL/eOVmoqRm4E41Oz9rAnzft0rvz4/R2sQgRXb97t6uYqTsxP+H2HVu/YMAcn9OVJy2tWZmvD886m1Jel/FBPhYeH/KDHlnCurCrkT1/cX5VVRiYmChFIc1DLO8v9fm9NVQF55ZPK3F7v7vWf+4Hir6PX9/KzxjQmLxrZ7PPFIPkNEsPsPKyc/aO1K1UzK7t3xb6a4kq6ZfnFs9/03nKo+gXpuspS+X6PgiVj2zX7P9cOUeXaiVs/Hxiu7sS159z1ExNVP0jpXHYbc7VSqaNrxXxcwjkwrCVtmtrsM1TxvTezN4ihVLYx/e8cSFkC4TsGGu8O1Rv5jeZargxd172c+vCayrVHSOdHJ793XaTLcEt0nKFfuegNt/eR+zi2Ch/fpPsFu8piMTa4klWtIl3OeWylZn35HVuvflLZb01/NiyN15m6r6KLr73xnHpdlx04H+nel0xHwd61c2elFyW4pXLtIVWLubRTp2qV+hs5e/2EYQ++vSi1sFbn+97//p3BTbV4+bqPVFodeLKr5/YjHVfluu+f+VMxZigVntn3epxuR2u0maj93R1Qie9dy8PdZYMUz0a7qYNVtNc067qGVdICBulFZm9Pvah5v4cUXrtxnYjKTiF/3Wv3fxr67PpjZ/bPvPrvR0d9f8ihSjqvOV836cVllF5cQWuEBawszhebBsIVpQHLuznrHytlOjZcmaVLGK3wgNoq3MeosEtIHrzsRXuud9J6QoO+bahWMgs1a4/Qaz7a+tXgqMr9UdGOeYuCbx17S4zVUq3jw4/23DJj3lGN1otuj7y6/nP+qLJKFgPPKxBfpqI2L27nKKHqa6pcL+BBZbnt9l4w6W6Nd99dmzev0b19oWBzSZJ4+eXS+0POx2L04nnvNci7AunDZfF6PVw8Z8t6xq7nY9N31viyDVKpbxthefEDhnvOVWFqUnpMq+bFl1mFxyc0TN2VVKTStFyXaqX2t9xy7bJqLBssGPCQepc5lSosDbJ/ozYTXegYCFyPkqpXD5S6HLH8qajdT0zRGQJhheAjL7qr2zVtOU3t9iIOfXuvM8Me86L3+s5ot1LIeedy5bCwsOKfpLBwa9653NLzefz48b5P6eWXfR9H+Y4LUbvkh3HjRFmpx42rdJ5x48r8/Uq1zfjx4vjx47Vr1674V11414DFX1ZUMqcQ3uf0bnJe8zGnZl5++YAQKxQsP0rmrCijtb3o50KIUstROeN3pfZMd/7Kx48fHz9ez/nu4Zc1S//0JadzH/OuPzvPWVFBp10hxHjPJ1TOhsCVoh3YzXJUqTBqK04SCP2zfF7vmbidm57krNQyolLvPXDgwIoVKyrxB2XwegfDQ2W1p3GWo2Iq9c+77rpLqVFJSUlJSo2rWPPmPr1CMHfmLY2nDkz57e7qQgj7v690GXxywu6PeoWU/IIkSbJXVafmR4N2CdFaeFUie3iHottfq9SFnrIsdu3a1bp160rFK2vSFfLlaEFlc7om1OZYhXftqTFJEkKsEKKP76NSsHuX4fxy5OEUXXt4ZXlymYor7ee7d9/UFP1TeJtTvfVS2WMeX1x7KDItH3tvuV//ouXIIAduldoeaU+lnF7vpZQ1Q0tyKnhOuxxed+AVK1b06dOnnFFVSOPtu147GB7yvX9K7h61mpyc7Ms4nRnumqvQ+IQmB/akFF9mlZe053CzlnFBPo5Tx0tvFeyOnlyypc1tVV5cdar9VTeGWhHoTo2LCbWZpzt3XtSFuF6lLEa7MVRjal8RrstKrFICee77B6PdNul2cqryeiOl/YJp5FWB71yvxFOc4WqP4MTBg4JnfvjLgXzHma2ffrIiYeA19T0KWdbVvRqvkUvWBcX7TF6PxHWcFU5Rm/VCpRhq+WTb7DvNOpv2u3oedm/jdGnjJNGY25v0vOBdAxqzAvG8BYyZP2D5srddqfnoyxrVUIV3pfaO4AW3XVHx3SfD1R4i5NKnv31cfrtHnajGA+fEvf3FiDgPMpa6yU/VvUznjq7eaQe9Thf4SMtD1J6ECVilds4UoVR7uvaQUt1G+xnnYdVh/B7lfwV2qVN2pb6g4teoKK6k26jUfyq122rwDux/vbd8Ru692q+NK7zHvdSiZIoVsllof7DeaPeaCyFExCUjfvh7RDm/4Nw6sruXpHrHdVSuv1DqP8Lwa3NFVNgskkler2OWnF4ouTpTqcVBG/46O+A1DXqs771OruiVr6UmpHs/37lTGPA2igq3uQZXaoNS8l3Kmt3eXVVVaofHRyVjME7Le3eLndG4vUHCsJzT6tITjHfeo5J8bzW39bTbXwtAHj5xz7CN4xrMOCtcX5R1MFi9S94NO4u1Ycyvb8xUvlBp8dTmrFqpkRtn7hgniam5Xdm6PWDs+pHX9yMJ1Q7zlyqM1T5B5x1DhTGpsvqn0HV3yIjnPbRUVremuwt/2U03KdfDEqoeonAdeYAsAmY/5OYHR45LKHvNqgbcNr7ROozR8hiT8ymLChcoT5Y4H5dKzTpwWf/RTFkNZfx+a7R1r3f9Vq+vYPrzHl6jni6fue67LYcBQ5b1UAS35zHc/l8pZd2wZMBG0x6riMry5BCv28Nvbn80hXHj9Lz0vJwWM+kF8YmJGk2orDMSRuiEpptr3ilnRREgLaAIje/TUEoA1R6l7m2FL8y4VSuh41LqfP+3vuuL5cvLvLbQvHNWQTSCJ0r151IflfpPyf917/yGVarXld9E5RceZqHLZbGG6nvOuyWsfs3VArpf1G2onlwpAVF7lKo6TNSz9WLeDu2WlnM8MbG80xr64vEgpbidI6Zrn0rtsCqowouGVaq0K5w75pp90IBzD9R9PezMgLdYaKOsda/paFx+aLk7UepeaGX51f0erpffmbErGx+tWhbnvTEdLwYN2Js3KsVvNn6uJPWf56Z933a9jVuDr2lY/nHSo5jaq0qjXVJVwnRzSlW0RoU0u0i1rIuxFWTK2qOcO/zovr7zp61aWRTfa3FtNH13zoTTYuI3c01Bflx4qEffWtrz4QHLbxpEwfWzqvtn5Y+8nF/wmznlHddmWb5cjxyqUaMDa9ZntJmQWa+50qAsCwSVWi+bupHVOzGqwS3gbn/B9V9Zv4YApGCf1PeKQTqwh/ysoQx1gsLVzp3uh5daIbvOFNbJ/ke9GarSKTu3+w8aX49t1tpDcPG6VypsK7cnlGhkt1SqOkpttFwbn3nhI4Pv1nhB8S5hnJuU4Kqs0/4o5kXv9bwBXW8f9XBXhM1oMb/svSqtgb2IUaqb6VhdlM+U11ylpqbqHaFi6enpVqtV7xQVKz9nSoowSGP73p4pKSIu7qIhkiRSUjz981J/W7Z0ISrO6RqmmHNrF2dzbX9F5khGRkYgLEeef0Ufu7oBl3e3X8eAOV2lpIjk5PTmza1Cod6unqysLFWXI9dxV7jecMvg891pffjf+rNS6+diHq+lS089NbXMdbLzr4kLTe15e5Z8BV16sr7z3ZOvXNz4/rc98qL3Cm87sHDZW1i0yOjrT1PWHrGxsXpHqJjNZjNFzkaNystpnG+gSHu6XoAbF6f4YQCbEGXmdL1f1kOKH6tIS0szRf/0cb67/qlKd3rovry77dvC5at5klPLcx3Oz0Vwjqp7e3ooOjpa1ZyejNuT3muW9iy1/vRk/ex1d3V7QZTryN0GMEt76pvTkykX/45fbo9U7b3OXKei0nxPTk5WalSmrD2gksC8vsKT28J8aRmDnOKEW34/dzy/67Gyndy12nE7IU9ut/X7uaCUAFxFl3+vrdq3LNIzFRSYvbdUF3IeolLhYQrUHjjPL6/C9IV3V1vylGfopcIH75TDuz90nmI5T6MK5Ifhqs1vGrbC3utLL/KbVvIz/jRfyurAJSd1FXkEvy8reUMx8b3mgBfKOnim1PK8c+d/N4v704rVP/jHWltxHjaL2xsWPbzLFmrws4b1/ASdAd8SiPIxs5xVdpVb8qPwlzPGnPeAe+bt015zPoLrxfUn5fwIY/K/2eS267o9YMyuAEzHi0eO+t8y7jf8b9aUs+fg3WUUbv/v+qMZcd4DQrgsGH7Qs8tR4WFaHwsPQEduu7fvL8Slk+suEMrFst6bUVmGepwoXPnrrFHqe/lr+5Sg9gAqwe/XCGbnemOf2/8HoOKvn5hYuZcesA9nWMwUV3RXfZWz+g0cvne/QOjAXHOFAOX1hVWBsF4IBAE4H9V41RqgLNcHGHB5FQJE4PRhag8ErkqVH4GzUvBLgXkErrLo5IYVUB2Yh+HC1JR9iq5fovZAQKuw/GCT5pf8frb6/rwEwCAq3JOj6xpcQN1Q6qz8p5CXethu4DSLoPaACPjSvJy9tIBaF8DPcFrPjwXm/HJ7CVZgNgXMopz+GchXcVN7BLrExNJDAnBJcHtcLQDbwV8FbHVdfvlBDzcL9rad+c3r1QIEMwuueM4V8J9SL/GBX2LmChoBZsb7WwFTo/bARViVsz3zMwF+1I3ODL9ExzYpZhyESa+5Sk1N1TtCxdLT061Wq94p3EhJEXFxzgPShfgvp2Gb1rDtWYpZcmZkZATmcpSSokonN/J8T0k5/5+4OFG8vKvUCAoycns6y8rKUnU5cjtuLyZolvYkp7J0z1nq0E9Za56A3R6pxPg5TVl7xMbG6h2hYjabzRQ5hbAJ8V9Ow0Y2S3uaJWdaWpopcirenip9aVPMd1kWu3bZWrc2ek5hkvYUQkRHRyubs9TNDBcfJzrPiwmapT3JqSyj5SwrS8Buj1SiUs7k5GSlRsU1V/gPJ0MBwMhYSwMwO2oPAH6FnTMAAAyL2gNAoKAsganRgWFwdFF4gtojELF2AAAAgPaoPQKU65NkKUgAAIAa2MdACWqPgCbLYudO3miBgEAnh6nRgQH4B2oPAP6GvTQA0AWrX1TIlO/3AIBKYXMIANpj3QtX1B4A/FCpd7QBALRBvYHyUXsA8E9s/+A36MwA/Ab3ewAAYBSuZQaFBwB/Qu0BAICBOBcbFB4A/AzXXAEAYCyUHAD8lSlrj9TUVL0jVCw9Pd1qteqdomLkVJZZcmZkZLAcKYicyjJLzqysLJYjBZFTWWbJyfZIWcbPacraIzY2Vu8IFbPZbORUEDmVlZaWZoqcZmlPcirLLDmjo6NNkdMs7UlOZZklJ9sjZamUMzk5WalRcb8HAAAAAC1QewAAAADQArUHAAAAAC1QewAAAADQArUHAAAAAC1QewAAAADQArUHAAAAAC1QewAAAADQArUHAAAAAC1QewAAAADQArUHAAAAAC1QewAAAADQArUHAAAAAC0E6x3AG6mpqXpHqFh6errVatU7RcXIqSyz5MzIyGA5UhA5lWWWnFlZWSxHCiKnssySk+2Rsoyf05S1R2xsrN4RKmaz2cipIHIqKy0tzRQ5zdKe5FSWWXJG9tygmQAAIABJREFUR0ebIqdZ2pOcyjJLTrZHylIpZ3JyslKjkpKSkpQaV7HmzZsrO8JSJElSdfwAAAAASihYL5jvvIcsy3pHAAAAAAKFguc9uNccAAAAgBaoPQAAAABogdoDAAAAgBaoPQAAAABogdrDF3L2P1MeH9CmflRYZN02N762/LgshBBy5pKXrmtZKyqqdsKAl5ceK7413u1AzeWuf65deNzjawqNm9OWPPu5Qe0b1ahWvXbf9/fay4gkZ6//4OZ2datG1ojt+/icg0Uah5SzN358V5emtWvUqB3Xa+SU3TZhsJxFRxY9d3mduv9bWHBhSN7Ob+/v0qh6ZPXG3YZ9XxzY/cCiA7881jsmOrJq/fa3frTpjLo9oHROx/G1n464omXtiLCqDTvdOXHz+ckbLucF8qn5w2PCury1x15mJL1zyme3T37kqtb1o6tH17tp8jHZCDnlU2vfvq5R1A0/ZF8Y4shc+srg9g1rRteom3DtM7+lFZUZSaucvnZFXXO6D2+8nBcYaDkqK6eHy5FmG1D3OT1ejrTKKZ/d8dOzN3VqWiMqolr99je9vfpk5bqirjnd7+AZL2eJi3bw9O2fFUtSmhxA8rZOfOTZaVuPFxSd2fX10MbNHl5uk+XTv93bpO0jCzMKCo8tfaJD07vnnHKUMVBruRte6HFpuxbxY/8qkI2Z03Fy3vDWlwyb8vfxfFmW7XZHGTlta55MiL1jWmqe/fTmN3o36v9Vml3LmIXbxl3S7LapqXmy4/SW13rWvu7rDIdxcjpOb/xgYEKHW268pP4DC/KLhxXtert7w+s+3pFjP7fnixubdn1jR5H7gfbD31zfoMe4daeKbAdn3d8iYezqPA1zOk4vf3P0K3N3ny4qPLn5nX61L335H0PmvPDJqQUjOrZrE9P1zd1FsvtIeue0p00e0qLHk3N2ny6SZYfd7tA/Z+6u7+5s22bIzd2iB009fX5Y/tJRTRNHL8golIuOLRvbru7dc3N0zuljV9Q3p9uBBsx54TMDLUdl5PR0OdJsA+o+p8fLkXY5Ty2f+NqUDRk2h/3srs9vbNjyqfWFlZjF+uZ0u4NnwJznXbyDp0pOBSsFag+lZE+9odqA7046bIuGN+41Yb9dlmXZceTzq+reNuuM7HagxnI3vdS9+wszXu/VcuxfBbL7SDrntKdM6NP6sZW5zsPcRSrc/HzbNs9tKl7mzvxye91+nx3WskYqWPloXOfXdxXJsiznLhjWuM9HB+wGypm3Y/a0dccPTerX4MI+qH3/h70aD1tYvLnOX/FIXIdX/i1yOzDrh8G1b/yheIVU9O+rHWMeXlGgXU5n9tQPLq9z7+829+ENkNORtWhUh6ven/ZU225v7i6SZbeRdM5ZuPn5dl1e21Ho/Gt65yzaP2/qksM5M2+p/l/tce6X22tf8+VRhyzLjlNTb6gz5MfTuuf8jxddUd+cbgcaNafhliM3OT1djvTZgP6X09PlSKecaRP71LjtlzzPZ7HOOZ1d2MEzbM5SO3jq5FSwUuCaK4Xk/r1xd0zHS6rKJ5JTi+JaNrAIIYRUq2WL8KTdaYXuBto1zWfb8s6YxVd+9Oylofbic7NGzHl2/aq98dW3jOzZOrZZix73fLr5jOw2py01KT2mVfPil9OExyc0TN2VpOVlVyHdRjxea/K9Iz77/dcPHhi39/YX7mwiDJTTmjj4jm41JKcX4RSl7ktrmtA8tDh9fKtmB3btK3Q3MC8t6UDtlvFRkhBCBMUlxGXv3XNSrfOyrjmdyKe3bDrYplPbELfh9c8pZy978fmkeyaOjBPFS0iRu0iF+uZ0pK9ek9fSMvv2ri1jmrXqO/qH3Tb9cwY163/XlQ2ChfPow6957JGc9259cvK8ma/e+2HeE88OqqZ7zhJedEWdc7obaMT2FIZcjlxzerocHT+uxwbUqT09XI70yFmUvWf2m99lDLzl8ioez2KdczoPvrCDJxmwPYVw3cEzUP8sA7WHEuTs1a88tfiylx9uHyznnsu1hoedf/e6FBZhzcs553A3UMsr7fK3vjd2Ud8Pn+98IYMwYk57ZvqR0+vW5A77ZXvKngUP2d65+7UNBW4i5eSey5XDwsIuDAu35p3L1fTCxdD4Gx8bIP/25mMjxm1sesdtnWtI7tpT/5wXyLnn8krSSeERYfZz5/LdDbQ5DxNB4eGhuec07annOTL/eGb87lvH39vU4ja83jnlMyvGPbvnro9HtQy+MFXZXSSHvjntGemH01dtqfnCot2pO2YMTHr6fxP3FhkwpxAR7e94pMexqS89POr9A5fef0NihGHa06uuqHNOdwON2J5GXo6cc3q6HOWc034DevF892w50janfHLq0DpRkTXbjvr7svHPX1NH8ngW65zzv0/+28EzYnu628EzQM4KUHv47tzWCbcM23DT1I8H1ZaEFB4RbsvNu3B/Wl6uLTwywuJuoFT2GBWW/8/7Y+b3mvBcl7D/hhkxp7DbHVWvG/PE5XWCJWvc7f+7OmfdunSra6TIsIhwS15enl4xRd5fz137ZPazG5NT9u+YGPPDkCET9zncNJ3uOUtI4RFhJenk3Ny8oIiIKu4GWp2HCXtuboEOkeVTq14c/NTxx6a/3jOqjPA65zy7avyzO++cODrB6RCz5C6SRef2tNvlJrc8OfyS6hYpst2we7vu/mvTOQPmlE/+Nqr/+7Um/puaun/D85a3+9/34xHZCDm97Yo653Q30BD9s1ROwy5HpdvTw+UoMkLjDWipnJ4uR9rmlGrePevY2bycI0vGFLx55T3TMoSns1jnnOene9EOntv+qXNOm5sdPAPkrAC1h49sOz+7/Y7ZXb6e/UynSCGEsNRuGR+asveIQwgh5JP79p2NbdkkxN3AIK0iFm76/usN/35+Q2y9evUadn9lU+oXg2Ku/fRMvNFyiqD6TRs5jh3NLl40HIUFRaGhVneRwuITmhzYk1J8+VJe0p7DzVrGaRdTFO2cvzB4yKM3NA2VrE37v/J8392/LTlW03g5/xMc3yombW9y8cOPCpN3H2ya0DzY3UBr04S4rH1JZ2UhhLCn7k2tGh9fQ9OVk3xm/etDHvz7lhk/Dm8ZWmZ4fXPmL/vqm382vtGncb169RoPmLRvyxs9Y+74uWpL10gh+rZnUONmjc4czcwXQgghFxYUWEJDq7iLpHPOwk2//dno3sf61g2SIhNue3ts4pK5a+y65/ShK+qc093AYOPlNOhy5Nqeni5HtepouQF1zenpcqRtzmKStXa7oQ8OrL5+1Q7Z066oc85C4bqD53Y50jfntnVudvAmHmhkjJxlovbwRUHS9/cM/brZu9OevjTkXE5OzjlbkRzabeiAjO8nLMksKjqx6oMvd/Qa1DtSuB2olZCur2w8mLRj27Zt27b9/dvY9k3v/n79tAda9DBaTiGqXXP3NbsmjPv9UH7R6S2TPlna+Mre9a1uIgUnDh4UPPPDXw7kO85s/fSTFQkDr6mvYU+2NIhpdGTZH/+ckYUozFj6+/oqzeNrGDCnU+KGA4bE/znxm13n5Lx9Uz6cE9b/+lbBbgdW7Te059+fT9x42l6Q/vuEqSeuvqFzaMXjV8y5rR8MvefPvl9+NyzOkZOTk3POZncfXtecVa79NOng3u3btm3btm3z1Htj2z0yZ/2ng5tc5SaSvu1paXzjnZcse+uNFceKCjNXTfhqa5eru4e7jaRvzqAmsQ32LvwjKU8IYUv9bd72xi3jQnTO6VtX1Den24HGy2nI5cjtfPd0OdJwA+oup8fLkXY5C5NX//nP4bOFsrCfTf7ty7lHL+na2vNFRuec7nbwjJezXQ93O3gx0fr2z4opeN96MSXv4ze4gpWPXlw0hl7xabpddpxc9cYNrWpHRkTH9H3817TiJwm6Hai9oqR3L2tR/BgEQ+Z0nPzr3VsuaVA1vGrj7sO/35lbZqScrZ/deWn9quFVG3YdNmWPrdyRKs+2b/pj/Vo1qt+wQYOYzre9u/qEw3A57emfXun8XKaCpB9H9GhSPSKqbvtbP958puyB9vQ/nukXVyMismbLAa8sP672c7kuymmbfdvFp4CtN8+0GTCnk4J1T7Uufj5PGZF0zll0eMH/DWhVOzI8OvaKJ+YcKDRKTtvMm52ecyWf3fbl/y5v3rBBwwYNml8+7KttZ/XO6XNX1DNnGeENl9Ppc6MsR2Xl9HQ50moDWkZOj5cjrXLmb/7opk5NqoWFRUTVbNr55lcXHa7cLNYzZxk7eIbL6cR5B0+NnApWClJSUpKnZYpnmjdvruwIAQAAAOglOTlZqVFxzRUAAAAALVB7AAAAANACtQcAAAAALVB7AAAAANACtQcAAAAALVB7AAAAANACtQcAAAAALVB7AAAAANACtQcAAAAALVB7AAAAANACtQcAAAAALQSrMdL9+/efOnXKZrPJsuz6aXh4eHR0dExMjBqTBgD4xr53wtVDUp/fOvHKUL2jAAD8jPK1R0pKyrJly1atWpWdnV08pEWLFkKIffv2Ff9YrVq1Xr169evXj/IDAHTk2P9h74SxfxU4DZKi7ph9/Ovrn3vrzCUhGqexbR7f9+Gij5e/1jmskn+Zs+qJPi/U/nbps+0olgDA4JS/5iorK8u58AgODh4zZsyYMWOCgoKKh2RnZ69atSorK0vxSQMAPGeJeWxlbmFhYX7yBz1r3jE7p7CwsDBr6g1VwuL7DexYU9I0iyPt+xcmN3vi8U6VLTyEEJE9n36s1ucv/ZTh5kw7AMBQlK898vPzSwoPIURsbGxERERERESzZs1KBmZnZ+fl5Sk+aQBAZUiWoODg4OAgi3Thf0EWyb737e5NRy4pEEI4ji555Ya2DWrVathm0KvLjstCyCe+Hdj6wQlvDmnXoHq1epfc9fW6VR/ccmmTGlVrtLj+rbVnZCHse9++vPuYj5+9OqFedPUGHe6a9HeOEEKIgpRZT1ydUC+6Rp24y4Z9te3sRYWCPWXG1N1X3DOghiQK1z6ReN1Ln4/uFVerWnRsv/9bsHHWmL4t6lSr2qDLQzMO2IUQeTu+/V+P2Lo1a9Zq1Ob69zfnC6nuDXf32DTll0MOHdoQAFAJytcezvd4REdHDx8+fP/+/VlZWQ899FB0dLTbXwMAGI/jyA8j7v+j1SfbM4/t+Kzl7Puf+iNbCCHs+3+cmf/MqvSTyd933/jIVWPTH1qUevLwn7cfe/vVmcdkIYQo3PrD/HrvbTpy6tDCuzLH3/PGpkJRtPP9Ox/bftWPe0+ePLh4tO3tW55bnvPflOTTa1bu7XhF9/DiH/OXTV592ZRdxzPXPSomDhnyY8JnWzNP7Ho/dv7/fby+UOQueP2ZlKF/pp08efTfOW8NSQgVQkRd1rftPyvW5rh8BwCAoaj7nKvWrVvXqVNn7dq1GzZsqFu3bps2bVSdHABAMfLJhdNXtHnoiV61gizRPe4dUmvZvE0FQggR0vmO/3Wubgmq3ffaLuEJQ/7Xp06wFNX+2l51j6Zl2IUQQoT3fWBYuyiLFNVuxCPXnli8OKkg6bc5aVc9NrpDNYsUFnvL03dFzPlpzX83mtj37ztYp0XzyPM/SnX6PzC0WRXJGv//7d1nXBNJAwbw2ST0EkJVQJqgFClKEUGlY8NyFvReu2fvvZ2nnr2dvZy9353l9Kwo2Dh7OUFsKDbsSu8hye68HwKICoq0gDz/D/fLJZvZ2U1k9snM7LQIqK/RvGcvWw1GySS4hVPC81dSomxmXfvxkc2HY5KIyKaBpSZDCGF0bay1nj6MZyv7JAEAwDep2OzRtWtXQsjp06cPHjxICAkNDbW1ta3QPQIAQPngEt68z4mc4Fi7Vq1atUwCVjzOyc7gCCGEp6uvJ288BErKQh0hQwghjEBJwHHyQU+Mhq4ob9q3slEtUXpSqizxXbKuca28J/lGJoaZCYnigl3RrMxsDS3N/CkmPF19XfkOlJSUNHWEgvwdEMpRInCbcfKPzunrf7CvHzT2r9icvF1qaWRlZGLQFQBA1Vax2UMoFBJCWJYVi8WEEG1t7SZNmlToHgEAoHzwdA31tFqvffj27du3b9++S0xN2PGDKiGEEOYr89Bpxvv32fKHua9fJQn1RQKDWnpJr97k9XSwb1++0zIyVC14A6OuoZadmVUwFJf58h4EtZsNW3Pqwe0dzaNGD1j3mCPy9KKmoV65E+QBAOBbVWD28PDwkD/Yvn379u3b5Y99fX0rbo8AAFBuGMOW3byuL5tz8qWYEC779a2Y57klfGvO2c3ro9I5mhG1elV4rRYtrJVtOnS1ObN81Y1Ujoif7Fu8O7N9aJMPd8Tlm1vXeffwUVaJCpc+j775KpsjAv36zpaaUomUEkJTHj1Ks7Axr5A1qwAAoNxUVPZQVVX19PSUSqV37tyJioqKioq6d++eVColhGhqan717QAAoGi8Or037+z0YpqXsbaWyCpg/D9PpSV9Y0uvhEkexrp1Wu81mb1jciMlwrcdsWud57+97Q10Tf1XKU/Yt8C/UFPA6Hn71L1x9nJ2SUpnnx8e09xcT9/IxG1mxqAlA+vzCcm4eO5WA18v7dIcJgAAVB4mLi6ufEt8+/btokWLzM3Nx48fn5aWNmvWLIlEQghRVVWdMWOGsbHx3LlzHz58OHHixKZNm5bvrgEAQNHYBwubBj+bE7fum5ZF556tCfa9OPjm7s663z5uir7f1cnjr5CLh/uZVOxAYgCAmunRo0flVVT5/5lWVVXV19cPDQ2VSCQbN26UBw9CiFgs/v333+Pj4zt37mxqaqqmVooFpAAAoFr41ruo8yz6ze/1ZMmyG6VY+in78pKVCQPndkfwAACo8sq/34NhmDNnzhRe2vwTQqGwefPmgYGBlpaW5btrAABQNHm/x+y4dYHf0u8BAABVVzn2e5R/9rC2tn769GlycrJYLC5yAUF1dXWRSITgAQAAAABQ9VXp7AEAAAAAAPA5jI4FAAAAAIDKgOwBAAAAAACVAdkDAAAAAAAqA7IHAAAAAABUBmQPAAAAAACoDMgeAAAAAABQGZA9AAAAAACgMiB7AAAAAABAZUD2AAAAAACAyoDsAQAAAAAAlQHZAwAAAAAAKgOyBwAAAAAAVAZkDwAAAAAAqAzIHgAAAAAAUBmQPQAAAAAAoDIgewAAAAAAQGVA9gAAAAAAgMogUHQFAAAAAACqkPj4+KysrISEBEVXRAEMDAw0NTXNzMwqqHxkDwAAAACAPPHx8crKyn5+foquiMJcuHDh+fPnFRQ/kD0AAAAAAPJkZmaGhIRQShVdEYXx9vY+evRoBRWO7AEAAAAAkCcxMZHjOEXXQsESExMrqGRkDwAAAACAj9Tkfg+GYSqucGQPAAAAAIAPKKU1OXtUKGQPAAAAAIAPkD0qDrIHAAAAAMAHyB4VB9kDAAAAAOADZI+Kg+wBAAAAAPABx3E1OXtgrjkAAAAAQOVB9qggyB4AAAAA3+bx48eZmZmpqamKrkh1paOjo62tbWlpqeiKFK2Gj7mq0GNH9gAAAAD4Bo8fP2ZZ1sLCQtEVqaKio6P79ev31c3Onz///PlzMzOzSqjSt6pm2YO+39O79akfIjb8ICqXDgtkDwAAAICqIjMz09nZWdG1qNJKcvHatGnTo0ePVkJlSqEs2SP3cD+LPgfFhOEra9e28+kxbcH4gNr88q3fp0Teg2daWGqVV2io0OzBq7iiAQAAAL4/GGr1VbRkEhISFF3TopWw/kUjVLnJ/JiExLdPru7ow/tjyPRjaWUqrwT4xp6t3Y145VhixZ1bZA8AAIBqQxwxtlH9ejY2NjY29Zx67X7FKbpCn5NFLwxyCF4Sw5apFJrwV2+HBiNPSMqpVlC5FH6BW0ZcGVCOEEo5jjIq+k6hnTzYZ0/eSTmOy7q3e3RLFxvreg1bjP4zNpvjOMnTQ1Pau9la17W2dW87NzKVlfz3q5fXr/9JOI7jOOmDZUENJ13I5Thx2BCXn5ZtGBLgZGVu7fG/VReu7Rge3NDazMIpZEbEO5bj2ISdoRa9/87i2ISd3Zr9cujApBb2ptZDjueU/igq7twiewAAAFQbqkG/XY6c2VxZ0GD4gcvbupt8tRlnY1d06LL+SdmCAMA3qtbBg5S530NeApebFLN7z1X9xo1NeTT3+uIBi5K7742OvbX/fwnzRm14IJNcXTfzYqO112If3ru6b36ogyaRn5TCpyj/UdqxvY867b7+8Nafbd/M7zL0qv+GS7Gx4cOUdy/cHSejlBBKqHyoFPfiz3kHa/1y8m7Ub/7KZTiICoPsAQAAUI0wKrq6GgyjqiNSK0EbLnt8+tyTKtg5At85hV/gllHpr9kppZRIr85oXMfExMyu4z7z+X9McVOikqjDR3NDBne2UiFK5h1DPR6djnxDjSxMEyP/OnzznUzD1NZS57O9kg/hg1c35H9N9flEs4G/Zy2jgG6tTJWIsrlvc8v3L97I8k5l3qasaefJQz1ra6gpC8pyDBUG2QMAAKD6omkHBjqFLL9266/pPYM9nOwd3QO7/7IvNpsQwr0/MbVN6Mq7OTFLWtja2NRzm3ROQgghsjfnfx8b6ufm5OTm23nM7xff5XWKSM5N8vCZfTU5Ztf4jt7ODo3HLRvraddq2d0PfSY0+Z/BLg5dNj1jCc24d2DhqO5t/Ro7OTh5BOXv83Ncys2d03q1aOLs4Ojm22nYb0fjit6OyF5HrhzWztvZ3r6hT+iUPx+KlT46zox7B+b81MaroaNLk1b9Zh+Mzaq6161Q/bMHKVP8IEqNZ1yJfxH7Z09hskRTT4lSyiW8ff9iZy8XBwcHBwe3cWeoODOdsfxpy85+6kdG+Hq0GbsjOo3LPyH55XD52YMQnkhXh6GUUsoXKGlraxFKKSV8voDjWJJ/KuXb8utYmJZx5keFnljc5woAAKB6457+NXqCVeu+E1eM1MiI2btk2fRRwvrHxjvpeo9Z/6u465S4TpvWdjfn8dT1lAlNvzS/95B/tDpPWj7Fhok7sHjekEGS3XtHOioTQgiXcmvTmDNvRD+MnNtf18xRWXX/iRNhd0c6OPEJIYQmnzt+hXUZ28qMTxhByuNHAvfuU4bbGbF3d86eO32srv2RMQ6f3M4n59bKfn225PgPn7a2ob7kWeS25RN6xObs/71LnU83jFo2cNg2se/oRT+76mY/PLlx+upYGWma9yr79I8RveY9cx8+Y4OXXvLFDXN/7peodGhZiAF+Qq2iKvr6taKV5RKc0rzxTxpNhw8xbr1gR9+/B1kRkb6+zcCN4RMdC116UyJ0DJ2+s/OoOztG9x62osHZyTyG4WSsfN9sakoapfnhgzDyiEE/dHF8/PjDA6bM579CPz5kDwAAgOqNSiVOQ1b+/IM+QwhxdyJ3zo++cvUF62SpZWCir8FnlIW1jE1M+IQQwr04sGrPG6cJm6eH1uER0rCB9osbobt3XRiw0F+NEELEd+Jqrz0431++SkBudrDBwfCwO6OdnAWE0MSzx69yblNa1OYRQtS8J2z0zquAk9nAsyenR91Kog6GhZcXoEkn1m1/YDnw4JKB9QWEEPfG7oZprQev2nyt3cwmKoUPISNy+55Hht22Lx7QWI0Q0sjVnnkS9Mu1vFdzLm1ee1Wj44YlQ5ppEEKcrMS3A6ds+ye+1QDLCr51KZTSJxevR44cIYS0bdtWQdX5ZmXKHgUF8ExDx3bYOGTJiS6rW7u0bc2OWP5nm6U/2mtzaU8fJOo4WEpiY3LrOJppapnbW+qwUgnHM6tTK/Hgfy+lDc15qRf3n3zB+hX0RND8vFHQL0LyQ07hDWjZKl9w+GV5+5fhBwMAAIBqTmDr5aGbf9GvWstYl8nMyCpyy6zoa3fZer7NjfPaf6X6rk4a6ffuxOcNrOKZtf7Rp2B5MhXXkJa1X0aExUgJITThzPFrvCZtgww/u3ZgNA0N1Yk4R/zJBYvs3o0ocZ3mPtYFv3RqegZ4aiT8d+Ppx5Pf2acx97KEjZs3VMt7gqfv4WmTnyvYx9dvJGs09nPXyNud0Nm1Lnl4OxY3waqyCg/gOVxIZY7tKYuy3OeK4yglVP5IxXXwMIfIxb9HiZVcx22caHxkkLedtY1TwNCN/6XIZEkXl3ZvYmfbwLn5hNiAXwc15FP9thNGau8ObRbUttOQg7UCGitTjnKcfOxVftmF/oejhMh3RQn95EEZVdy5Rb8HAABANcfT0tYuFAgYQkjRl3VcRkqajL29tJXD0g/PcaROdnbe5nyRvm6hngsll5DWZruOhd0a16hR8unjN5Sbzg+Qv84mRe3fvCPsauzzhHSxjJNkpFK7z3YnS0/NYoQ6wkIl8oUibSYjPfPj6nGZGZlEKNL50IvB0xYWHBKXlpLOpR8a6nK44GXKcQJhdi4lauWyjDOUt4JcceTIkYIFBI8cOUIprRa9H2WJRkqt191vTfLOAWMUuu1WKCGEUmLVfsYf7WcU3rTv1nN9P9or0XAesPHUgIJnhhNCKOUHLr8VmFciv+HPZ0/mPWbMBhy4RgihRNR1x/2uhFCimvegCvd7IHsAAABUd0wJr8B5mtqafIHLoK2zW4k+vIVRFtURECIhRJ5bCuHbt2ljteXvsOhxpnEnotR8f/MRMoQQaczKPr220taTJizysjbUVGYvz2035fVnuxNo62jSuORUSszyn5KlJacToUj74/3wNLQ0SUZGJkdIXvyg4hwxJVryV7W0Nfn6TeZsHtSAX/g9tbQQPKoq+cXr0aNHP1m5XP6/ISEhiqlWiVXxbpmKhuwBAAAApcLn82iuuGBwkoaLux1v/cO3uiMbG5Towp1v0ybEdv2ek2ctHkdpBqxqqkkIIeyLyxce8/2Wzuzuo0YIITQhO/XT8VaEECJw9HRVP/DvubgxTrbyC47MK6euZBkENrL4eJ4G37KBrfrWqxfuSrxdlAkhhKZH3YhjiUFeHdyGCtjaAAAgAElEQVRddbbefiYz72inQqA6kF+8tmnTpk2bNsW9ypQ0MisAskfFFa6Q7MG92t49aM4NKSEMj6+iqV/HrklIvxE/+ZtVqb8obMK1nSvW7j0THZ8iVRaZWDt6dhg6/n/O2t/4DyXn0ux24x73/mtzD3NMiAMAgDKTpqVmU5qblirmTNS/Nm2Tb16vrmDPkfV/ufayFyjXdncw7zK6676BM/uOfdWvjXNtdVn66wdRz43/NyrErJhGim/ROsRxzY4VO5NEwes95fMxeHqmxmq5989HPvUOMOFeXtu7eGsMQ6w/ey+j02L4wF3d14yeoD66ayMDaXzklt8O5jad2ddd+ZMttX17djbrvWvyZMNxP7qIcp6e3brp5odLU7VmA4c17jpv6ICcAd2aWuvwc5Ke3r4ha/pzX7dPy4EqoiQXr1X84r6KV6/6Uly/h5LHsHXDPATSzHePrvyzffXQq09X/rMoWLd8IzD3ZlffPs9HHpvq+q0Hmhuzst9PGzM8+gyb46LHJr96cvfa/RS2FMNK+ZqGdczFuqpVN9sDAEC1IY4Y5z38SDpHyaofPP+bcWLr/zS+uD2vdqdfZsRMWrZoYITAuMuyow61hF5Td22us3Ldvt8mrkkSC3RMHbw6Dtf4QobhmbQMabj016uGfee75f1GyAhbTl54d/qS6W3dR/NEVp5dxi2fRnruKeLNynYDN2zXWbl856zBy9KIyKpxyMJdI9sVkXPU3cdvXqUyZ/nGcb1S+UaOrYcsWFhvzLA3ea/yLf+3Zrdw3apt22bseZPBaRhZN/TrE1JVftLjUmP2rVq588TN5xmMjk3A0Dm/drNT+/Ayff9HH78Zl+R9TzyDH7dGzvJSIuK4/TMmL4+Iy9ao13LMwhkd61ap31/LrEInK1cC9HtUXOFMXFxcxZVeDO7V9u5Biw2W3lzZUv6DhfTe8o6dNur+cmbr/4zK885b3Ns/+7XYWG9L+DdnD9mNuUE9jzZed2aBr9rXtwYAAIAaIzIy0sfHp+B/ufdnt/wjadY1oL5mVsyGYf3P+u75s/+Hu/+ysas6T2Xm/zVEfuMuhsfnMezjjT/2vhqydVUP07d7x/Xd77Rxz2CbqpKlyiwyMrJjx45f3YzH4+3fv7/wmawiIiMjW7RoIZPJFF0RhREIBCdPnqygj6Zq3GNXydrZToN79zaBEtnN+QH2wYtiPtx8L+vwkAYOAw6k5a/1WMzKpmz8pi7Ovf98/fL0or7Bbg2cuqzev+CHkF8vZb/Y2s3OxsbGYaC8iBIvsEoJoyQo+vyUuA4bHrOSc5PcHLpteZGf/3Oenlg6rENzVydnj6DuU3dGpdbcVA0AAPAd4Bn69R/Yor5QQPhCB183o8Q3CYXbdi4lKVXX0ECJL8djCOHeXjj71qd3Vxs1npplpz4BKSfCH7PFll8d0ZJRdDWLVQ43qa3mKu7cVo255ty7Z8+z+bWNv97p8eWVTbmXJ38ZFJ/r2WtaZ0NDuyb12ulL+g895bZ05zBHAVHV1WJKvMCqwN7Px2jnwYWz3Qwmta2vxStlHexN+ORF4QN9f3xqz3FXLH+asmamSc6tXfMX9R9F/t7S0+K7+a0DAACgppKl3ju4IZwEz3AofHnFZWWm3/itg9eibKJrG/DTz1NC7ZWfP31tYmWuRAghRGBR1/Tl9WcyUu87uhio7vM9qng0qmjf31xzOTY3OzsrV5z2Kvb8nmVronWCVwTrM+TLsf8LK5sSQojsxc2sCX/vHGCjlLcLAy0Bw9c0MDExERDyLQusEvUmE9f+kjp64cT2YWu823br0burr6UGU4o6FF74iL23a9UJsf/C5ePa6TGEuNjxHwYP2r4n5sdJDatGCAQAAIBvxz7b2qfLsv/SWT3P/rMnNvpoEo5KwOxTpzgtfXX2/Y0tE0YMX2pxfJI4J1dZLW8qKKOqpsJlZ0sI+Y6mfCB7VGvf6brmueHj3Z1dGjX2adtndjiv1Zwts78+0fxrK5syKp6hodZKxb6/xAusEkIYDfvuK46d2rOgj0vW6WWD27To+/vNdFqmOnBvb1yP57n4Ncs/UDVnVzve67v3kqr3hCwAAICajW/Rd+f1mDvRZ1a3ip/Tfdb5zMIvMmoifQ0BYVQM3X/6yT/32tVnnKqaiiR/GXgqFufy1NW/r1t2VesxVzo6OizL8vn8Eh7Fd4bP57Msq6OjU0GnV3E/tyt7jtk0urGqkobI2NxMX634EFToi/mllU2VCSGMmp6e+hcCTIkXWM2nZOjSYYRLh4GjTi8aMmb5hNXuJ6Y6lb4ONC0ljZP+N62J3bQPh8QxjlnZVfQfHwAAAJQYT83IuVNnz1ULbsSzzRyKGkHFcSxVVVPhW9St8/pBvJSYqRAii3/0ysTK7PsaAEGraq4oCS0trfv379va2vL539EwuBJjWTY2NlZbW7uCylfcN50RWbm6un6e8j9daIZmZ2bLr+pLtLLpF7tOSrzA6idUTAJG/+S1d8rt2+85l9LXgdEUavFUm0/6Y2KTQsfNqBmY1sSvNgAAwPeAZj68dpdf18lCX42kxf6z7wLj8IsZn318YM6WjB+m9W6QfP3MawM3JzMheX/59/UXTIL6mykZ+QVbbN6x75Fbd9O3B7dFqPqutf6+LgVKkj2qbD6xsrJ68uTJrVu3UlNTFV0XBdDR0dHW1ra0tKyg8qtcymY0tDRIekqKjBD5v8Ls29EPZMSREPLllU2LnCjCF/CpJFeS/90u8QKrn2ET3yeySkZ6mgxf9xvr8AHP2M3VVHY8Lrl2r+ZaWO8DAADge8Am39g0Z8z1+AyOr25o59t35RR/LSK5c+/ihSSP3F4O7KtTCyf9/CRJzGiaeXSes6KfDZ8Q0x9njY+b+FPTRWnK5r5DFgxsUOUuyMqmWmcPQoiVlZWiq/DdqnJfdb5FY0/j1Qc2bmhr3dtFM+Nh+MrlERkFr37jyqZ8Extr9aRTW7b4qjTWEOg5OtUp4QKr3PsDU8ef1/JwqmtaS09d8iY6bOeu+6adx/hqM4Qp/eqqgga9R7U4OmF8XzKwV4C9gXJuyov7/yXbDxviW85rKgIAQE2Tc2l2u3GPe/+1uYd5uf+CLote2Kr76RZ/ho134rN3Vnfuf8p/098jGpTffoqrfNaNBV167xcO37JliNO3L7dFUyOndx7/vPf+LT2LPCc0/eLMjqMe99izrU/dMlwPMULPYRuPDvvkWZUm08IjCSGE6HRYsL/DZ+8SmIfM2hMyq/S7rdqqe/aAilPlsgdRdh25/JeMuZtGtlibo2xYv2mXsQt7LRj/KO/Vb1zZVCto/LweE+evH95znX7wrP1L6xiUbIFVnoaVneHBffvW7HmfKeGp6Vk4+47eNLJXEy3m2+vwUblGbRb+ob5pxca98468TJWp6Fk4N/+xqQqCBwAAlBFf07COuVhXtcKbFA39OmZ1DL68nPq3KrLyXEL4rJ9PW07Zsai7fWnW+RX/t27uP6r/+7NbcWGM0fYaPqJx69nzDwRvCDWuGiuefS/kueLatWvJycmfvKSrq+vh4UGQPWoqhaxrDgAAANVH4X6Pytsrm/biSZaorrFmqVIBTTo0LHh6zoTwzd2+tHqY+Orsln0vtt1zdJxjyX+O/WRdc/hEZGRky5YtCSHJycmrV69OSUkpeEkkEg0fPlxXV5cQwufzjx07hjNZ0yDlAwAAVBvrO9k3GnYk9cPvxWzMkhZ2TSafy5acm+Tm0G3LC44QQmRv/l07pou/m6OdnaObb/v+s4/Gs4RIzkxoZB+6+XnBjd25l9t+dHCbeFZ+l3iace/AwlHd2/o1dnJw8gjq/su+2OzPayCLXhjkELwkhiWEe7Ozh71NYXadNz5lCSG5T8NXTOjdIdDLxaGBq2/nsVv++1DlnCdhy0Z28Xd3auDs6d9hyJbbEkI+qjwhRPwsfOmwLu07/BDU1Ltlr5+3XU1gP+y90YjDcedWDO/QzMXBoWHT9sNW/vvu8/mWNCXy2EWpe+tAQ/mVDs28v39WvzZeLva29i5ewd1Gb7qRTgkhqo1aBRk9P3H8jqxMnwt8Qn63VpFINGzYsIK7tero6AwbNkwkEhXczlWxlQSFqHpjrgAAAKAYrUOcV608fi4lpIN8oqDsdlj4C/2gGZ7q5ErBRtzrfZNHbsrsNG3Fz9aqWW8f37qWrqfL++odURhByuNHAvfuU4bbGbF3d86eO32srv2RMUXeK5YQQgjPsOOyCP+84JIQ9nP/FcleHrX5hBB+5pOHOfadxg5oYKr09MCCWYtGa9QPn+2tRrjXB8d1n3Ktdsch04fUVc148SDV0kSJEGnhYrm3RyZ2n3jdoufoxZOsVJNvHVizvH+ft5v3TvaQD/TKubyg/1O3boPm9qpFXp75feHaMTPNTq7toP/RgC3JratR0noD3UTyZ3OvLRsy/YzD2F83eRhyyc/vXYvV0ZOvGKzk0NhVffeNGy9Zl6/ddwZKriBXyOPHmjVrCCEFweOTbaBGQfYAAACoNkxahrguW3z8XHL7jnoMIdKYExEvjVq0dVMtvBH39tlLqXFIx7beDkqEOLl6B5escDXvCRu98x47mQ08e3J61K0k6mBY7BQSvoaBiQYhhNCE40u2Rhn32znEWZUQQgSOg9esztuooc2IK8eHR9+MZ71t6a2da86yQYs3zg3RYwghJOjzQtk7O1dFyFouWzOlpQ5DCHFvbM9/FbJs9cFe23oYE0IIzdRuO++3IU5KhBCPRrXfXm6/5fJtaQe/wnd8YV/HPcrSsLYxkccJmv0iPlHVoVWXQDchQ4izh2/bgk2V69a3IOfinrIE2aP8FM4VIpFo6NCh8gfIG4AxVwAAANUGr1ZwiAe9evxsIiWESG+Fhb82bd2u4cc3WhTYt2pr82LjgJ6/bDn9IPUrvR3FYDQNDdWJOH/t7S+iCWHz5p7W6ztniHNRc8KVDYx0mdwcCSHc66ibrwWNApvrFT8jnntz8+ZLQSNfb538bfimvv71Zbeu3crNq5quexM7pfwXaxkb8cQZmdKPS6FJCclEz1AvL00wQu/2/upnpnUdvvTAjVc5Hx0TX99An5eTmJiFi+Jy9MlS2SKRqPBQK4y5qsmQPQAAAKoPRj+wrTf/2vEziZRIosIi3lm1CXH4dBCDqsuoPw6u6Gn2YMvods0Des0+EJtZzFVe4afZpKg9i8b06dTKv7m3l1fzMYdTS3RpKE8e+n3nDHHK732h6bFHVkwaENom0Kepl1fTftufyQMQzUzLoKo6wi/dtYqmp6ZTVaGwUE8OT0ekw8gyM7Ll9eFpamsVunxhGEI+u4ilMqmUKCkpFRRRu+2yg7smN5eEz+sR0Lzd6N8vvi2Y4CFQEhAik32SXqBMPo8ZRVJ0NUEBkD0AAACqEUbHt21z5Rthp9+Lb4adSqwfElKviKFCjLpV0JBFe89F/j0rSHJkar9ZZ9IpkV+nF0KzsjLzp3dLY1b26TX3X+WgkYs2/3ng0KG/pweUZBlcmnBi3rzTBv1mf0ge7NOdQ3+cfDjTY8Cc33f/fejQwcWd8m9gq6GlwYjT0sVfOj6hjjYjTk0tNM2dS01OoUpCHfX8+ny9Xjx1DXWSmVk4cvENXLtN3Rj2b/jGQRZ31wwetjkuLxBlZWZRRk1dDTe8L0fIHlAcZA8AAIDqhBE2b+unfjPi1JmIs8kNQlpbfmGWgkC3QYfJU7uYpd27/YojPE1NDZKaXNCdQZNvR8fnZQ/2xeULj/l+w2d293G0NDEy0FfKTv36eCuacGLe3NMG/WcPLkgehKbfiIySuP00o39QQ2tTIwMDLUlqurwkvrGTk6H05pnzKcWXzKvl7mEhu3nmQsE27MuzZx4InN0aqHytOoVKqW1am0l68eqzG3Ux6mbN+s8d5kUf3n4onyXPvX7+iuqZ1C7NEiJQHGQPKA7mmgMAAFQvGl5tA7RHbl/xKKXhgJamn/+KyN7bPftQjpObvZWJkH19eWvYKx0P5zp8wrdt4iH849C63UEzf7BRTr79z6L111ginyvC0zM1Vsu9fz7yqXeACffy2t7FW2MYYv3FetCEE/PmnFRtvyxEN+nVK0IIIXxNg1rqJqa63OlLZx606WTNfx99eNnaCxIiIoQQouTaa1CTw7/OHCRM7O1nqSF+c/8OaT4m1KFwqXz7nqPbHhozZ/iC7AFBddVSYg6sXHmnTrfN7WvzCOE+r0WRGF17BxPZsZhYaXsPJUJoyukVv90xbOJcz8xIOSP2yB//8WwH2ykTQgiXcDvmlcC2QVG9R1BqJckVyB41E7IHAABANaPWuG2Q8O/dKU37t6hdxAAGRqiv9HDV0n3LErOpqq5lw+Dp68f5ahJCtAOnrhg7a8Gmfn7zJerGDfx7/DpLa+wcTv6elpMX3p2+ZHpb99E8kZVnl3HLp5Gee75YjezLhyPeS3P/Gt7ir7xn+Ma9dpz+pcnIxSMS564MbTyT06rTqN2IefNUBy7J28C826odKiuXb980/e/3OUoGNs2HBX5Wff3gObvWbPpt7brxf76TqNR28Bu+cULfxprfNCaKb+vT1HDb+bN3ZR4uAsKo6gszLmyZtflVmkSgZWzr3WflhD5WfEIITbpwLobfcJKn9jcUX7BgBRTnq7mCz+ezLCsSiSqnPlB1YF1zAAAA+P7I7q/8ofN+l99PzG6mXuxGbPyW7iG/Gy44uaKNqOTh4+nTpxKJpH79+uVRz+9QZGSkv7//l7fhOO7+/fsqKiqWlpaVUyuoIpA9AAAA4DtE085NbT/6We+Du/oWMyeGpp/7ue2YJz337e5v/Y1Drp4+fZqenp6amloOFa2RRCKRpqamlZWVoisClQ3ZAwAAAL5LNP3Wgd3RBu17NDcuKlrQrDuHdlwXhvT0q4Mh6ACVpPTZIzo6OjU19f379+VbIVAsQ0NDXV1dJyenshQSHx+flZWVkJBQXrWqRgwMDDQ1Nc3MzBRdEQAAUBi0g2gHoTilzB7R0dEcxzVu3JjHw116vyscx125ckVJSanU8SM+Pl5ZWdnb27t8K1aNXLhwQSaT4c8uAEDNhHYQ7SB8QSk7GVNSUgIDAymlEomkfCsEisXn8z08PE6dOlXqEjIzM0NCQmryjfO8vb2PHj2q6FoAAIBioB1EOwhfUMrskZCQwDCMTCYr39qAwslkMoFAUJZu4sTERI4r6Q3Yv1eJiYmKrgIAACgG2kGCdhCKV/rJVViQ8ntVLh9rTf5uMMw33YMeAAC+Q2gHAYpUpuyBWP9dKvufS+RSAACoydAOAhQH/R7wKWQPAACAskA7CFAcZA/4FLIHAABAWaAdBCgOsgd8CtkDAACgLNAOAhSn9NmD4zjM9/gulf1j5TiuJv/NxRw7AIAaDu2goqsAVRf6PeBTuM9VGeFvLgAAoB0EKFJFZw/u9e7+PR70PTGrmXKp9wSVC2OuyqgmHzsAABC0gzX42OGreKV+p/weux+R3lvdpcvqe9KPnqSUfLbh1+Rcmt2m/+6XMjbt1skLL2TyJ2Xvrp68niD74hvZtPCJPs3GHk9hCz0pjj+9enz3Vs3cXd28/H8YuOJCMiuOmODh4tZj67NCxUnvrOjQqGHLBTckHMdx0pcRC/q2aurp5d95wq7bGSxXc5RX9qjJyngCAQCgWlN0K6R4iv4EoOoqU/b4hPTeyTN8/yAb3kdfPlrktl+Ufe3EZdNAPyOSdmHHushXMkoppezbiE3bridyX3ojlxJ5/EFtk8dhZ5Pyt2PfHp82YM71Wt0X7Tl9LmL/ukndmlppEUqJhrlpckT4Uzb/vZKYsEhiZsIjlFLKvj+yYOE99/lHzp/eOVB177R10bnfeAzVWxm/VcUVy73Z0t5IpKenp6dnYFzPve2wFWdfSSrzuEqAffPvwQvv2K9v+EVlPIEAAFCtlUuDRGX3FjUzajL3lrRcSuNSrx889UxWLmV9naI/Aai6ynHMlfRO+Dm1wN8sGcq+Pb/61yX/3M1QM2/a0ZFSSiillMhenVk1Z9XxBxlKtRv3mjq1o3R911nMzD1jnJUIIblX53VaKlryxxBbfvaVk9ctgoZqRq0b9tu/z3NudjivYf9jX71jG6KecCPaHVZvPGI4WbHJaMWugTY8QmhGxJSOu+02beltTt6fCXviNni8YNnOiDchXWvzCJFE71z3n+O4PaOCdRlCiHpdN0NCCJVQQq19fZ+eOvmw9+D6fEJI7s2wS8Y+XsmnWUopzbz+7x2HLrMctBhGy7dH6y1jTsaMdHYt/cmqAlJTU7du3Zqamlr4SR0dnb59++ro6BR+sux/Mor7u0MpJcoh6x9v76gmSYu/cWjZ1J/aPlpzcnkLvSozMJR7+c9vK1Nnt/EyKH2V8DcXAKCGK5frb+mtvYeIvdKRvf+Nc/Qo88h1mhKxav6Vfq38zUr/s3OJ94V2EIpXfv0eubdO/KsT6F+H4RLDFv36r+n4PadOH1jk++ribZm8K+HZn9MXP/CcdzDixPb+yn9N33jfJsCH+ff0XQmllIqjTl3S8g+w5lEu/dLJmzbBzXTVGg78tYetYeu5B44cXPi/dmMntze17LbinyN/Twv2bu2bdTo8VkYp5dIvnfrPPCjAlKHs64iwN94t3d1bNE86Gf6CpZSy8ddvpLsFNRN9Wl1CWWId6E9Ph9+XUkpp9vUTN+oGe2lylFBKZW+evxaZ11EnlFLKmFiYZjx7lvrFHpeqTygU9unTRygUFnyCBc98vnEZv1VfGs9FKOU4jgq0zDx7/LZtsumRBVvuSzmOk709u/B/3nbW1vZePy6KTGA5jk25trqfr6NNXSsbR58BOx9KOY7LuLNzTJtGViYmVi7tlkXlcpz4yT/TOnrUt7Syadhy5PaYdJbjOHHYEJefVmwd1bKhjYWFnd+QXbFijityFxzHJl1dOyjQycKkjo1br63Xj07uvvjy3d9DXZ3dRx1J5zKvr+3Xwt3BxtKyQdCofY9z5YW7jvgrfF5HlzpmoTvfFzMYr4wnEAAAqrXyGAEtvrb3mG63Od1rn9x7KbvgySeHpnX2tDE1tnDwn34us8jWM2FnN48Rq5b29Lava2Hj2f23i4ksl3lxfrefTz7ZM8Dd2bX39ucyyf2dw0KaONaztLRt9tPmmGyO43KvTGvSY9PZNT09LE2Dlj+QfqFqJaDoTwCqrtJnj0++ZDn/nbxkEOBXm3A50ReiTEJ+9NTlcQKDpp0CzfiUcpws/kzEc9fQzvXUCKPr1bqJ5PLF+HoBPoLzp+/kclzOzdOXRQEBlgzHpl44edsu0EtIOY7jKCEF00po/nUrxwkatPTnzoTflXBs+uXTUVaBvkaEkz07EZ7uE2wv4NkG+4nDwx7JOE6WmpKhoSMUfP6PglLKWAYEqJ49eTuX49IvnbhlF9xEM28XbE52rrKKUt6eibKKkjg7q/pP+dDW1u7du7e2tjaltOBxkVuW8Vv1hQj00auMSWBLu8dXrqdw7Ju940aE11vw77375xdbHx0x42Qa9+7ggtWSgSfuPHwYc2rdaN86PJp9aV6/hW/bbb766NH1g0tD6wmk99cMmnrXZ/2Vhw+j/+4nXtFv9vlMSimlqUd3/Oe//lJs3PXfG8f8+lt4JqVF7IJyScem9t/C9N8b/Tj24p8zWju1mrX4fxb1Bvx17eaVpa01qIpRo//NP3zj/oMri+0uzFp7ST7yLuX4/A3SQQdi7mztrFfMsZbxBAIAQLVWmt8IP5F9YW+E2Q/tXNt2tD67L1LeuEnvrRk4Kcptyb8PH0eHre/volpU00YJYV8cPJw99J/oh/dOjFDaNmT22Uw1z/FrhjrV7rL+ys1rW3qYMDw9h47T/rp8N+7mtoBH834LS6OUEiq5snTR4w7brt07OMiK9+XqfY2iPwGousqr3yP7RvgV4wBfQ4Zy2alpMl19PUb+3RPq6jCEUsomJyZnnJvToWXLli1bhkwJy8jNzmLqBfgqXzh7VyKOPnNZz8/PjKFcyoWIe45BTbRJ3jeXksJf5PxHfNuWgaqR4XdyMy6fvmUT5GPAUNnDEydjn+8d1SooqOWwP54+Cj9xT0qJppZGVkrq53MKCCGU8swDAoT/nrwlTr0Yft85yF2dEPk+iIqqSq5YnNfTwYrFUhU11e9i5phQKOzdu7e5uXnv3r2L7PGQK+O3qvj9f/R5Usro6AhJVkYGm3z64EXbXkM8RTxG6Na1je75iCiJhpm56p0je84+yuDr1atfW4lKoo+eoB1G9XIUKSkJ61gYqcgenzj+0mdAP0cthqiYtRveRf3Ygau5lFLKt+rQr4WJEmVE7i081F49T2S5InaRm3P5yGmjHmN+sNYUqOhamuvxP5mgxBi7+ToZKBGeXtPm9hlv3onlz2q1Gj0hwExLXUWpgk4gAABUayVulouVdnbv+fodWxny9IJ/cLy0/1QKR6nsUdixl75Dh3kaKCtpGlsaa9KimjZKKVFq1KWXq4hHlc07Dmqn/O+pGAktfBVFKdF18nEzUWWIllPzRhoJb1JYSikhjPfgX9rXE6mrKjFlrL+iPwGousppvkf2tfAbFoGD9BlKiYq2Fj81OZmlajxCaGZGJqWUUEZbpKPXcuq+Se5KhQph/X1Vfz53y0N8zShgpSlDucR/I+IadpipWfBvhFCu8Hc4f6eMRXCwaNypq3Ypd2wDx+sxVHI77LRy9xV/dDLhEUK4l/smzguL6W9v7+igcujslTQfX+2Pxu/L0wdj7OdvMPxEhHnyE7durqrkRd6VMc/I3CTj9Isszl6LIdzL+FcadX7Q+l6GLwqFwl69epHih2OWy3EWWUjekx8+UC7hfRJPpKvNJb5LzLn0a/MG8wghhMpyucAMTr317AMLNy5Z2slzhlOvmfPGBBokJaTpNzTgFbydTXqfolPLQCB/gqdfSz/rdpKYUkJ4evq6TN7TAj7lWMoWsQs2IylJavNk42YAAAj+SURBVFirUImkUDwiRPry1OqFGyIeplEeSX0isWktvwcYz9TclP+dfBsAAKBilKmZoCkReyNenYvwsp1GCJebyYlPJIZ0FSYlpohqGwo+NINFtZ6UUsLT1hHKW0GenqFuxr20D9dSlFJCuMTLmxasOXw7QcZjMl8ki4ZzeZc/ZnVU0b5BxSpT9sgfnEMzL4dHWQcMF1GOo0S5QWOn53v2XAse4aGVeuWfiKesPeU4UqeZv+HYHX/csvrRUcTLfvvwnVI9Sz2ehZ+vxowdf0iM/LobEU727typZ65dXVXlJVN1Lc2sZ4/fSVxr8ynV0NZIuvcoRVZXxBCGIbX8gozGbtottvtxjJByOTfDIjX9lzoa6st7cnRbBwhHH78+2Nk9tJvp4CXTNjEjOriZqktT37wS69uaq1FCKMdxxNAnwGT7ik3abRY6CrgPY7zUXH2d1/y9506TPvWyL/x5PNVjrC2/7EORqomy/9Up7jcP+mHMFSGEEOmjI0cf2rVz0+Kp64k0A4dc2tRBq/DWxNRv2HK/Aa/PzO0zYqrF+Q2mIq3Et+9ltE5efmX0DEUpce8klPIJIbJ3rxM0DfRU8tJpXsTJ/w8jLGIX2UeF/MS372VUk/9htwUH8HbPhOEnnXf+ucxNh5+xv7frkYLjYkjRB1j4MAEAoMYq42//9N3x/dHNFp+a7aNOCCHZZ6d1/vvom849dETaqfEJUnmrRwgpsmmjyYRySe8TWVqHR4js7esEbZE2ofJfXeUZJPPEjAE7NJfvPxJgpCQ9M9Z9RX59mS+3byWuP9pBKF55jLni0i5F3LENaCLMu6rUbTFmkmvcwh9bteoyMcK8tY+WfMq2RejMcQ63F/duHRjYstvELdcSOUopY+bbXOnmLUO/5oYMZd+eO/PKI7Chan6HnXbTrh3onv5t243Z+4KaBP3Y7P267m06zAhP4ShlDHyDjV+8sQtook1o1vUTF/X9fEwKuggZUz9/o8snr2bwLbrO+61Xrag1wzsHBQR3+OmX3dEp+emfUsoYNA+oz4maB9oL8v+1UUopEfqNGOd4a2bnwJa91yYF/zzITZXWJGX8Vn2xYEoppbKc97Gn1w3vszr7x4ldzRii59fePWr9srOvxZSy2W/u3H2Zy2U+ibmfkMtRJf369WsrSSUygWPLAPbQmj2xGSwnfh/3JImxaNne8vyGTdFpLBU/O7zm76wWbV3zPsjC+6SE0qJ2QVUbt2r+8o/VYfE5HJv1Oi4+jSPaIq33sbHJLOVkmcmpPNP61to8mht/LCxK+qExqegTCAAA1VrpG2BKKWVfHvn7vlfnNla15KzadvZ+eOBQPLEKCtY/+/uGmylSTpIc9/gdW1TTRikl0ui9W68kSrmcx3vXH2Gb+zcQUKKlo53x8P4rCeXYnJRksWE9O30Blb47e+xyKpdf4U9GRpeBoj8BqLrKZcyVduCc/YHkQ87lGTUbsarZiPwtO+S9xDf06r/Aq/9HRRDGrMfGsz3k/0dqdV65hxTOy9pug1btG5S/ve/4Db7jC97KibPFGp6tPTQJpWpePx/w+uidjHHXtf/IS9W27zhxZceJhetOfGaF+cg31w1ZciJE/lbGqs/m/P0z+k0GL2sy+KO61hBlP9TiJqxTSmlu2PB6piMYZc3a9TxaDN49t5uLJuU4UqvzkpWJv8wKcR6QxqnVdum9YHP9+o/2jZm894lYWVWrju+Yhe30qJrX5HXDp//cw/WXRCpyG7N99yD7vqsWJE8e2WzNO6mmdfDw9VO81DhOUnCLgvyjoUXvwra2bsic1fFTZ7ZzGp7G1Ar69c+1oeYdBrc4NtO3wdxms47/MrLTmbmtA38XCq1at2lheZGjhfrGiu8FY5gqc8tgAABQhDLduIV98s/BZ81He6sXFKHetL3vz0sOPug3atjaX5InD22y/I1Us/5P6w5N8vy8aavFUaLh3Ux9Y2e3vq+kRl6DVk5qqspxVCeof899k9o4r2kwet+qoUOOTuscsEeoZeLTpZXLE8p9dEufsh4+2kH4AiYuLq4Ub9u7d29QUFBubm65V6ikuJSry0YsF4zfNspFRWGV+D6pqKhERESEhoaW7u2RkZFt2rRhWbZ8a1WN8Pn8Y8eO+fj4KLoiAACgAApuB2nyX728z3S5uaGdmmIqgHYQvqj0/R7lcjPW0sk5v6DXgvNMvc5TZzkq1ZhpGJWmvO6xWy6VqY5q8rEDAABRbDv4YU65whojtIPwBeW4rnnlUW06ae/RSQXVUEgdvmNlP6XIHoquAgAAKJJis8fH93VRWBUAilT67EHw3YLi4bsBAAA1meLaQVHotjuhaIihqqqW/R5QodDvUUY1+dgBAICgHazBxw5fVS3ne0CFwnyPMqrJxw4AAATtYA0+dvgq9HvApyruHrs1RE0+dgAAIGgHa/Cxw1eVMnuIRCKpVKqkpCSRSMq3QqBYysrKUqlUJBKVpZAanktr8rEDAABBO1iDjx2+qpTZQ09P79GjR1ZWVsrKyuVbIVAsmUz25MkTAwODshSCv7mKrgIAACgS2kFFVwGqrlJmj0aNGkVFRT18+DAlJaV8KwSKJRKJDAwMXFxcSl2Cjo4Oy7J8Pl8mk5VjxaoLgUDAsqyOjo6iKwIAAIqBdhDtIHxB6ed7NGzYsBzrAd8NLS2t+/fv29ra8vl8RddFAViWjY2N1dbWVnRFAABAMdAOoh2EL2Di4uIUXQf43jx58iQjIyM1NVXRFVEAHR0dbW1tS0tLRVcEAAAUBu0g2kEoDrIHAAAAAABUBp6iKwAAAAAAADUCsgcAAAAAAFQGZA8AAAAAAKgMyB4AAAAAAFAZkD0AAAAAAKAyIHsAAAAAAEBlQPYAAAAAAIDKgOwBAAAAAACVAdkDAAAAAAAqA7IHAAAAAABUBmQPAAAAAACoDMgeAAAAAABQGZA9AAAAAACgMiB7AAAAAABAZUD2AAAAAACAyoDsAQAAAAAAlQHZAwAAAAAAKgOyBwAAAAAAVAZkDwAAAAAAqAzIHgAAAAAAUBmQPQAAAAAAoDIgewAAAAAAQGVA9gAAAAAAgMrwfxoKvtMzidi+AAAAAElFTkSuQmCC;" parent="1" vertex="1">
          <mxGeometry x="314.91999999999996" y="890.9999999999999" width="420.17" height="190.56" as="geometry" />
        </mxCell>
        <mxCell id="sbGdN3Yiho158-mzq0W8-242" value="P" style="text;html=1;strokeColor=none;fillColor=none;align=center;verticalAlign=middle;whiteSpace=wrap;rounded=0;fontSize=13;fontFamily=Helvetica;fontColor=#990000;" parent="1" vertex="1">
          <mxGeometry x="355" y="967" width="17" height="21" as="geometry" />
        </mxCell>
        <mxCell id="sbGdN3Yiho158-mzq0W8-245" value="R" style="text;html=1;strokeColor=none;fillColor=none;align=center;verticalAlign=middle;whiteSpace=wrap;rounded=0;fontSize=13;fontFamily=Helvetica;fontColor=#990000;" parent="1" vertex="1">
          <mxGeometry x="365" y="917" width="27" height="30" as="geometry" />
        </mxCell>
        <mxCell id="sbGdN3Yiho158-mzq0W8-246" value="S" style="text;html=1;strokeColor=none;fillColor=none;align=center;verticalAlign=middle;whiteSpace=wrap;rounded=0;fontSize=13;fontFamily=Helvetica;fontColor=#990000;" parent="1" vertex="1">
          <mxGeometry x="374" y="993" width="27" height="30" as="geometry" />
        </mxCell>
        <mxCell id="sbGdN3Yiho158-mzq0W8-247" value="T" style="text;html=1;strokeColor=none;fillColor=none;align=center;verticalAlign=middle;whiteSpace=wrap;rounded=0;fontSize=13;fontFamily=Helvetica;fontColor=#990000;" parent="1" vertex="1">
          <mxGeometry x="392" y="958" width="27" height="30" as="geometry" />
        </mxCell>
        <mxCell id="sbGdN3Yiho158-mzq0W8-248" value="T" style="text;html=1;strokeColor=none;fillColor=none;align=center;verticalAlign=middle;whiteSpace=wrap;rounded=0;fontSize=13;fontFamily=Helvetica;fontColor=#990000;" parent="1" vertex="1">
          <mxGeometry x="491" y="958" width="27" height="30" as="geometry" />
        </mxCell>
        <mxCell id="sbGdN3Yiho158-mzq0W8-249" value="T" style="text;html=1;strokeColor=none;fillColor=none;align=center;verticalAlign=middle;whiteSpace=wrap;rounded=0;fontSize=13;fontFamily=Helvetica;fontColor=#990000;" parent="1" vertex="1">
          <mxGeometry x="581" y="958" width="27" height="30" as="geometry" />
        </mxCell>
        <mxCell id="sbGdN3Yiho158-mzq0W8-250" value="T" style="text;html=1;strokeColor=none;fillColor=none;align=center;verticalAlign=middle;whiteSpace=wrap;rounded=0;fontSize=13;fontFamily=Helvetica;fontColor=#990000;" parent="1" vertex="1">
          <mxGeometry x="675" y="958" width="27" height="30" as="geometry" />
        </mxCell>
        <mxCell id="sbGdN3Yiho158-mzq0W8-251" value="R" style="text;html=1;strokeColor=none;fillColor=none;align=center;verticalAlign=middle;whiteSpace=wrap;rounded=0;fontSize=13;fontFamily=Helvetica;fontColor=#990000;" parent="1" vertex="1">
          <mxGeometry x="460.5" y="917" width="27" height="30" as="geometry" />
        </mxCell>
        <mxCell id="sbGdN3Yiho158-mzq0W8-252" value="R" style="text;html=1;strokeColor=none;fillColor=none;align=center;verticalAlign=middle;whiteSpace=wrap;rounded=0;fontSize=13;fontFamily=Helvetica;fontColor=#990000;" parent="1" vertex="1">
          <mxGeometry x="554" y="917" width="27" height="30" as="geometry" />
        </mxCell>
        <mxCell id="sbGdN3Yiho158-mzq0W8-253" value="R" style="text;html=1;strokeColor=none;fillColor=none;align=center;verticalAlign=middle;whiteSpace=wrap;rounded=0;fontSize=13;fontFamily=Helvetica;fontColor=#990000;" parent="1" vertex="1">
          <mxGeometry x="648" y="917" width="27" height="30" as="geometry" />
        </mxCell>
        <mxCell id="sbGdN3Yiho158-mzq0W8-254" value="P" style="text;html=1;strokeColor=none;fillColor=none;align=center;verticalAlign=middle;whiteSpace=wrap;rounded=0;fontSize=13;fontFamily=Helvetica;fontColor=#990000;" parent="1" vertex="1">
          <mxGeometry x="453" y="967" width="17" height="21" as="geometry" />
        </mxCell>
        <mxCell id="sbGdN3Yiho158-mzq0W8-256" value="P" style="text;html=1;strokeColor=none;fillColor=none;align=center;verticalAlign=middle;whiteSpace=wrap;rounded=0;fontSize=13;fontFamily=Helvetica;fontColor=#990000;" parent="1" vertex="1">
          <mxGeometry x="544" y="969" width="17" height="21" as="geometry" />
        </mxCell>
        <mxCell id="sbGdN3Yiho158-mzq0W8-257" value="P" style="text;html=1;strokeColor=none;fillColor=none;align=center;verticalAlign=middle;whiteSpace=wrap;rounded=0;fontSize=13;fontFamily=Helvetica;fontColor=#990000;" parent="1" vertex="1">
          <mxGeometry x="638" y="969" width="17" height="21" as="geometry" />
        </mxCell>
        <mxCell id="sbGdN3Yiho158-mzq0W8-258" value="S" style="text;html=1;strokeColor=none;fillColor=none;align=center;verticalAlign=middle;whiteSpace=wrap;rounded=0;fontSize=13;fontFamily=Helvetica;fontColor=#990000;" parent="1" vertex="1">
          <mxGeometry x="470" y="995" width="27" height="30" as="geometry" />
        </mxCell>
        <mxCell id="sbGdN3Yiho158-mzq0W8-259" value="S" style="text;html=1;strokeColor=none;fillColor=none;align=center;verticalAlign=middle;whiteSpace=wrap;rounded=0;fontSize=13;fontFamily=Helvetica;fontColor=#990000;" parent="1" vertex="1">
          <mxGeometry x="657" y="993" width="27" height="30" as="geometry" />
        </mxCell>
        <mxCell id="sbGdN3Yiho158-mzq0W8-260" value="S" style="text;html=1;strokeColor=none;fillColor=none;align=center;verticalAlign=middle;whiteSpace=wrap;rounded=0;fontSize=13;fontFamily=Helvetica;fontColor=#990000;" parent="1" vertex="1">
          <mxGeometry x="563.5" y="995" width="27" height="30" as="geometry" />
        </mxCell>
        <mxCell id="sbGdN3Yiho158-mzq0W8-263" value="Electrocardiógrafo con la calibración apliocada" style="text;html=1;strokeColor=none;fillColor=none;align=center;verticalAlign=middle;whiteSpace=wrap;rounded=0;fontSize=11;fontFamily=Helvetica;fontColor=default;" parent="1" vertex="1">
          <mxGeometry x="995" y="365.08" width="246" height="30" as="geometry" />
        </mxCell>
        <mxCell id="sbGdN3Yiho158-mzq0W8-264" value="Electrocardiógrafo previo a la calibración" style="text;html=1;strokeColor=none;fillColor=none;align=center;verticalAlign=middle;whiteSpace=wrap;rounded=0;fontSize=11;fontFamily=Helvetica;fontColor=default;" parent="1" vertex="1">
          <mxGeometry x="989.96" y="173.99999999999997" width="246" height="30" as="geometry" />
        </mxCell>
        <mxCell id="QFNIT0m9x6jqfU3S40xn-2" value="R" style="text;html=1;strokeColor=none;fillColor=none;align=center;verticalAlign=middle;whiteSpace=wrap;rounded=0;fontSize=19;fontFamily=Helvetica;fontColor=#990000;" vertex="1" parent="1">
          <mxGeometry x="596" y="641" width="27" height="30" as="geometry" />
        </mxCell>
        <mxCell id="QFNIT0m9x6jqfU3S40xn-3" value="R" style="text;html=1;strokeColor=none;fillColor=none;align=center;verticalAlign=middle;whiteSpace=wrap;rounded=0;fontSize=19;fontFamily=Helvetica;fontColor=#990000;" vertex="1" parent="1">
          <mxGeometry x="1401" y="727" width="27" height="30" as="geometry" />
        </mxCell>
        <mxCell id="QFNIT0m9x6jqfU3S40xn-4" value="R" style="text;html=1;strokeColor=none;fillColor=none;align=center;verticalAlign=middle;whiteSpace=wrap;rounded=0;fontSize=19;fontFamily=Helvetica;fontColor=#990000;" vertex="1" parent="1">
          <mxGeometry x="1160" y="731.32" width="27" height="30" as="geometry" />
        </mxCell>
        <mxCell id="QFNIT0m9x6jqfU3S40xn-5" value="T" style="text;html=1;strokeColor=none;fillColor=none;align=center;verticalAlign=middle;whiteSpace=wrap;rounded=0;fontSize=19;fontFamily=Helvetica;fontColor=#990000;" vertex="1" parent="1">
          <mxGeometry x="1226" y="799" width="27" height="30" as="geometry" />
        </mxCell>
        <mxCell id="QFNIT0m9x6jqfU3S40xn-6" value="T" style="text;html=1;strokeColor=none;fillColor=none;align=center;verticalAlign=middle;whiteSpace=wrap;rounded=0;fontSize=19;fontFamily=Helvetica;fontColor=#990000;" vertex="1" parent="1">
          <mxGeometry x="1469" y="797" width="27" height="30" as="geometry" />
        </mxCell>
        <mxCell id="QFNIT0m9x6jqfU3S40xn-7" value="S" style="text;html=1;strokeColor=none;fillColor=none;align=center;verticalAlign=middle;whiteSpace=wrap;rounded=0;fontSize=19;fontFamily=Helvetica;fontColor=#990000;" vertex="1" parent="1">
          <mxGeometry x="1173" y="866" width="27" height="30" as="geometry" />
        </mxCell>
        <mxCell id="QFNIT0m9x6jqfU3S40xn-8" value="S" style="text;html=1;strokeColor=none;fillColor=none;align=center;verticalAlign=middle;whiteSpace=wrap;rounded=0;fontSize=19;fontFamily=Helvetica;fontColor=#990000;" vertex="1" parent="1">
          <mxGeometry x="1414" y="859" width="27" height="30" as="geometry" />
        </mxCell>
        <mxCell id="QFNIT0m9x6jqfU3S40xn-9" value="P" style="text;html=1;strokeColor=none;fillColor=none;align=center;verticalAlign=middle;whiteSpace=wrap;rounded=0;fontSize=19;fontFamily=Helvetica;fontColor=#990000;" vertex="1" parent="1">
          <mxGeometry x="1130" y="817" width="27" height="30" as="geometry" />
        </mxCell>
        <mxCell id="QFNIT0m9x6jqfU3S40xn-10" value="P" style="text;html=1;strokeColor=none;fillColor=none;align=center;verticalAlign=middle;whiteSpace=wrap;rounded=0;fontSize=19;fontFamily=Helvetica;fontColor=#990000;" vertex="1" parent="1">
          <mxGeometry x="1367" y="815" width="27" height="30" as="geometry" />
        </mxCell>
        <mxCell id="QFNIT0m9x6jqfU3S40xn-12" value="ADC" style="text;html=1;strokeColor=none;fillColor=none;align=center;verticalAlign=middle;whiteSpace=wrap;rounded=0;fontSize=19;fontFamily=Helvetica;fontColor=default;fontStyle=2" vertex="1" parent="1">
          <mxGeometry x="684" y="200.5" width="33" height="4.5" as="geometry" />
        </mxCell>
        <mxCell id="QFNIT0m9x6jqfU3S40xn-25" value="" style="group" vertex="1" connectable="0" parent="1">
          <mxGeometry x="117" y="280" width="10" height="14" as="geometry" />
        </mxCell>
        <mxCell id="QFNIT0m9x6jqfU3S40xn-16" value="" style="ellipse;whiteSpace=wrap;html=1;fontFamily=Helvetica;fontSize=11;fillColor=#6666ff;strokeColor=#0000FF;fontColor=#ffffff;fillStyle=solid;" vertex="1" parent="QFNIT0m9x6jqfU3S40xn-25">
          <mxGeometry y="4" width="10" height="10" as="geometry" />
        </mxCell>
        <mxCell id="QFNIT0m9x6jqfU3S40xn-17" value="-" style="text;html=1;strokeColor=none;fillColor=none;align=center;verticalAlign=middle;whiteSpace=wrap;rounded=0;fontSize=19;fontFamily=Helvetica;fontColor=#ffffff;" vertex="1" parent="QFNIT0m9x6jqfU3S40xn-25">
          <mxGeometry width="10" height="13" as="geometry" />
        </mxCell>
        <mxCell id="QFNIT0m9x6jqfU3S40xn-32" value="" style="group" vertex="1" connectable="0" parent="1">
          <mxGeometry x="116" y="265" width="12" height="12" as="geometry" />
        </mxCell>
        <mxCell id="QFNIT0m9x6jqfU3S40xn-33" value="" style="ellipse;whiteSpace=wrap;html=1;fontFamily=Helvetica;fontSize=11;fontColor=#ffffff;fillColor=#e51400;strokeColor=#B20000;movable=1;resizable=1;rotatable=1;deletable=1;editable=1;locked=0;connectable=1;" vertex="1" parent="QFNIT0m9x6jqfU3S40xn-32">
          <mxGeometry x="1" y="1" width="10" height="10" as="geometry" />
        </mxCell>
        <mxCell id="QFNIT0m9x6jqfU3S40xn-34" value="+" style="text;html=1;strokeColor=none;fillColor=none;align=center;verticalAlign=middle;whiteSpace=wrap;rounded=0;fontSize=12;fontFamily=Helvetica;fontColor=#ffffff;movable=1;resizable=1;rotatable=1;deletable=1;editable=1;locked=0;connectable=1;" vertex="1" parent="QFNIT0m9x6jqfU3S40xn-32">
          <mxGeometry width="12" height="12" as="geometry" />
        </mxCell>
        <mxCell id="QFNIT0m9x6jqfU3S40xn-36" value="" style="pointerEvents=1;verticalLabelPosition=bottom;shadow=0;dashed=0;align=center;html=1;verticalAlign=top;shape=mxgraph.electrical.signal_sources.signal_ground;fontFamily=Helvetica;fontSize=11;fontColor=default;fillColor=none;" vertex="1" parent="1">
          <mxGeometry x="164" y="294" width="15" height="15" as="geometry" />
        </mxCell>
        <mxCell id="QFNIT0m9x6jqfU3S40xn-38" style="edgeStyle=orthogonalEdgeStyle;rounded=0;orthogonalLoop=1;jettySize=auto;html=1;exitX=1;exitY=0.5;exitDx=0;exitDy=0;entryX=0.5;entryY=0;entryDx=0;entryDy=0;entryPerimeter=0;endArrow=none;endFill=0;" edge="1" parent="1" source="QFNIT0m9x6jqfU3S40xn-16" target="QFNIT0m9x6jqfU3S40xn-36">
          <mxGeometry relative="1" as="geometry">
            <Array as="points">
              <mxPoint x="171" y="289" />
            </Array>
          </mxGeometry>
        </mxCell>
      </root>
    </mxGraphModel>
  </diagram>
</mxfile>
